<svg width="70" height="70" viewBox="0 0 70 70" fill="none" xmlns="http://www.w3.org/2000/svg">
<g clip-path="url(#clip0_131_865)">
<g clip-path="url(#clip1_131_865)">
<path d="M39.4886 52.1464L39.4383 67.3203L35.4427 69.6363L35.493 54.4624L39.4886 52.1464Z" fill="white"/>
<path d="M35.4442 70C35.3813 70 35.3184 69.9833 35.2611 69.9512C35.148 69.8857 35.0781 69.7659 35.0781 69.6349L35.127 54.4624C35.127 54.3328 35.1969 54.213 35.3086 54.1489L39.3042 51.8328C39.4173 51.7674 39.557 51.766 39.6702 51.8328C39.7833 51.8983 39.8532 52.0196 39.8532 52.1492L39.8043 67.3231C39.8043 67.4513 39.7345 67.5711 39.6227 67.6366L35.6272 69.9526C35.5713 69.9861 35.507 70.0014 35.4442 70.0014V70ZM35.8577 54.6714L35.8116 69.0008L39.0751 67.1099L39.1212 52.7804L35.8577 54.6714Z" fill="black"/>
<path d="M35.493 54.4624L35.4427 69.6363L31.4276 67.3231L31.4765 52.1506L35.493 54.4624Z" fill="black"/>
<path d="M35.4442 70C35.3813 70 35.3184 69.9833 35.2611 69.9512L31.2447 67.638C31.1315 67.5725 31.0616 67.4527 31.0616 67.3217L31.1105 52.1492C31.1105 52.0182 31.1804 51.8983 31.2936 51.8342C31.4067 51.7687 31.545 51.7701 31.6582 51.8342L35.6747 54.1475C35.7878 54.213 35.8577 54.3342 35.8577 54.4638L35.8088 69.6377C35.8088 69.7673 35.7389 69.8871 35.6258 69.9526C35.5699 69.9847 35.507 70.0014 35.4442 70.0014V70ZM31.7937 67.1126L35.0809 69.005L35.127 54.6714L31.8398 52.779L31.7937 67.1126Z" fill="black"/>
<path d="M39.4886 52.1464L35.493 54.4624L31.4766 52.1505L35.4721 49.8345L39.4886 52.1464Z" fill="white"/>
<path d="M35.4931 54.8275C35.4302 54.8275 35.3674 54.8108 35.3101 54.7787L31.2936 52.4655C31.1804 52.4 31.1106 52.2802 31.1106 52.1506C31.1106 52.021 31.1804 51.8997 31.2922 51.8356L35.2877 49.5196C35.3995 49.4541 35.5406 49.4527 35.6538 49.5196L39.6702 51.8314C39.7834 51.8969 39.8533 52.0168 39.8533 52.1464C39.8533 52.276 39.7834 52.3972 39.6716 52.4613L35.6761 54.7773C35.6202 54.8108 35.556 54.8275 35.4931 54.8275ZM32.2059 52.1492L35.4917 54.0415L38.758 52.1478L35.4721 50.2554L32.2059 52.1492Z" fill="black"/>
<path d="M67.5146 36.0486L67.4643 51.2225L63.4688 53.5385L63.519 38.3647L67.5146 36.0486Z" fill="white"/>
<path d="M63.4688 53.9036C63.4059 53.9036 63.3431 53.8869 63.2858 53.8549C63.1726 53.7894 63.1028 53.6681 63.1028 53.5385L63.1517 38.3646C63.1517 38.235 63.2215 38.1152 63.3333 38.0511L67.3288 35.7351C67.4406 35.6696 67.5817 35.6696 67.6948 35.7351C67.808 35.8006 67.8779 35.9218 67.8779 36.0514L67.829 51.2253C67.829 51.3549 67.7591 51.4747 67.6473 51.5388L63.6518 53.8549C63.5959 53.8883 63.5317 53.905 63.4688 53.905V53.9036ZM63.8823 38.5751L63.8362 52.9031L67.0997 51.0121L67.1458 36.6841L63.8823 38.5751Z" fill="black"/>
<path d="M63.5191 38.3646L63.4688 53.5385L59.4523 51.2253L59.5026 36.0528L63.5191 38.3646Z" fill="black"/>
<path d="M63.4688 53.9036C63.4059 53.9036 63.3431 53.8869 63.2858 53.8548L59.2693 51.5416C59.1562 51.4761 59.0863 51.3549 59.0863 51.2253L59.1352 36.0514C59.1352 35.9204 59.2051 35.8006 59.3182 35.7365C59.4314 35.671 59.5697 35.6724 59.6828 35.7365L63.6993 38.0497C63.8125 38.1152 63.8823 38.2364 63.8823 38.366L63.8334 53.5399C63.8334 53.6709 63.7636 53.7907 63.6504 53.8548C63.5945 53.8869 63.5317 53.9036 63.4688 53.9036ZM59.8184 51.0163L63.1056 52.9086L63.1517 38.575L59.8645 36.6827L59.8184 51.0163Z" fill="black"/>
<path d="M67.5147 36.0486L63.5192 38.3646L59.5027 36.0528L63.4982 33.7368L67.5147 36.0486Z" fill="white"/>
<path d="M63.5178 38.7297C63.4549 38.7297 63.392 38.713 63.3348 38.681L59.3183 36.3677C59.2051 36.3022 59.1353 36.1824 59.1353 36.0528C59.1353 35.9232 59.2051 35.802 59.3169 35.7379L63.3124 33.4219C63.4256 33.3564 63.5653 33.3564 63.6784 33.4219L67.6949 35.7337C67.8081 35.7992 67.8779 35.919 67.8779 36.0486C67.8779 36.1782 67.8081 36.2995 67.6963 36.3636L63.7008 38.6796C63.6449 38.713 63.5806 38.7297 63.5178 38.7297ZM60.2305 36.0514L63.5164 37.9438L66.7826 36.05L63.4968 34.1576L60.2305 36.0514Z" fill="black"/>
<path d="M10.5462 35.2919L10.4959 50.4658L6.50037 52.7818L6.55066 37.6079L10.5462 35.2919Z" fill="white"/>
<path d="M6.50177 53.1469C6.4389 53.1469 6.37603 53.1302 6.31875 53.0981C6.20559 53.0327 6.13574 52.9114 6.13574 52.7818L6.18464 37.6079C6.18464 37.4783 6.25449 37.3585 6.36625 37.2944L10.3618 34.9784C10.4735 34.9129 10.6146 34.9129 10.7278 34.9784C10.841 35.0439 10.9108 35.1651 10.9108 35.2947L10.8619 50.4686C10.8619 50.5982 10.7921 50.718 10.6803 50.7821L6.68478 53.0981C6.6289 53.1316 6.56463 53.1483 6.50177 53.1483V53.1469ZM6.91529 37.8184L6.86919 52.1478L10.1327 50.2568L10.1788 35.9288L6.91529 37.8197V37.8184Z" fill="black"/>
<path d="M6.55061 37.6079L6.50032 52.7818L2.48523 50.47L2.53413 35.2961L6.55061 37.6079Z" fill="black"/>
<path d="M6.50177 53.1469C6.43891 53.1469 6.37604 53.1302 6.31876 53.0981L2.30227 50.7849C2.18911 50.7194 2.11926 50.5982 2.11926 50.4686L2.16816 35.2947C2.16816 35.1637 2.23801 35.0452 2.35117 34.9798C2.46433 34.9143 2.60264 34.9157 2.7158 34.9798L6.73228 37.2916C6.84544 37.3571 6.9153 37.4783 6.9153 37.6079L6.8664 52.7818C6.8664 52.9128 6.79655 53.0326 6.68339 53.0967C6.62751 53.1288 6.56464 53.1455 6.50177 53.1455V53.1469ZM2.85131 50.2596L6.13854 52.1519L6.18464 37.8183L2.89741 35.9259L2.85131 50.2596Z" fill="black"/>
<path d="M10.5462 35.2919L6.55066 37.6079L2.53418 35.2961L6.52971 32.9801L10.5462 35.2919Z" fill="white"/>
<path d="M6.55072 37.973C6.48785 37.973 6.42499 37.9563 6.36771 37.9243L2.35122 35.6124C2.23806 35.5469 2.16821 35.4271 2.16821 35.2975C2.16821 35.1679 2.23806 35.0467 2.34983 34.9826L6.34536 32.6666C6.45712 32.6011 6.59822 32.6011 6.71138 32.6666L10.7279 34.9798C10.841 35.0453 10.9109 35.1651 10.9109 35.2947C10.9109 35.4243 10.841 35.5455 10.7293 35.6096L6.73373 37.9256C6.67785 37.9591 6.61359 37.9758 6.55072 37.9758V37.973ZM3.26349 35.2947L6.54932 37.1871L9.8156 35.2933L6.52977 33.4009L3.26349 35.2947Z" fill="black"/>
<path d="M39.0178 20.596L38.9689 35.7699L34.9734 38.0845L35.0223 22.912L39.0178 20.596Z" fill="white"/>
<path d="M34.9734 38.4496C34.9106 38.4496 34.8477 38.4329 34.7904 38.4009C34.6773 38.3354 34.6074 38.2141 34.6074 38.0845L34.6563 22.9106C34.6563 22.781 34.7262 22.6612 34.8379 22.5971L38.8335 20.2811C38.9452 20.2156 39.0863 20.2142 39.1995 20.2811C39.3126 20.3466 39.3825 20.4678 39.3825 20.5974L39.3336 35.7713C39.3336 35.9009 39.2638 36.0207 39.152 36.0848L35.1565 38.4009C35.1006 38.4343 35.0363 38.451 34.9734 38.451V38.4496ZM35.387 23.1211L35.3409 37.4491L38.6043 35.5581L38.6505 21.2301L35.387 23.1211Z" fill="black"/>
<path d="M35.0223 22.912L34.9734 38.0845L30.9569 35.7727L31.0058 20.5988L35.0223 22.912Z" fill="black"/>
<path d="M34.9735 38.4496C34.9106 38.4496 34.8477 38.4329 34.7904 38.4009L30.774 36.0876C30.6608 36.0221 30.5909 35.9009 30.5909 35.7713L30.6398 20.5974C30.6398 20.4664 30.7097 20.3466 30.8229 20.2825C30.936 20.217 31.0743 20.2184 31.1875 20.2825L35.204 22.5957C35.3171 22.6612 35.387 22.7824 35.387 22.912L35.3381 38.0859C35.3381 38.2169 35.2682 38.3368 35.1551 38.4009C35.0992 38.4329 35.0363 38.4496 34.9735 38.4496ZM31.323 35.5623L34.6102 37.4547L34.6563 23.1211L31.3691 21.2287L31.323 35.5623Z" fill="black"/>
<path d="M39.0179 20.5961L35.0223 22.9121L31.0059 20.5988L35.0028 18.2828L39.0179 20.5961Z" fill="white"/>
<path d="M35.0224 23.2757C34.9595 23.2757 34.8967 23.259 34.8394 23.227L30.8229 20.9138C30.7097 20.8483 30.6399 20.7284 30.6399 20.5988C30.6399 20.4692 30.7097 20.348 30.8215 20.2839L34.817 17.9679C34.9288 17.9024 35.0699 17.9024 35.1831 17.9679L39.1995 20.2797C39.3127 20.3452 39.3826 20.465 39.3826 20.5946C39.3826 20.7242 39.3127 20.8455 39.2009 20.9096L35.2054 23.2256C35.1495 23.259 35.0853 23.2757 35.0224 23.2757ZM31.7352 20.5974L35.021 22.4898L38.2873 20.596L35.0014 18.7037L31.7352 20.5974Z" fill="black"/>
<path d="M68.0372 32.1412C70.1551 33.3605 70.1663 35.3393 68.0623 36.5586L38.9369 53.4396C36.8329 54.6589 33.4088 54.6589 31.2895 53.4396L1.97824 36.5614C-0.139667 35.3421 -0.150844 33.3633 1.9531 32.144L31.0786 15.2631C33.1825 14.0437 36.6066 14.0437 38.7259 15.2631L68.0386 32.1426L68.0372 32.1412Z" fill="white"/>
<path d="M31.2909 53.4438L1.97681 36.56C0.909469 35.9455 0.378594 35.1456 0.378594 34.3374L0.364624 41.7481C0.364624 42.5479 0.894102 43.3562 1.96284 43.9707L31.2769 60.8475C32.2953 61.4355 33.6183 61.7337 34.9511 61.756L34.9539 54.3454C33.6267 54.3217 32.3079 54.0262 31.2909 53.4438Z" fill="black"/>
<path d="M68.0637 36.56L38.9354 53.4437C37.8429 54.075 36.3928 54.3704 34.9538 54.3453L34.951 61.756C36.3844 61.7797 37.8289 61.4815 38.92 60.8474L68.0483 43.9707C69.0877 43.3631 69.6172 42.5702 69.6172 41.7773L69.6311 34.3666C69.6311 35.1595 69.1086 35.9524 68.0623 36.56H68.0637Z" fill="#BDD1F7"/>
<path d="M69.6298 34.368L69.6144 41.7759C69.6144 42.5716 69.0891 43.3603 68.0469 43.9721L38.9187 60.8461C37.8318 61.4801 36.3831 61.7755 34.9497 61.7532V54.3453C36.3915 54.3746 37.8402 54.0806 38.9341 53.4465L43.9229 50.5564C45.0978 51.0804 46.4362 51.3674 47.8625 51.3674C52.4825 51.3674 56.2294 48.2864 56.2294 44.4751C56.2294 44.1365 56.2001 43.7965 56.1414 43.4732L68.0637 36.5586C69.1129 35.9539 69.6312 35.1582 69.6312 34.3694L69.6298 34.368Z" fill="#ACBDEA"/>
<path d="M35.1187 54.7133C33.6686 54.7133 32.2157 54.3941 31.1078 53.7559L1.79516 36.8778C0.649584 36.2172 0.018123 35.3184 0.016726 34.3458C0.0153289 33.3787 0.638408 32.4854 1.77001 31.8291L30.8941 14.9482C33.0958 13.6717 36.6904 13.6703 38.9075 14.9482L68.2201 31.8263C69.3657 32.4854 69.9972 33.3856 69.9986 34.3583C70 35.3254 69.3769 36.2186 68.2453 36.875L39.1198 53.7559C38.019 54.3941 36.5688 54.7133 35.1173 54.7133H35.1187ZM34.8966 14.7085C33.5778 14.7085 32.2618 14.9983 31.2615 15.578L2.13603 32.459C1.23913 32.9787 0.74598 33.649 0.747377 34.3444C0.748774 35.0467 1.25031 35.7212 2.16118 36.2451L31.4738 53.1233C33.4884 54.2827 36.7546 54.2827 38.7552 53.1233L67.8807 36.2423C68.7775 35.7225 69.2707 35.0523 69.2693 34.3569C69.2679 33.6546 68.7664 32.9801 67.8555 32.4562L38.5429 15.578C37.5356 14.9983 36.2154 14.7085 34.8966 14.7085Z" fill="black"/>
<path d="M34.9525 62.1197H34.9469C33.4912 62.096 32.1221 61.756 31.0939 61.1624L1.77983 44.287C0.631461 43.6265 0 42.7249 0 41.7495L0.0139704 34.3374C0.0139704 34.1367 0.178821 33.9737 0.379994 33.9737C0.582565 33.9737 0.746018 34.1367 0.746018 34.3388C0.746018 35.0439 1.24895 35.7198 2.16122 36.2451L31.4753 53.1288C32.3945 53.6556 33.6323 53.958 34.9623 53.9817C35.1621 53.9858 35.3213 54.1475 35.3213 54.3468L35.3185 61.7574C35.3185 61.855 35.2794 61.9483 35.2096 62.018C35.1411 62.0849 35.0489 62.1225 34.9539 62.1225L34.9525 62.1197ZM0.741827 36.057L0.730651 41.7509C0.730651 42.4546 1.23358 43.1318 2.14585 43.6558L31.4599 60.5325C32.2953 61.0161 33.3948 61.3115 34.5865 61.3784L34.5893 54.6979C33.2733 54.6269 32.0495 54.2994 31.1106 53.7601L1.79519 36.875C1.37189 36.6311 1.01984 36.3552 0.741827 36.0556V36.057Z" fill="black"/>
<path d="M35.1104 62.1211C35.0559 62.1211 35.0014 62.1211 34.9455 62.1197C34.7457 62.117 34.5851 61.9539 34.5851 61.7547L34.5879 54.344C34.5879 54.2464 34.627 54.1531 34.6968 54.0834C34.7667 54.0151 34.8366 53.9733 34.9595 53.9789C36.4012 53.9998 37.7564 53.7016 38.7511 53.1261L67.8779 36.2423C68.7706 35.7253 69.2624 35.0606 69.2652 34.3709V34.3639C69.2652 34.1632 69.43 34.0002 69.6312 34.0002C69.8338 34.0002 69.9972 34.1632 69.9972 34.3653V34.3722L69.9832 41.7759C69.9832 42.7333 69.3616 43.6237 68.2341 44.2829L39.1045 61.1596C38.0358 61.7797 36.622 62.1184 35.1104 62.1184V62.1211ZM35.3199 54.7091L35.3171 61.3896C36.622 61.3617 37.8262 61.0607 38.7371 60.5325L67.8653 43.6558C68.7594 43.1332 69.2526 42.4657 69.2526 41.7773L69.2638 36.0835C68.9941 36.3719 68.6547 36.6395 68.2481 36.875L39.1199 53.7587C38.0986 54.3496 36.7617 54.6826 35.3213 54.7091H35.3199Z" fill="black"/>
<path d="M48.1406 7.66009C49.0053 8.15896 49.0067 8.96859 48.1503 9.46468L36.235 16.3848C35.3758 16.8837 33.9816 16.8837 33.1168 16.3848L21.1232 9.46468C20.2613 8.96719 20.2543 8.15757 21.1135 7.66009L33.0288 0.739933C33.8852 0.242451 35.285 0.242451 36.147 0.739933L48.1406 7.66009Z" fill="#88ADF6"/>
<path d="M48.1503 9.46331L36.2364 16.3835C35.3786 16.8823 33.9816 16.8823 33.1154 16.3835L21.1232 9.46331C20.2613 8.96862 20.2571 8.1576 21.1148 7.65872L27.5636 3.91158C27.8681 7.54585 30.8215 10.3914 34.4216 10.3914C38.0218 10.3914 41.0841 7.43576 41.2951 3.70813L48.1378 7.65733C49.0039 8.1562 49.0039 8.96722 48.1489 9.46192L48.1503 9.46331Z" fill="#869FF2"/>
<path d="M48.1503 9.46328L36.2364 16.3834C35.7977 16.6384 35.2179 16.7611 34.641 16.7555L34.5977 32.0116C35.1746 32.0172 35.7544 31.8945 36.1931 31.6395L48.107 24.7194C48.5317 24.4741 48.7469 24.1467 48.7469 23.822L48.7902 8.56586C48.7902 8.89333 48.575 9.21662 48.1503 9.46328Z" fill="#BDD1F7"/>
<path d="M48.7902 8.56726L48.7469 23.8234C48.7469 24.1467 48.5317 24.4741 48.107 24.7208L36.1931 31.6409C35.7558 31.8946 35.1746 32.0186 34.5977 32.0116L34.6242 22.0425C35.5141 22.4675 36.5088 22.7058 37.5538 22.7058C41.432 22.7058 44.5753 19.4659 44.5753 15.4693C44.5753 14.2249 44.2708 13.0516 43.7329 12.0301L48.1489 9.46468C48.5736 9.21942 48.7888 8.89613 48.7888 8.56726H48.7902Z" fill="#ACBDEA"/>
<path d="M33.1154 16.3848L21.1232 9.46466C20.6943 9.2194 20.475 8.89193 20.475 8.56445L20.4275 23.8136C20.4275 24.1411 20.6454 24.4727 21.0785 24.7222L33.0707 31.6423C33.494 31.8862 34.0444 32.0088 34.5963 32.0144L34.6396 16.7583C34.0877 16.7527 33.5373 16.6301 33.114 16.3862L33.1154 16.3848Z" fill="black"/>
<path d="M43.9299 11.9159L40.4066 13.9629L25.3325 5.21033L28.8559 3.16327L43.9299 11.9159Z" fill="white"/>
<path d="M43.9299 11.9159L40.4066 13.9629L25.3325 5.21033L28.8559 3.16327L31.439 4.66408C31.411 4.85081 31.3957 5.03893 31.3957 5.23402C31.3957 7.48314 33.4395 9.30863 35.9724 9.30863C36.8581 9.30863 37.6851 9.08706 38.3837 8.69688L43.9313 11.9173L43.9299 11.9159Z" fill="#B2C6F7"/>
<path d="M43.4884 16.467L41.0003 17.9121C40.7404 18.0626 40.4149 17.8759 40.4149 17.5763L40.4052 13.9629L43.9299 11.9158L43.9411 15.6797C43.9411 16.0044 43.7692 16.304 43.4884 16.467Z" fill="black"/>
<path d="M34.6787 17.1248C34.0514 17.1248 33.4242 16.984 32.9352 16.7012L20.9416 9.78101C20.4052 9.47165 20.109 9.03827 20.109 8.5603C20.109 8.08512 20.3996 7.65313 20.9305 7.34516L32.8444 0.423617C33.8209 -0.142146 35.3521 -0.140753 36.33 0.423617L48.3236 7.34377C48.8601 7.65313 49.1562 8.08651 49.1562 8.56448C49.1562 9.03967 48.8656 9.47165 48.3348 9.77962L36.4194 16.6998C35.9319 16.9827 35.3046 17.1248 34.6787 17.1248ZM34.5865 0.731582C34.085 0.731582 33.5848 0.838882 33.2132 1.05488L21.2993 7.97503C21.0073 8.14504 20.8397 8.35685 20.8397 8.55891C20.8397 8.76236 21.0101 8.97835 21.3077 9.14975L33.3012 16.0699C34.0514 16.5019 35.3102 16.5019 36.052 16.0699L47.9674 9.14975C48.2593 8.97975 48.427 8.76793 48.4256 8.56588C48.4256 8.36242 48.2551 8.14643 47.9576 7.97503L35.964 1.05488C35.5896 0.838882 35.0881 0.731582 34.5851 0.731582H34.5865Z" fill="black"/>
<path d="M34.6367 32.3781C34.6227 32.3781 34.6088 32.3781 34.5934 32.3781C34.3922 32.3753 34.2302 32.2123 34.2316 32.013L34.2749 16.7569C34.2749 16.6594 34.314 16.5674 34.3839 16.4991C34.4537 16.4308 34.5669 16.4085 34.6451 16.3946C35.1802 16.3946 35.6915 16.2831 36.0519 16.0727L47.9659 9.15115C48.255 8.98393 48.4227 8.77351 48.4241 8.57284V8.56866C48.4241 8.368 48.5889 8.20496 48.7901 8.20496C48.9913 8.20496 49.1547 8.368 49.1547 8.57005V8.57423L49.1114 23.8276C49.1114 24.2944 48.8111 24.7361 48.29 25.0385L36.376 31.9587C35.9066 32.2304 35.2905 32.3809 34.6353 32.3809L34.6367 32.3781ZM35.0055 17.1095L34.9636 31.634C35.3618 31.595 35.7292 31.4891 36.0086 31.3274L47.9226 24.4073C48.2131 24.2386 48.3808 24.0268 48.3808 23.8262L48.4199 9.72806C48.392 9.74617 48.3626 9.76429 48.3333 9.78101L36.4193 16.7012C36.0296 16.9283 35.5364 17.069 35.0055 17.1109V17.1095Z" fill="black"/>
<path d="M34.5977 32.3781H34.5935C33.955 32.3726 33.3487 32.2221 32.8891 31.9573L20.8969 25.0357C20.366 24.7306 20.0629 24.2846 20.0629 23.8122L20.1104 8.56311C20.1104 8.36244 20.2752 8.1994 20.4764 8.1994C20.6776 8.1994 20.841 8.36244 20.841 8.5645C20.841 8.76656 21.0101 8.97977 21.3048 9.14838L33.2984 16.0699C33.6491 16.2734 34.1282 16.3876 34.6438 16.3932C34.8449 16.396 35.007 16.559 35.0056 16.7583L34.9623 32.0144C34.9623 32.112 34.9232 32.2039 34.8533 32.2722C34.7849 32.3391 34.6927 32.3767 34.5963 32.3767L34.5977 32.3781ZM20.8382 9.71693L20.7949 23.8136C20.7949 24.0171 20.9654 24.2331 21.2643 24.4059L33.2565 31.3274C33.5247 31.4807 33.8628 31.5838 34.2358 31.627L34.2777 17.1039C33.7734 17.0551 33.3068 16.9158 32.9352 16.7012L20.943 9.78103C20.9067 9.76152 20.8731 9.74062 20.8396 9.71832L20.8382 9.71693Z" fill="black"/>
<path d="M40.4065 14.328C40.3436 14.328 40.2794 14.3113 40.2221 14.2779L25.148 5.52525C25.0363 5.45975 24.9664 5.33991 24.9664 5.21032C24.9664 5.08072 25.0363 4.96088 25.148 4.89538L28.6714 2.84832C28.7859 2.78143 28.9256 2.78143 29.0402 2.84832L44.1142 11.6009C44.226 11.6664 44.2959 11.7863 44.2959 11.9159C44.2959 12.0455 44.226 12.1653 44.1142 12.2308L40.5909 14.2779C40.5336 14.3113 40.4708 14.328 40.4065 14.328ZM26.0589 5.21032L40.4065 13.5421L43.2034 11.9173L28.8558 3.58549L26.0589 5.21032Z" fill="black"/>
<path d="M40.8046 18.3301C40.6761 18.3301 40.5476 18.2967 40.4288 18.2284C40.1913 18.0932 40.0502 17.8494 40.0488 17.5763L40.0391 13.9629C40.0391 13.8319 40.1075 13.7121 40.2207 13.6466L43.7454 11.5995C43.8586 11.534 43.9983 11.5326 44.1114 11.5995C44.2246 11.665 44.2944 11.7848 44.2944 11.9144L44.3056 15.6783C44.3056 16.1312 44.0639 16.5548 43.6728 16.782L41.1846 18.227C41.0659 18.2967 40.9346 18.3301 40.8046 18.3301ZM40.7711 14.1719L40.7809 17.5749L43.3053 16.1521C43.473 16.0546 43.5764 15.8748 43.5764 15.6797L43.568 12.5485L40.7725 14.1719H40.7711Z" fill="black"/>
<path d="M31.6066 17.2627C32.4714 17.7616 32.4728 18.5712 31.6164 19.0673L19.7011 25.9875C18.8419 26.4864 17.4476 26.4864 16.5829 25.9875L4.5893 19.0673C3.72733 18.5699 3.72034 17.7602 4.57952 17.2627L16.4949 10.3426C17.3512 9.84511 18.7511 9.84511 19.6131 10.3426L31.6066 17.2627Z" fill="#88ADF6"/>
<path d="M31.6164 19.0673L19.7025 25.9875C18.8447 26.4863 17.4476 26.4863 16.5815 25.9875L4.58929 19.0673C3.72732 18.5726 3.72313 17.7616 4.58091 17.2627L11.0296 13.5156C11.3342 17.1498 14.2875 19.9954 17.8877 19.9954C21.4879 19.9954 24.5502 17.0398 24.7611 13.3121L31.6038 17.2613C32.47 17.7602 32.47 18.5712 31.615 19.0659L31.6164 19.0673Z" fill="#869FF2"/>
<path d="M31.6164 19.0673L19.7024 25.9875C19.2638 26.2425 18.684 26.3651 18.107 26.3596L18.0637 41.6157C18.6407 41.6212 19.2205 41.4986 19.6591 41.2436L31.5731 34.3234C31.9978 34.0782 32.2129 33.7507 32.2129 33.426L32.2562 18.1699C32.2562 18.4974 32.0411 18.8207 31.6164 19.0673Z" fill="#BDD1F7"/>
<path d="M32.2562 18.1699L32.2129 33.426C32.2129 33.7493 31.9978 34.0768 31.5731 34.3234L19.6591 41.2436C19.2219 41.4972 18.6407 41.6212 18.0637 41.6143L18.0903 31.6451C18.9802 32.0701 19.9749 32.3084 21.0199 32.3084C24.898 32.3084 28.0414 29.0685 28.0414 25.072C28.0414 23.8276 27.7368 22.6542 27.199 21.6328L31.615 19.0673C32.0397 18.8221 32.2548 18.4974 32.2548 18.1699H32.2562Z" fill="#ACBDEA"/>
<path d="M16.5815 25.9875L4.58928 19.0673C4.16039 18.8221 3.94105 18.4946 3.94105 18.1671L3.89355 33.4163C3.89355 33.7437 4.11149 34.0754 4.54457 34.3248L16.5368 41.245C16.9601 41.4888 17.5105 41.6115 18.0623 41.617L18.1056 26.3609C17.5538 26.3554 17.0034 26.2327 16.5801 25.9889L16.5815 25.9875Z" fill="black"/>
<path d="M27.396 21.5185L23.8726 23.5656L8.79858 14.813L12.3219 12.7659L27.396 21.5185Z" fill="white"/>
<path d="M27.396 21.5185L23.8726 23.5656L8.79858 14.813L12.3219 12.7659L14.905 14.2667C14.8771 14.4535 14.8617 14.6416 14.8617 14.8367C14.8617 17.0858 16.9056 18.9113 19.4384 18.9113C20.3242 18.9113 21.1512 18.6897 21.8497 18.2995L27.3974 21.5199L27.396 21.5185Z" fill="#B2C6F7"/>
<path d="M26.9545 26.0711L24.4664 27.5162C24.2065 27.6667 23.881 27.4799 23.881 27.1803L23.8712 23.567L27.3959 21.5199L27.4071 25.2838C27.4071 25.6084 27.2353 25.908 26.9545 26.0711Z" fill="black"/>
<path d="M18.1448 26.7274C17.5175 26.7274 16.8902 26.5867 16.3999 26.3024L4.40771 19.3823C3.87125 19.0729 3.57507 18.6395 3.57507 18.1615C3.57507 17.6864 3.86566 17.2558 4.39653 16.9464L16.3105 10.0263C17.2842 9.46049 18.8168 9.46049 19.7961 10.0263L31.7897 16.9464C32.3261 17.2558 32.6223 17.6891 32.6223 18.1671C32.6223 18.6423 32.3317 19.0743 31.7994 19.3823L19.8855 26.3024C19.3979 26.5853 18.7707 26.7274 18.1448 26.7274ZM18.0526 10.3342C17.551 10.3342 17.0509 10.4415 16.6779 10.6575L4.76395 17.5777C4.47197 17.7477 4.30433 17.9595 4.30433 18.1615C4.30433 18.365 4.47477 18.581 4.77233 18.7524L16.7659 25.6725C17.5161 26.1045 18.7748 26.1045 19.5167 25.6725L31.4306 18.7524C31.7226 18.5824 31.8902 18.3706 31.8902 18.1685C31.8902 17.9665 31.7198 17.7491 31.4222 17.5777L19.4287 10.6575C19.0543 10.4415 18.5527 10.3342 18.0512 10.3342H18.0526Z" fill="black"/>
<path d="M18.1028 41.9807C18.0888 41.9807 18.0748 41.9807 18.0595 41.9807C17.8583 41.9779 17.6962 41.8149 17.6976 41.6156L17.7409 26.3595C17.7409 26.262 17.7801 26.17 17.8499 26.1017C17.9198 26.0334 18.0385 25.993 18.1112 25.9972C18.6267 25.9944 19.1575 25.8843 19.518 25.6753L31.4319 18.7551C31.7211 18.5879 31.8888 18.3775 31.8902 18.1768V18.1727C31.8902 17.972 32.055 17.809 32.2562 17.809C32.4574 17.809 32.6208 17.972 32.6208 18.1741V18.1796L32.5775 33.4316C32.5775 33.8984 32.2771 34.3401 31.756 34.6425L19.8421 41.5627C19.3727 41.8344 18.7566 41.9849 18.1014 41.9849L18.1028 41.9807ZM18.4716 26.7121L18.4297 41.2366C18.8278 41.1976 19.1953 41.0917 19.4747 40.93L31.3886 34.0099C31.6792 33.8412 31.8468 33.6294 31.8468 33.4288L31.886 19.3321C31.858 19.3502 31.8287 19.3683 31.7993 19.385L19.8854 26.3052C19.4942 26.5323 19.0025 26.6731 18.4716 26.7149V26.7121Z" fill="black"/>
<path d="M18.0637 41.9807H18.0595C17.4211 41.9752 16.8148 41.8247 16.3551 41.5599L4.36296 34.6383C3.83209 34.3332 3.52893 33.8872 3.52893 33.4148L3.57643 18.1671C3.57643 17.9636 3.74128 17.802 3.94245 17.802C4.14363 17.802 4.30708 17.965 4.30708 18.1671C4.30708 18.3692 4.47612 18.5824 4.7709 18.7524L16.7631 25.6739C17.1165 25.8774 17.5943 25.9916 18.1098 25.9972C18.311 25.9986 18.473 26.163 18.4717 26.3623L18.4283 41.6184C18.4283 41.716 18.3892 41.8079 18.3194 41.8762C18.2509 41.9431 18.1587 41.9807 18.0623 41.9807H18.0637ZM4.30429 19.3195L4.26098 33.4148C4.26098 33.6183 4.43142 33.8343 4.73038 34.0071L16.7226 40.9286C16.9908 41.0819 17.3289 41.185 17.7019 41.2282L17.7438 26.7051C17.2409 26.6563 16.7729 26.5184 16.4012 26.3038L4.40906 19.3822C4.37274 19.3627 4.33921 19.3418 4.30568 19.3195H4.30429Z" fill="black"/>
<path d="M23.8726 23.9306C23.8097 23.9306 23.7454 23.9139 23.6882 23.8805L8.61411 15.1278C8.50235 15.0624 8.4325 14.9425 8.4325 14.8129C8.4325 14.6833 8.50235 14.5635 8.61411 14.498L12.1374 12.4509C12.252 12.384 12.3917 12.384 12.5063 12.4509L27.5803 21.2035C27.6921 21.269 27.7619 21.3889 27.7619 21.5185C27.7619 21.6481 27.6921 21.7679 27.5803 21.8334L24.057 23.8805C23.9997 23.9139 23.9368 23.9306 23.8726 23.9306ZM9.52498 14.8129L23.8726 23.1447L26.6694 21.5199L12.3218 13.1881L9.52498 14.8129Z" fill="black"/>
<path d="M24.2707 27.9328C24.1422 27.9328 24.0136 27.8994 23.8949 27.8311C23.6574 27.6959 23.5163 27.452 23.5149 27.1789L23.5051 23.5656C23.5051 23.4346 23.5736 23.3147 23.6867 23.2492L27.2115 21.2022C27.3246 21.1367 27.4643 21.1353 27.5775 21.2022C27.6907 21.2677 27.7605 21.3875 27.7605 21.5171L27.7717 25.281C27.7717 25.7339 27.53 26.1575 27.1388 26.3846L24.6507 27.8297C24.5319 27.8994 24.4006 27.9328 24.2707 27.9328ZM24.2372 23.7746L24.247 27.1775L26.7714 25.7548C26.939 25.6572 27.0424 25.4774 27.0424 25.2824L27.034 22.1512L24.2386 23.7746H24.2372Z" fill="black"/>
<path d="M65.4932 17.6725C66.358 18.1714 66.3594 18.981 65.503 19.4771L53.5877 26.3972C52.7285 26.8961 51.3342 26.8961 50.4695 26.3972L38.4759 19.4771C37.6139 18.9796 37.6069 18.17 38.4661 17.6725L50.3815 10.7523C51.2378 10.2548 52.6377 10.2548 53.4996 10.7523L65.4932 17.6725Z" fill="#88ADF6"/>
<path d="M65.503 19.477L53.589 26.3972C52.7313 26.8961 51.3342 26.8961 50.4681 26.3972L38.4759 19.477C37.6139 18.9823 37.6097 18.1713 38.4675 17.6725L44.9162 13.9253C45.2208 17.5596 48.1741 20.4051 51.7743 20.4051C55.3745 20.4051 58.4368 17.4495 58.6477 13.7219L65.4904 17.6711C66.3566 18.1699 66.3566 18.981 65.5016 19.4756L65.503 19.477Z" fill="#869FF2"/>
<path d="M65.503 19.4771L53.589 26.3972C53.1504 26.6522 52.5706 26.7749 51.9936 26.7693L51.9503 42.0254C52.5273 42.031 53.1071 41.9083 53.5457 41.6533L65.4597 34.7332C65.8844 34.4879 66.0995 34.1604 66.0995 33.8358L66.1428 18.5797C66.1428 18.9071 65.9277 19.2304 65.503 19.4771Z" fill="#BDD1F7"/>
<path d="M66.1428 18.5797L66.0995 33.8358C66.0995 34.1591 65.8844 34.4865 65.4597 34.7332L53.5457 41.6533C53.1085 41.9069 52.5273 42.031 51.9503 42.024L51.9783 32.0549C52.8682 32.4799 53.8629 32.7182 54.9078 32.7182C58.786 32.7182 61.9294 29.4783 61.9294 25.4817C61.9294 24.2373 61.6248 23.064 61.087 22.0425L65.503 19.4771C65.9277 19.2318 66.1428 18.9071 66.1428 18.5797Z" fill="#ACBDEA"/>
<path d="M50.4681 26.3972L38.4759 19.477C38.047 19.2318 37.8277 18.9043 37.8277 18.5768L37.7802 33.826C37.7802 34.1535 37.9981 34.4851 38.4312 34.7345L50.4233 41.6547C50.8467 41.8986 51.3971 42.0212 51.9489 42.0268L51.9922 26.7707C51.4404 26.7651 50.89 26.6425 50.4667 26.3986L50.4681 26.3972Z" fill="black"/>
<path d="M61.2826 21.9297L57.7592 23.9767L42.6852 15.2227L46.2085 13.1757L61.2826 21.9297Z" fill="white"/>
<path d="M61.2826 21.9296L57.7592 23.9767L42.6852 15.2241L46.2085 13.177L48.7916 14.6778C48.7637 14.8645 48.7483 15.0527 48.7483 15.2478C48.7483 17.4969 50.7922 19.3224 53.325 19.3224C54.2107 19.3224 55.0378 19.1008 55.7363 18.7106L61.284 21.931L61.2826 21.9296Z" fill="#B2C6F7"/>
<path d="M60.8411 26.4808L58.353 27.9259C58.0931 28.0764 57.7676 27.8897 57.7676 27.5901L57.7578 23.9767L61.2825 21.9296L61.2937 25.6935C61.2937 26.0182 61.1219 26.3178 60.8411 26.4808Z" fill="black"/>
<path d="M52.0314 27.1372C51.4041 27.1372 50.7768 26.9964 50.2879 26.7135L38.2943 19.7934C37.7578 19.484 37.4617 19.0506 37.4617 18.5727C37.4617 18.0975 37.7523 17.6669 38.2831 17.3575L50.1985 10.4374C51.1736 9.87162 52.7034 9.87162 53.6841 10.4374L65.6763 17.3575C66.2127 17.6669 66.5089 18.1003 66.5089 18.5782C66.5089 19.0534 66.2183 19.4854 65.6874 19.7934L53.7721 26.7135C53.2845 26.9964 52.6573 27.1386 52.0314 27.1386V27.1372ZM51.9392 10.744C51.4376 10.744 50.9389 10.8513 50.5673 11.0672L38.6519 17.9874C38.36 18.1574 38.1923 18.3692 38.1923 18.5713C38.1923 18.7747 38.3628 18.9907 38.6603 19.1621L50.6539 26.0823C51.4041 26.5143 52.6628 26.5143 53.4047 26.0823L65.32 19.1621C65.612 18.9921 65.7796 18.7803 65.7782 18.5782C65.7782 18.3748 65.6078 18.1588 65.3102 17.9874L53.3181 11.0672C52.9436 10.8513 52.4407 10.744 51.9392 10.744Z" fill="black"/>
<path d="M51.9894 42.3905C51.9754 42.3905 51.9614 42.3905 51.9461 42.3905C51.7449 42.3877 51.5828 42.2247 51.5842 42.0254L51.6275 26.7693C51.6275 26.6718 51.6667 26.5798 51.7365 26.5115C51.805 26.4446 51.8972 26.407 51.9936 26.407C52.0229 26.4126 52.0201 26.407 52.0341 26.407C52.5538 26.407 53.0511 26.2899 53.4046 26.0851L65.3185 19.1635C65.3185 19.1635 65.3185 19.1635 65.3199 19.1635C65.6091 18.9963 65.7754 18.7859 65.7767 18.5852V18.5811C65.7767 18.3804 65.9416 18.2173 66.1428 18.2173C66.3439 18.2173 66.5074 18.3804 66.5074 18.5824V18.588L66.4641 33.8413C66.4641 34.3082 66.1637 34.7499 65.6426 35.0523L53.7287 41.9725C53.2607 42.2456 52.6432 42.3947 51.988 42.3947L51.9894 42.3905ZM52.3582 27.1219L52.3163 41.6464C52.7144 41.6073 53.0819 41.5014 53.3613 41.3398L65.2752 34.4183C65.5658 34.2496 65.7334 34.0378 65.7334 33.8372L65.7726 19.7391C65.7446 19.7572 65.7153 19.7753 65.6859 19.792L53.772 26.7122C53.3808 26.9393 52.8891 27.08 52.3582 27.1219Z" fill="black"/>
<path d="M51.9503 42.3905H51.9461C51.3077 42.3835 50.7028 42.2344 50.2417 41.9697L38.2496 35.0481C37.7187 34.7429 37.4155 34.297 37.4155 33.8246L37.463 18.5741C37.463 18.3734 37.6279 18.2104 37.829 18.2104C38.0302 18.2104 38.1937 18.3734 38.1937 18.5755C38.1937 18.7775 38.3627 18.9908 38.6575 19.1608L50.6511 26.0823C51.0045 26.2858 51.4823 26.4 51.9978 26.4056C52.199 26.407 52.361 26.5714 52.3596 26.7707L52.3163 42.0268C52.3163 42.1244 52.2772 42.2163 52.2074 42.2846C52.1389 42.3515 52.0467 42.3891 51.9503 42.3891V42.3905ZM38.1909 19.7293L38.1476 33.826C38.1476 34.0295 38.318 34.2455 38.617 34.4169L50.6092 41.3384C50.8774 41.4917 51.2155 41.5948 51.5885 41.638L51.6304 27.1149C51.1275 27.0661 50.6608 26.9282 50.2878 26.7136L38.2957 19.792C38.2593 19.7725 38.2258 19.7516 38.1923 19.7293H38.1909Z" fill="black"/>
<path d="M57.7592 24.3404C57.6963 24.3404 57.632 24.3237 57.5747 24.2903L42.5007 15.5376C42.3889 15.4721 42.3191 15.3523 42.3191 15.2227C42.3191 15.0931 42.3889 14.9733 42.5007 14.9078L46.024 12.8607C46.1386 12.7938 46.2783 12.7938 46.3929 12.8607L61.4669 21.6133C61.5787 21.6788 61.6485 21.7987 61.6485 21.9283C61.6485 22.0579 61.5787 22.1777 61.4669 22.2432L57.9436 24.2903C57.8863 24.3237 57.8234 24.3404 57.7592 24.3404ZM43.4116 15.2227L57.7592 23.5531L60.556 21.9283L46.2084 13.5965L43.4116 15.2213V15.2227Z" fill="black"/>
<path d="M58.1573 28.3439C58.0288 28.3439 57.9002 28.3105 57.7815 28.2422C57.544 28.107 57.4029 27.8632 57.4015 27.5901L57.3917 23.9767C57.3917 23.8457 57.4602 23.7259 57.5733 23.6604L61.0981 21.6133C61.2112 21.5478 61.3509 21.5464 61.4641 21.6133C61.5773 21.6788 61.6471 21.7986 61.6471 21.9282L61.6583 25.6921C61.6583 26.1464 61.4166 26.5686 61.0254 26.7958L58.5373 28.2408C58.4185 28.3105 58.2872 28.3439 58.1573 28.3439ZM58.1238 24.1857L58.1336 27.5887L60.658 26.1659C60.8256 26.0697 60.929 25.8886 60.9276 25.6935L60.9192 22.5623L58.1238 24.1857Z" fill="black"/>
<path d="M48.9593 27.2751C49.8241 27.7739 49.8254 28.5836 48.9691 29.0797L37.0537 35.9998C36.1945 36.4987 34.8003 36.4987 33.9355 35.9998L21.942 29.0797C21.08 28.5822 21.073 27.7726 21.9322 27.2751L33.8475 20.3549C34.7039 19.8574 36.1037 19.8574 36.9657 20.3549L48.9593 27.2751Z" fill="#88ADF6"/>
<path d="M48.9691 29.0796L37.0551 35.9998C36.1973 36.4987 34.8003 36.4987 33.9341 35.9998L21.942 29.0796C21.08 28.5849 21.0758 27.7739 21.9336 27.2751L28.3823 23.5279C28.6869 27.1622 31.6402 30.0077 35.2404 30.0077C38.8405 30.0077 41.9028 27.0521 42.1138 23.3245L48.9565 27.2737C49.8226 27.7725 49.8226 28.5836 48.9677 29.0782L48.9691 29.0796Z" fill="#869FF2"/>
<path d="M48.969 29.0797L37.0551 35.9998C36.6164 36.2548 36.0367 36.3775 35.4597 36.3719L35.4164 51.628C35.9934 51.6336 36.5731 51.5109 37.0118 51.2559L48.9257 44.3358C49.3504 44.0905 49.5656 43.763 49.5656 43.4384L49.6089 28.1823C49.6089 28.5097 49.3937 28.833 48.969 29.0797Z" fill="#BDD1F7"/>
<path d="M49.6089 28.1823L49.5656 43.4384C49.5656 43.7617 49.3504 44.0891 48.9257 44.3358L37.0118 51.2559C36.5745 51.5095 35.9934 51.6336 35.4164 51.6266L35.4429 41.6575C36.3328 42.0825 37.3275 42.3208 38.3725 42.3208C42.2507 42.3208 45.394 39.0809 45.394 35.0843C45.394 33.8399 45.0895 32.6666 44.5516 31.6451L48.9677 29.0797C49.3924 28.8344 49.6075 28.5097 49.6075 28.1823H49.6089Z" fill="#ACBDEA"/>
<path d="M33.9341 35.9998L21.9419 29.0796C21.513 28.8344 21.2937 28.5069 21.2937 28.1794L21.2462 43.4286C21.2462 43.7561 21.4642 44.0877 21.8972 44.3372L33.8894 51.2573C34.3127 51.5012 34.8631 51.6238 35.415 51.6294L35.4583 36.3733C34.9065 36.3677 34.356 36.2451 33.9327 36.0012L33.9341 35.9998Z" fill="black"/>
<path d="M44.7486 31.5322L41.2253 33.5793L26.1512 24.8253L29.6746 22.7796L44.7486 31.5322Z" fill="white"/>
<path d="M44.7486 31.5322L41.2253 33.5793L26.1512 24.8267L29.6746 22.7796L32.2577 24.2804C32.2298 24.4671 32.2144 24.6553 32.2144 24.8504C32.2144 27.0995 34.2583 28.925 36.7911 28.925C37.6768 28.925 38.5039 28.7034 39.2024 28.3132L44.75 31.5336L44.7486 31.5322Z" fill="#B2C6F7"/>
<path d="M44.3071 36.0834L41.819 37.5285C41.5592 37.679 41.2337 37.4923 41.2337 37.1926L41.2239 33.5793L44.7486 31.5322L44.7598 35.2961C44.7598 35.6208 44.5879 35.9204 44.3071 36.0834Z" fill="black"/>
<path d="M35.4974 36.7398C34.8702 36.7398 34.2429 36.599 33.7539 36.3162L21.7604 29.396C21.2239 29.0867 20.9277 28.6533 20.9277 28.1753C20.9277 27.7001 21.2183 27.2681 21.7492 26.9602L33.6631 20.04C34.6397 19.4742 36.1694 19.4756 37.1487 20.04L49.1423 26.9602C49.6788 27.2695 49.975 27.7029 49.975 28.1809C49.975 28.6561 49.6844 29.088 49.1535 29.396L37.2382 36.3162C36.7506 36.599 36.1233 36.7412 35.4974 36.7412V36.7398ZM35.4052 20.3466C34.9037 20.3466 34.4036 20.4539 34.032 20.6699L22.118 27.59C21.826 27.76 21.6584 27.9718 21.6584 28.1739C21.6584 28.3774 21.8288 28.5934 22.1264 28.7648L34.12 35.6849C34.8702 36.1169 36.1289 36.1169 36.8707 35.6849L48.7861 28.7648C49.0781 28.5947 49.2457 28.3829 49.2443 28.1809C49.2443 27.9774 49.0739 27.7614 48.7763 27.59L36.7827 20.6699C36.4083 20.4539 35.9068 20.3466 35.4038 20.3466H35.4052Z" fill="black"/>
<path d="M35.4554 51.9945C35.4415 51.9945 35.4275 51.9945 35.4121 51.9945C35.211 51.9917 35.0489 51.8287 35.0503 51.6294L35.0936 36.3733C35.0936 36.2758 35.1327 36.1838 35.2026 36.1155C35.2724 36.0472 35.3493 36.0166 35.4638 36.011C36.0101 36.0082 36.5102 35.8981 36.8706 35.6891L48.7846 28.7675C49.0738 28.6003 49.2414 28.3899 49.2428 28.1892V28.1851C49.2428 27.9844 49.4077 27.8214 49.6088 27.8214C49.81 27.8214 49.9735 27.9844 49.9735 28.1865V28.1906L49.9302 43.444C49.9302 43.9108 49.6298 44.3525 49.1087 44.6549L37.1948 51.5751C36.7253 51.8468 36.1093 51.9973 35.454 51.9973L35.4554 51.9945ZM35.8243 36.7259L35.7824 51.2504C36.1805 51.2114 36.5479 51.1054 36.8273 50.9438L48.7413 44.0236C49.0319 43.855 49.1995 43.6432 49.1995 43.4426L49.2386 29.3445C49.2107 29.3626 49.1813 29.3807 49.152 29.3974L37.2381 36.3176C36.8483 36.5447 36.3551 36.6854 35.8243 36.7272V36.7259Z" fill="black"/>
<path d="M35.4164 51.9931H35.4122C34.7737 51.9875 34.1674 51.837 33.7078 51.5723L21.7156 44.6507C21.1847 44.3456 20.8816 43.8996 20.8816 43.4272L20.9291 28.1795C20.9291 27.976 21.0939 27.8144 21.2951 27.8144C21.4963 27.8144 21.6597 27.9774 21.6597 28.1795C21.6597 28.3815 21.8288 28.5948 22.1236 28.7634L34.1171 35.6849C34.4678 35.8884 34.947 36.0026 35.4625 36.0082C35.6637 36.011 35.8257 36.174 35.8243 36.3733L35.781 51.6294C35.781 51.727 35.7419 51.8189 35.672 51.8872C35.6036 51.9541 35.5114 51.9917 35.415 51.9917L35.4164 51.9931ZM21.6569 29.3319L21.6136 43.4286C21.6136 43.6321 21.7841 43.8481 22.083 44.0209L34.0752 50.9424C34.3435 51.0957 34.6815 51.1988 35.0545 51.242L35.0965 36.7189C34.5921 36.6701 34.1255 36.5308 33.7539 36.3162L21.7617 29.396C21.7254 29.3765 21.6919 29.3556 21.6583 29.3333L21.6569 29.3319Z" fill="black"/>
<path d="M41.2252 33.943C41.1624 33.943 41.0981 33.9263 41.0408 33.8929L25.9668 25.1402C25.855 25.0747 25.7852 24.9549 25.7852 24.8253C25.7852 24.6957 25.855 24.5759 25.9668 24.5104L29.4901 22.4633C29.6047 22.3964 29.7444 22.3964 29.8589 22.4633L44.933 31.2159C45.0447 31.2814 45.1146 31.4013 45.1146 31.5309C45.1146 31.6605 45.0447 31.7803 44.933 31.8458L41.4096 33.8929C41.3524 33.9263 41.2895 33.943 41.2252 33.943ZM26.8776 24.8253L41.2252 33.1571L44.0221 31.5323L29.6745 23.2019L26.8776 24.8267V24.8253Z" fill="black"/>
<path d="M41.6234 37.9465C41.4948 37.9465 41.3663 37.9131 41.2476 37.8448C41.0101 37.7096 40.869 37.4658 40.8676 37.1927L40.8578 33.5793C40.8578 33.4483 40.9262 33.3285 41.0394 33.263L44.5641 31.2159C44.6773 31.1504 44.817 31.149 44.9302 31.2159C45.0433 31.28 45.1132 31.4012 45.1132 31.5308L45.1243 35.2947C45.1243 35.7476 44.8827 36.1712 44.4915 36.3984L42.0034 37.8434C41.8846 37.9131 41.7533 37.9465 41.6234 37.9465ZM41.5898 33.7883L41.5996 37.1913L44.1241 35.7685C44.2917 35.6709 44.3951 35.4898 44.3951 35.2961L44.3867 32.1635L41.5912 33.7869L41.5898 33.7883Z" fill="black"/>
</g>
</g>
<defs>
<clipPath id="clip0_131_865">
<rect width="70" height="70" fill="white"/>
</clipPath>
<clipPath id="clip1_131_865">
<rect width="70" height="70" fill="white"/>
</clipPath>
</defs>
</svg>
