<svg width="44" height="44" viewBox="0 0 44 44" fill="none" xmlns="http://www.w3.org/2000/svg">
<path opacity="0.5" d="M5.5 22C5.5 28.9139 5.5 36.0376 7.91637 38.1854C10.3327 40.3333 14.2218 40.3333 22 40.3333C29.7782 40.3333 33.6673 40.3333 36.0836 38.1854C38.5 36.0376 38.5 28.9139 38.5 22" stroke="#D1A77A" stroke-width="1.5"/>
<path d="M26.8772 26.0368L38.2395 22.6281C38.9928 22.4022 39.3694 22.2892 39.6483 22.0651C39.8918 21.8694 40.0813 21.6147 40.1988 21.3252C40.3333 20.9937 40.3333 20.6005 40.3333 19.814C40.3333 16.7205 40.3333 15.1737 39.7288 13.9932C39.2029 12.9661 38.3672 12.1304 37.3401 11.6045C36.1596 11 34.6128 11 31.5193 11H12.4807C9.38713 11 7.84036 11 6.65986 11.6045C5.63273 12.1304 4.79705 12.9661 4.2711 13.9932C3.66663 15.1737 3.66663 16.7205 3.66663 19.814C3.66663 20.6005 3.66663 20.9937 3.80113 21.3252C3.91858 21.6147 4.10807 21.8694 4.35161 22.0651C4.63049 22.2892 5.00713 22.4022 5.7604 22.6281L17.1227 26.0368" stroke="#D1A77A" stroke-width="1.5"/>
<path d="M25.6666 22.917H18.3333C17.827 22.917 17.4166 23.3274 17.4166 23.8337V27.7964C17.4166 28.1712 17.6448 28.5083 17.9929 28.6475L19.2764 29.1609C21.0248 29.8603 22.9751 29.8603 24.7235 29.1609L26.0071 28.6475C26.3551 28.5083 26.5833 28.1712 26.5833 27.7964V23.8337C26.5833 23.3274 26.1729 22.917 25.6666 22.917Z" stroke="#D1A77A" stroke-width="1.5" stroke-linecap="round"/>
<path opacity="0.5" d="M16.8134 7.33366C17.5684 5.19747 19.6057 3.66699 22.0004 3.66699C24.3951 3.66699 26.4324 5.19747 27.1874 7.33366" stroke="#D1A77A" stroke-width="1.5" stroke-linecap="round"/>
</svg>
