<svg width="70" height="70" viewBox="0 0 70 70" fill="none" xmlns="http://www.w3.org/2000/svg">
<g clip-path="url(#clip0_131_907)">
<path d="M68.332 18.0509C70.0641 19.0548 70.0683 20.6857 68.3529 21.6869L44.4691 35.6262C42.7481 36.6302 39.9512 36.6302 38.2191 35.6262L14.1792 21.6882C12.4512 20.6871 12.4373 19.0576 14.1583 18.0523L38.0407 4.11146C39.7575 3.11031 42.5641 3.11031 44.2907 4.11146L68.3306 18.0495L68.332 18.0509Z" fill="#88ADF6"/>
<path d="M68.3528 21.6841L44.4705 35.6235C42.7494 36.6288 39.9498 36.6288 38.2149 35.6235L14.1764 21.6841C12.4484 20.6871 12.4401 19.0534 14.1611 18.0481L27.0875 10.501C27.6979 17.8205 33.6176 23.5523 40.8347 23.5523C48.0518 23.5523 54.1917 17.5998 54.614 10.0919L68.3305 18.0467C70.0669 19.052 70.0669 20.6857 68.3542 21.6827L68.3528 21.6841Z" fill="#869FF2"/>
<path d="M68.3529 21.6841L44.4705 35.6234C43.5912 36.1373 42.4303 36.3844 41.2723 36.3733L41.1859 62.8683C42.3439 62.8795 43.5048 62.6323 44.3841 62.1185L68.2665 48.1791C69.1193 47.6848 69.5485 47.0243 69.5485 46.3723L69.6349 19.8772C69.6349 20.5363 69.2043 21.1884 68.3529 21.6841Z" fill="white"/>
<path d="M69.6349 19.8786L69.5485 46.3737C69.5485 47.0257 69.1179 47.6848 68.2665 48.1805L44.3841 62.1199C43.5089 62.6309 42.3425 62.8823 41.1859 62.8655L41.2403 47.0188C43.0226 47.8747 45.0167 48.3536 47.1126 48.3536C54.8857 48.3536 61.1887 41.8273 61.1887 33.7775C61.1887 31.2725 60.5783 28.9086 59.4997 26.8504L68.3515 21.6827C69.2043 21.1884 69.6335 20.5363 69.6335 19.8758L69.6349 19.8786Z" fill="#B2C6F7"/>
<path d="M38.2149 35.6235L14.1764 21.6841C13.3166 21.1898 12.879 20.5293 12.879 19.8703L12.7856 46.3499C12.7856 47.009 13.2232 47.6778 14.0914 48.1791L38.1298 62.1185C38.9785 62.61 40.0808 62.8571 41.1873 62.8683L41.2737 36.3733C40.1672 36.3621 39.0635 36.115 38.2149 35.6235Z" fill="#BDD1F7"/>
<path d="M41.275 36.3747L41.1844 62.8711C40.0821 62.8585 38.9798 62.6114 38.1298 62.1171L14.0899 48.1805C13.2204 47.6806 12.787 47.0104 12.787 46.3541L12.8776 19.8716C12.8776 20.5279 13.3179 21.1912 14.1749 21.6855L19.4857 24.7671C18.7527 26.2486 18.3444 27.927 18.3444 29.6947C18.3444 35.8566 23.3249 40.8554 29.4732 40.8554C33.3388 40.8554 36.7432 38.8797 38.7402 35.8832C39.4927 36.2015 40.3804 36.3649 41.2764 36.3775L41.275 36.3747Z" fill="#ACBDEA"/>
<path d="M59.8912 26.6242L52.8302 30.7475L22.6128 13.1163L29.6752 8.99297L59.8912 26.6242Z" fill="white"/>
<path d="M59.8913 26.6242L52.8303 30.7475L22.6143 13.1177L29.6753 8.99437L34.8523 12.0174C34.7979 12.3944 34.7659 12.7714 34.7659 13.1638C34.7659 17.6948 38.8643 21.3699 43.9381 21.3699C45.7135 21.3699 47.3718 20.9217 48.7709 20.1369L59.8913 26.6242Z" fill="#B2C6F7"/>
<path d="M59.0064 35.7924L54.0204 38.7023C53.5006 39.0053 52.847 38.6297 52.8456 38.0251L52.8247 30.7475L59.8913 26.6242L59.9122 34.2062C59.9136 34.8597 59.568 35.4643 59.0064 35.7924Z" fill="black"/>
<path d="M41.3475 36.7503C40.1574 36.7503 38.9659 36.4808 38.0351 35.9404L13.9938 22.0024C13.0365 21.4481 12.5097 20.6885 12.5083 19.8633C12.5069 19.0422 13.0281 18.2868 13.9729 17.7353L37.8567 3.7959C39.6766 2.7347 42.6449 2.7347 44.4732 3.7959L68.5144 17.7339C69.4718 18.2882 69.9985 19.0478 69.9999 19.873C69.9999 20.6941 69.4802 21.4495 68.5353 22.001L44.6502 35.939C43.7249 36.4794 42.5362 36.7489 41.3447 36.7489L41.3475 36.7503ZM41.1635 3.7191C40.0975 3.7191 39.0342 3.95508 38.226 4.42703L14.3408 18.3664C13.6287 18.7811 13.2371 19.3131 13.2385 19.8619C13.2385 20.4162 13.6371 20.9524 14.3589 21.3699L38.4002 35.3079C40.0292 36.2518 42.6686 36.2518 44.2851 35.3079L68.1702 21.3699C68.8809 20.9552 69.2739 20.4232 69.2725 19.8744C69.2725 19.3201 68.8726 18.7853 68.1507 18.3664L44.1095 4.42703C43.2956 3.95508 42.2282 3.7191 41.1635 3.7191Z" fill="black"/>
<path d="M41.2638 63.2356C41.236 63.2356 41.2095 63.2356 41.1816 63.2356C40.9809 63.2328 40.8193 63.0694 40.8207 62.8697L40.9071 36.3733C40.9071 36.2755 40.9461 36.1834 41.0158 36.115C41.0855 36.0465 41.2067 36.0242 41.2764 36.0102C42.4093 36.0144 43.4949 35.7729 44.2864 35.3107L68.1688 21.3713C68.8753 20.9608 69.2669 20.4344 69.2697 19.887V19.8828V19.88C69.2697 19.679 69.4341 19.5156 69.6348 19.5156C69.8355 19.5156 69.9985 19.679 69.9985 19.8814V19.8926L69.9121 46.3779C69.9121 47.1849 69.3784 47.9585 68.4475 48.4989L44.5651 62.4383C43.6802 62.9549 42.5097 63.2383 41.2624 63.2383L41.2638 63.2356ZM41.6345 36.7349L41.5509 62.4997C42.5612 62.4606 43.4907 62.219 44.1986 61.8043L68.081 47.8649C68.7819 47.4586 69.1833 46.9154 69.1833 46.3751L69.2641 21.4593C69.0607 21.6561 68.8168 21.8377 68.5339 22.0024L44.6515 35.9418C43.8335 36.4194 42.7744 36.6972 41.6331 36.7363L41.6345 36.7349Z" fill="black"/>
<path d="M41.1858 63.2341H41.1817C39.9623 63.2216 38.8126 62.9381 37.9459 62.4355L13.906 48.4961C12.9598 47.9487 12.4177 47.1668 12.4177 46.3499L12.5111 19.8689C12.5111 19.6678 12.6755 19.5044 12.8762 19.5044C13.0769 19.5044 13.2399 19.6678 13.2399 19.8703C13.2399 20.4148 13.6468 20.9594 14.3547 21.3671L38.3946 35.3065C39.1555 35.7477 40.1783 35.9963 41.2736 36.0074C41.4743 36.0102 41.636 36.1736 41.6346 36.3733L41.5482 62.8697C41.5482 62.9675 41.5091 63.0596 41.4395 63.128C41.3712 63.195 41.2792 63.2327 41.1831 63.2327L41.1858 63.2341ZM13.2357 21.4341L13.1479 46.3513C13.1479 46.8987 13.5576 47.4502 14.2711 47.8635L38.3096 61.8029C38.9841 62.1939 39.8662 62.4341 40.8221 62.4913L40.9057 36.7265C39.823 36.6679 38.8127 36.3928 38.0323 35.9404L13.9924 22.001C13.6998 21.8335 13.4462 21.6422 13.2357 21.4341Z" fill="black"/>
<path d="M52.8302 31.112C52.7675 31.112 52.7034 31.0952 52.6463 31.0617L22.4303 13.4305C22.3188 13.3648 22.2491 13.2447 22.2491 13.1149C22.2491 12.985 22.3188 12.8649 22.4303 12.7993L29.4913 8.6774C29.6056 8.61038 29.745 8.61038 29.8592 8.6774L60.0766 26.3072C60.1881 26.3729 60.2578 26.493 60.2578 26.6228C60.2578 26.7527 60.1881 26.8728 60.0766 26.9384L53.0156 31.0617C52.9585 31.0952 52.8957 31.112 52.8316 31.112H52.8302ZM23.3375 13.1163L52.8302 30.3244L59.168 26.6242L29.6753 9.41605L23.3389 13.1163H23.3375Z" fill="black"/>
<path d="M53.6273 39.1743C53.4322 39.1743 53.2357 39.1226 53.0574 39.0207C52.6978 38.814 52.4818 38.4412 52.4818 38.0251L52.4609 30.7475C52.4609 30.6163 52.5292 30.4962 52.6421 30.4306L59.7087 26.3073C59.8216 26.2416 59.9609 26.2402 60.0738 26.3073C60.1867 26.3715 60.2564 26.493 60.2564 26.6228L60.2773 34.2048C60.2787 34.9867 59.862 35.7156 59.1903 36.108L54.2042 39.0179C54.0245 39.1226 53.8252 39.1757 53.6273 39.1757V39.1743ZM53.1912 30.957L53.2107 38.0237C53.2107 38.2429 53.357 38.3504 53.4211 38.3868C53.4838 38.4231 53.6496 38.4943 53.8364 38.3854L58.8224 35.4754C59.2711 35.2143 59.5498 34.727 59.5485 34.2062L59.5289 27.2581L53.1898 30.957H53.1912Z" fill="black"/>
<path d="M22.6867 53.2366C22.6797 54.4723 22.2505 55.3478 21.544 55.7527L18.7736 57.3738C19.4732 56.9619 19.9093 56.0934 19.9093 54.8507C19.9163 52.3597 18.1758 49.3297 16.0061 48.0744C14.9219 47.4433 13.9325 47.386 13.226 47.7979L15.9963 46.1838C16.7084 45.7719 17.6978 45.8305 18.7834 46.4602C20.9475 47.7086 22.6936 50.7399 22.6867 53.2366Z" fill="black"/>
<path d="M18.7722 57.7396C18.6482 57.7396 18.5256 57.6754 18.4573 57.5581C18.3556 57.385 18.4141 57.1602 18.5883 57.0582C19.2042 56.6952 19.5443 55.9105 19.5443 54.8507C19.5512 52.4783 17.8804 49.581 15.8221 48.3913C14.9038 47.8579 14.0259 47.756 13.4099 48.1121H13.4071C13.2329 48.214 13.01 48.1554 12.9082 47.9808C12.8065 47.8063 12.8664 47.5829 13.0406 47.4809C13.042 47.4809 13.0434 47.4795 13.0448 47.4781L15.8124 45.8668C16.6791 45.3669 17.7982 45.4661 18.9645 46.1433C21.2235 47.4474 23.0574 50.6296 23.0504 53.2365C23.0434 54.5756 22.5724 55.5809 21.7251 56.0683L18.9562 57.688C18.899 57.7215 18.8349 57.7382 18.7722 57.7382V57.7396ZM14.8996 47.245C15.3177 47.3343 15.7524 47.5061 16.1872 47.7588C18.4461 49.0644 20.28 52.2466 20.2731 54.8521C20.2731 55.3422 20.2104 55.789 20.0863 56.1814L21.36 55.4371C21.9746 55.0839 22.316 54.3033 22.3216 53.2351C22.3285 50.8614 20.6591 47.9641 18.6008 46.7772C17.6672 46.2354 16.806 46.1377 16.1789 46.5007L14.901 47.245H14.8996Z" fill="black"/>
<path d="M16.0075 48.0744C18.1731 49.3268 19.9192 52.3582 19.9122 54.8521C19.9052 57.3459 18.148 58.3498 15.9824 57.0973C13.8211 55.8462 12.075 52.8162 12.0819 50.321C12.0889 47.8272 13.8461 46.8233 16.0075 48.0744Z" fill="white"/>
<path d="M17.7425 58.0035C17.1391 58.0035 16.4771 57.8053 15.7999 57.4129C13.541 56.1059 11.7098 52.9238 11.7168 50.3196C11.721 48.9806 12.1934 47.9724 13.049 47.4795C13.9075 46.9852 15.0223 47.083 16.1901 47.7574C18.4504 49.0657 20.2843 52.2479 20.2773 54.8535C20.2731 56.1911 19.8007 57.1993 18.9465 57.6922C18.5855 57.9002 18.18 58.0035 17.7439 58.0035H17.7425ZM14.253 47.8998C13.9437 47.8998 13.6594 47.971 13.4127 48.1135C12.7912 48.4709 12.4484 49.2556 12.4456 50.3224C12.4387 52.6934 14.1067 55.5907 16.1636 56.7804C17.0973 57.3207 17.9557 57.4199 18.5814 57.0596C19.2015 56.7022 19.5443 55.9174 19.5471 54.8507C19.5541 52.4797 17.8846 49.581 15.825 48.3899C15.262 48.0646 14.7268 47.8984 14.253 47.8984V47.8998Z" fill="black"/>
<path d="M16.0006 50.9089C16.8061 51.3752 17.4554 52.5021 17.4527 53.4292C17.4499 54.3564 16.7963 54.7292 15.9908 54.2642C15.1868 53.7993 14.5374 52.6724 14.5402 51.7453C14.543 50.8181 15.1965 50.4453 16.0006 50.9103V50.9089Z" fill="black"/>
<path d="M38.1996 62.233C38.1926 63.4687 37.7634 64.3442 37.0569 64.7491L34.2866 66.3703C34.9861 65.9583 35.4223 65.0898 35.4223 63.8471C35.4292 61.3561 33.6887 58.3261 31.519 57.0708C30.4348 56.4397 29.4454 56.3824 28.7389 56.7943L31.5092 55.1802C32.2213 54.7683 33.2107 54.8269 34.2963 55.4567C36.4605 56.705 38.2066 59.7364 38.1996 62.233Z" fill="black"/>
<path d="M34.2865 66.7347C34.1625 66.7347 34.0399 66.6705 33.9716 66.5546C33.8699 66.38 33.9284 66.1566 34.1026 66.0547C34.7185 65.6916 35.0585 64.9083 35.0585 63.8471C35.0655 61.4748 33.3947 58.5774 31.3364 57.3878C30.4181 56.8544 29.5415 56.7511 28.927 57.1071L28.9214 57.1099C28.7472 57.2104 28.5243 57.1532 28.4225 56.9773C28.3208 56.8027 28.3807 56.5793 28.5549 56.4774C28.5563 56.4774 28.5577 56.4774 28.5577 56.476L31.3267 54.8632C32.192 54.362 33.3124 54.4611 34.4788 55.1397C36.7377 56.4439 38.5702 59.6261 38.5647 62.233C38.5577 63.5734 38.0867 64.5788 37.238 65.0647L34.4719 66.683C34.4147 66.7179 34.3506 66.7333 34.2879 66.7333L34.2865 66.7347ZM30.4139 56.2414C30.8319 56.3308 31.2667 56.5025 31.7015 56.7552C33.9604 58.0608 35.7943 61.243 35.7874 63.8485C35.7874 64.3386 35.7246 64.7854 35.6006 65.1778L36.8729 64.435C37.4875 64.0817 37.8289 63.2998 37.8345 62.233C37.8414 59.8592 36.1706 56.9619 34.1137 55.775C33.1814 55.2319 32.3216 55.1341 31.6918 55.4986L30.4139 56.2428V56.2414Z" fill="black"/>
<path d="M31.5203 57.0708C33.6859 58.3233 35.432 61.3547 35.425 63.8485C35.418 66.3423 33.6608 67.3463 31.4952 66.0938C29.3339 64.8427 27.5878 61.8127 27.5947 59.3175C27.6017 56.8237 29.359 55.8197 31.5203 57.0708Z" fill="white"/>
<path d="M33.2553 67C32.6519 67 31.9899 66.8017 31.3127 66.4094C29.0538 65.1024 27.2227 61.9202 27.2296 59.3161C27.2338 57.9784 27.7062 56.9689 28.5619 56.476C29.4203 55.9803 30.5365 56.0794 31.7029 56.7539C33.9632 58.0622 35.7971 61.2458 35.7901 63.8499C35.7859 65.1876 35.3135 66.1957 34.4579 66.6886C34.097 66.8967 33.6915 67 33.2553 67ZM29.7659 56.8963C29.4565 56.8963 29.1722 56.9675 28.9256 57.1099C28.3041 57.4674 27.9612 58.2521 27.9585 59.3189C27.9515 61.6898 29.6195 64.5872 31.6764 65.7782C32.6101 66.3172 33.4685 66.4177 34.0928 66.0561C34.7129 65.6986 35.0557 64.9139 35.0585 63.8485C35.0655 61.4776 33.396 58.5788 31.3364 57.3878C30.7734 57.0625 30.2383 56.8977 29.7645 56.8977L29.7659 56.8963Z" fill="black"/>
<path d="M31.5134 59.9053C32.3189 60.3717 32.9683 61.4985 32.9655 62.4257C32.9627 63.3528 32.3091 63.7256 31.5037 63.2607C30.6996 62.7957 30.0502 61.6689 30.053 60.7417C30.0558 59.8146 30.7093 59.4417 31.5134 59.9067V59.9053Z" fill="black"/>
<path d="M15.9351 13.517C15.8724 13.517 15.8097 13.5017 15.7525 13.4682L8.04349 8.99856C7.8693 8.89802 7.80938 8.67461 7.90971 8.50007C8.01144 8.32414 8.2358 8.26549 8.4072 8.36742L16.1162 12.837C16.2904 12.9376 16.3503 13.161 16.25 13.3355C16.1817 13.4528 16.0605 13.5184 15.9351 13.5184V13.517Z" fill="black"/>
<path d="M8.07411 23.6012C8.0114 23.6012 7.9487 23.5858 7.89156 23.5523L0.18253 19.0813C0.00833847 18.9808 -0.0515835 18.7574 0.048751 18.5829C0.150479 18.4069 0.374838 18.3483 0.546243 18.4502L8.25527 22.9198C8.42946 23.0203 8.48939 23.2437 8.38905 23.4183C8.32077 23.5356 8.19953 23.6012 8.07411 23.6012Z" fill="black"/>
<path d="M8.87958 15.7525C8.81687 15.7525 8.75417 15.7372 8.69703 15.7037L0.986607 11.2327C0.812416 11.1321 0.752494 10.9087 0.852828 10.7342C0.954556 10.5582 1.18031 10.501 1.35032 10.6015L9.05935 15.0711C9.23354 15.1717 9.29346 15.3951 9.19313 15.5696C9.12485 15.6869 9.00361 15.7525 8.87819 15.7525H8.87958Z" fill="black"/>
</g>
<defs>
<clipPath id="clip0_131_907">
<rect width="70" height="64" fill="white" transform="translate(0 3)"/>
</clipPath>
</defs>
</svg>
