<svg width="44" height="44" viewBox="0 0 44 44" fill="none" xmlns="http://www.w3.org/2000/svg">
<path opacity="0.5" d="M20.4342 12.8746C21.1309 11.6249 21.4792 11 22 11C22.5208 11 22.8691 11.6249 23.5658 12.8746L23.746 13.1979C23.944 13.5531 24.0429 13.7306 24.1973 13.8478C24.3516 13.965 24.5438 14.0084 24.9283 14.0954L25.2783 14.1746C26.6311 14.4807 27.3075 14.6338 27.4684 15.1513C27.6293 15.6688 27.1682 16.208 26.2459 17.2865L26.0073 17.5655C25.7453 17.8719 25.6142 18.0252 25.5553 18.2147C25.4963 18.4043 25.5161 18.6088 25.5558 19.0177L25.5918 19.3899C25.7313 20.8288 25.801 21.5483 25.3797 21.8681C24.9584 22.188 24.325 21.8964 23.0584 21.3131L22.7307 21.1623C22.3707 20.9965 22.1908 20.9137 22 20.9137C21.8092 20.9137 21.6293 20.9965 21.2693 21.1623L20.9416 21.3131C19.675 21.8963 19.0416 22.188 18.6203 21.8681C18.199 21.5483 18.2687 20.8288 18.4082 19.3899L18.4442 19.0177C18.4839 18.6088 18.5037 18.4043 18.4447 18.2147C18.3858 18.0252 18.2547 17.8719 17.9927 17.5655L17.7541 17.2865C16.8318 16.208 16.3707 15.6688 16.5316 15.1513C16.6925 14.6338 17.3689 14.4807 18.7217 14.1746L19.0717 14.0954C19.4562 14.0084 19.6484 13.965 19.8027 13.8478C19.9571 13.7306 20.056 13.5531 20.254 13.1979L20.4342 12.8746Z" stroke="#D1A77A" stroke-width="1.5"/>
<path d="M34.8334 16.5003C34.8334 23.588 29.0877 29.3337 22.0001 29.3337C14.9124 29.3337 9.16675 23.588 9.16675 16.5003C9.16675 9.41267 14.9124 3.66699 22.0001 3.66699C29.0877 3.66699 34.8334 9.41267 34.8334 16.5003Z" stroke="#D1A77A" stroke-width="1.5"/>
<path opacity="0.5" d="M22.0001 29.4577L15.0857 36.6168C14.0955 37.6421 13.6004 38.1547 13.1811 38.3321C12.2257 38.7364 11.1659 38.3904 10.6633 37.5103C10.4427 37.124 10.374 36.4274 10.2365 35.034C10.1589 34.2473 10.1201 33.854 10.0023 33.5245C9.73858 32.7869 9.18445 32.2132 8.47211 31.9401C8.15391 31.8182 7.77401 31.778 7.01421 31.6976C5.66851 31.5553 4.99565 31.4841 4.62261 31.2558C3.77256 30.7354 3.43845 29.638 3.82887 28.6487C4.0002 28.2146 4.4953 27.702 5.48552 26.6767L10.0023 22" stroke="#D1A77A" stroke-width="1.5"/>
<path opacity="0.5" d="M21.9999 29.4577L28.9143 36.6168C29.9045 37.6421 30.3996 38.1547 30.8189 38.3321C31.7743 38.7364 32.8341 38.3904 33.3367 37.5103C33.5573 37.124 33.626 36.4274 33.7635 35.034C33.8411 34.2473 33.8799 33.854 33.9977 33.5245C34.2614 32.7869 34.8155 32.2132 35.5279 31.9401C35.8461 31.8182 36.226 31.778 36.9858 31.6976C38.3315 31.5553 39.0043 31.4841 39.3774 31.2558C40.2274 30.7354 40.5615 29.638 40.1711 28.6487C39.9998 28.2146 39.5047 27.702 38.5145 26.6767L33.9977 22" stroke="#D1A77A" stroke-width="1.5"/>
</svg>
