<svg width="70" height="70" viewBox="0 0 70 70" fill="none" xmlns="http://www.w3.org/2000/svg">
<g clip-path="url(#clip0_131_949)">
<path d="M38.5782 63.6204L35.9717 62.1112L58.518 49.1458L61.1245 50.6536L38.5782 63.6204Z" fill="black"/>
<path d="M38.5782 63.9841C38.5153 63.9841 38.4509 63.9674 38.395 63.9353L35.7884 62.4261C35.6751 62.3606 35.6066 62.2408 35.6066 62.1098C35.6066 61.9788 35.6765 61.8604 35.7899 61.7949L58.3362 48.828C58.4509 48.7625 58.5908 48.7625 58.7028 48.828L61.3093 50.3372C61.4226 50.4027 61.4911 50.5226 61.4911 50.6535C61.4911 50.7845 61.4212 50.903 61.3079 50.9685L38.7615 63.9353C38.7056 63.9688 38.6412 63.9841 38.5782 63.9841ZM36.7021 62.1126L38.5782 63.1981L60.3943 50.6522L58.5181 49.5666L36.7021 62.1126Z" fill="black"/>
<path d="M61.1246 50.6536L58.5181 49.1458L58.4453 23.3389L61.0504 24.8467L61.1246 50.6536Z" fill="white"/>
<path d="M61.1246 51.0187C61.0616 51.0187 60.9972 51.0019 60.9413 50.9699L58.3348 49.4607C58.2214 49.3952 58.1529 49.2754 58.1529 49.1458L58.0787 23.3389C58.0787 23.2079 58.1487 23.0881 58.262 23.0226C58.3753 22.9571 58.5166 22.9571 58.6286 23.0226L61.2351 24.5318C61.3484 24.5973 61.417 24.7171 61.417 24.8467L61.4897 50.6536C61.4897 50.7846 61.4198 50.9044 61.3064 50.9699C61.2505 51.0033 61.1861 51.0187 61.1232 51.0187H61.1246ZM58.8846 48.9353L60.7566 50.0195L60.6866 25.0571L58.8133 23.973L58.8846 48.9353Z" fill="black"/>
<path d="M64.5355 19.7143H64.5411L64.5466 17.3551L35.0077 34.4523L35.0021 35.811L34.9965 35.8166L35.0944 69.6349L64.6334 52.6421L64.5355 19.7129V19.7143ZM38.5781 63.619L38.504 37.8108L61.0545 24.8453L61.1231 50.6536L38.5795 63.619H38.5781Z" fill="#88ADF6"/>
<path d="M35.0958 70C35.0329 70 34.9699 69.9833 34.914 69.9512C34.8006 69.8857 34.7307 69.7659 34.7307 69.6363L34.6313 35.818C34.6313 35.7943 34.6341 35.7706 34.6383 35.7469L34.6453 34.4509C34.6453 34.3213 34.7153 34.2029 34.8272 34.1374L64.3662 17.0415C64.4781 16.976 64.6195 16.976 64.7328 17.0415C64.8461 17.107 64.9161 17.2269 64.9161 17.3579L64.9091 19.7157C64.9091 19.7366 64.9063 19.7589 64.9035 19.7784L65.0028 52.6421C65.0028 52.7731 64.9329 52.8944 64.8195 52.9585L35.2805 69.9512C35.2246 69.9847 35.1602 70 35.0972 70H35.0958ZM35.3631 35.8765L35.4596 69.005L64.2683 52.4331L64.1703 19.7157C64.1703 19.6934 64.1731 19.6711 64.1759 19.6488L64.1815 17.9905L35.3757 34.6628L35.3701 35.8124C35.3701 35.8347 35.3673 35.857 35.3631 35.8779V35.8765ZM38.5782 63.9827C38.5152 63.9827 38.4523 63.966 38.3963 63.9339C38.283 63.8684 38.213 63.7486 38.213 63.619L38.1389 37.8121C38.1389 37.6812 38.2088 37.5613 38.3221 37.4958L60.8727 24.5304C60.986 24.4649 61.1245 24.4649 61.2379 24.5304C61.3512 24.5959 61.4211 24.7157 61.4211 24.8453L61.4897 50.6536C61.4897 50.7846 61.4197 50.9044 61.3064 50.9699L38.7629 63.9353C38.7069 63.9688 38.6425 63.9841 38.5796 63.9841L38.5782 63.9827ZM38.8706 38.0212L38.9419 62.9877L60.7552 50.4431L60.6894 25.4752L38.8706 38.0212Z" fill="black"/>
<path d="M58.518 49.1458L38.5684 60.6173L38.504 37.8121L58.4537 26.342L58.518 49.1458Z" fill="#BDD1F7"/>
<path d="M58.5195 49.1485L38.5726 60.6159L38.5363 48.0602C38.609 48.0672 38.6818 48.0672 38.7545 48.0672C44.1396 48.0672 48.5132 43.711 48.5132 38.3459C48.5132 36.3671 47.9172 34.5262 46.8902 32.9891L58.4537 26.342L58.5195 49.1471V49.1485Z" fill="#ACBDEA"/>
<path d="M38.5698 60.9824C38.5069 60.9824 38.4439 60.9657 38.388 60.9337C38.2746 60.8682 38.2047 60.7483 38.2047 60.6187L38.1389 37.8135C38.1389 37.6825 38.2089 37.5627 38.3222 37.4972L58.2718 26.027C58.3852 25.9615 58.5237 25.9615 58.637 26.027C58.7503 26.0925 58.8203 26.2124 58.8203 26.342L58.8846 49.1444C58.8846 49.2754 58.8147 49.3952 58.7013 49.4607L38.7517 60.9337C38.6958 60.9671 38.6314 60.9824 38.5684 60.9824H38.5698ZM38.8706 38.0226L38.9336 59.9874L58.1515 48.9339L58.0899 26.9718L38.8706 38.0226Z" fill="black"/>
<path d="M31.4205 63.6204L34.0256 62.1112L11.4793 49.1458L8.87415 50.6536L31.4205 63.6204Z" fill="white"/>
<path d="M31.4205 63.9841C31.3575 63.9841 31.2946 63.9674 31.2372 63.9353L8.69085 50.9699C8.57752 50.9044 8.50757 50.7846 8.50757 50.655C8.50757 50.5254 8.57752 50.4041 8.68945 50.3386L11.296 48.8308C11.4079 48.7653 11.5492 48.7639 11.6625 48.8308L34.2089 61.7977C34.3222 61.8632 34.3921 61.983 34.3921 62.1126C34.3921 62.2422 34.3222 62.3634 34.2103 62.4289L31.6038 63.9367C31.5478 63.9702 31.4834 63.9855 31.4205 63.9855V63.9841ZM9.60446 50.6522L31.4191 63.1982L33.2953 62.1126L11.4806 49.5666L9.60446 50.6522Z" fill="black"/>
<path d="M8.87415 50.6536L11.4793 49.1458L11.5534 23.3389L8.9469 24.8481L8.87415 50.6536Z" fill="black"/>
<path d="M8.87413 51.0187C8.81117 51.0187 8.74821 51.002 8.69085 50.9699C8.57752 50.9044 8.50757 50.7846 8.50757 50.6536L8.58172 24.8467C8.58172 24.7171 8.65167 24.5973 8.7636 24.5318L11.3701 23.024C11.482 22.9585 11.6233 22.9571 11.7367 23.024C11.85 23.0895 11.92 23.2093 11.92 23.3403L11.8458 49.1472C11.8458 49.2768 11.7758 49.3966 11.6639 49.4621L9.05741 50.9699C9.00145 51.0034 8.93709 51.0187 8.87413 51.0187ZM9.31344 25.0571L9.24209 50.0195L11.1141 48.9354L11.1854 23.973L9.31344 25.0571Z" fill="black"/>
<path d="M34.9965 36.8116H35.0021L35.0077 34.4524L5.46451 17.4666L5.45892 19.4733V19.8244L5.36658 52.6422L35.0959 69.6349L34.9979 36.8102L34.9965 36.8116ZM31.4218 63.6204L8.8727 50.655L8.94685 24.8467L31.4974 37.8122L31.4232 63.6204H31.4218Z" fill="#645568"/>
<path d="M35.0959 70C35.0329 70 34.9699 69.9833 34.914 69.9512L5.1833 52.9599C5.06997 52.8958 4.99862 52.7731 5.00002 52.6435L5.09796 17.4666C5.09796 17.3356 5.16791 17.2157 5.28124 17.1516C5.39456 17.0875 5.53307 17.0875 5.6464 17.1516L35.1924 34.1374C35.3057 34.2029 35.3757 34.3228 35.3757 34.4537L35.3687 36.813C35.3687 36.8353 35.3659 36.8576 35.3617 36.8799L35.461 69.6349C35.461 69.7659 35.3911 69.8857 35.2791 69.9512C35.2232 69.9847 35.1588 70 35.0959 70ZM5.73314 52.4331L34.7279 69.005L34.6314 36.813C34.6314 36.7893 34.6342 36.7656 34.6384 36.7419L34.644 34.6614L5.82828 18.0964L5.73314 52.4317V52.4331ZM31.4232 63.9841C31.3603 63.9841 31.2973 63.9674 31.24 63.9353L8.68942 50.9699C8.5761 50.9044 8.50614 50.7846 8.50614 50.6536L8.58029 24.8453C8.58029 24.7143 8.65025 24.5945 8.76357 24.5304C8.8769 24.4663 9.01541 24.4649 9.12874 24.5304L31.6793 37.4958C31.7926 37.5599 31.8626 37.6812 31.8626 37.8122L31.7884 63.619C31.7884 63.75 31.7185 63.8699 31.6051 63.934C31.5492 63.966 31.4862 63.9827 31.4232 63.9827V63.9841ZM9.23926 50.4445L31.0581 62.9891L31.1294 38.0226L9.31062 25.4766L9.23926 50.4445Z" fill="black"/>
<path d="M57.3862 17.4638L57.3779 20.4668L35.0204 7.38992L35.0288 4.38824L57.3862 17.4638Z" fill="black"/>
<path d="M57.3778 20.8305C57.3134 20.8305 57.2505 20.8138 57.1931 20.7804L34.8357 7.70485C34.7237 7.63796 34.6538 7.51951 34.6552 7.38991L34.6636 4.38685C34.6636 4.25586 34.7349 4.13601 34.8482 4.07052C34.963 4.00502 35.1015 4.00781 35.2148 4.0733L57.5723 17.1488C57.6842 17.2157 57.7528 17.3342 57.7528 17.4638L57.7444 20.4668C57.7444 20.5978 57.673 20.7177 57.5597 20.7832C57.5037 20.8152 57.4408 20.8305 57.3778 20.8305ZM35.3869 7.18228L57.0126 19.8314L57.0182 17.6728L35.3925 5.02369L35.3869 7.18228Z" fill="black"/>
<path d="M35.0287 4.38824L35.0203 7.38992L12.432 20.4668L12.4404 17.4638L35.0287 4.38824Z" fill="white"/>
<path d="M12.432 20.8305C12.369 20.8305 12.3061 20.8138 12.2487 20.7818C12.1354 20.7163 12.0654 20.5964 12.0654 20.4654L12.0738 17.4624C12.0738 17.3328 12.1438 17.2129 12.2557 17.1474L34.8454 4.07191C34.9574 4.00641 35.0987 4.00502 35.212 4.07191C35.3253 4.1374 35.3953 4.25725 35.3953 4.38824L35.3869 7.39131C35.3869 7.52091 35.3169 7.64075 35.205 7.70625L12.6153 20.7818C12.5593 20.8138 12.495 20.8305 12.432 20.8305ZM12.8055 17.6728L12.8 19.8314L34.6551 7.18088L34.6607 5.0223L12.8055 17.6742V17.6728Z" fill="black"/>
<path d="M35.0063 0.365112L64.5481 17.3551L35.0091 34.4551L5.46729 17.4638L35.0063 0.365112ZM34.9867 30.4306L57.3861 17.4638L35.0287 4.38824L12.4404 17.4638L34.9867 30.4306Z" fill="white"/>
<path d="M35.0091 34.8188C34.9461 34.8188 34.8831 34.8021 34.8258 34.7701L5.28399 17.7787C5.17066 17.7132 5.10071 17.5934 5.10071 17.4638C5.10071 17.3342 5.17066 17.2129 5.28259 17.1474L34.8216 0.0487763C34.9335 -0.0167198 35.0748 -0.0181134 35.1881 0.0487763L64.7313 17.0387C64.8447 17.1042 64.9146 17.2241 64.9146 17.3537C64.9146 17.4833 64.8447 17.6045 64.7327 17.67L35.1923 34.7701C35.1364 34.8021 35.072 34.8188 35.0091 34.8188ZM6.1962 17.4638L35.0077 34.0329L63.8177 17.3551L35.0063 0.785956L6.1962 17.4638ZM34.9867 30.7957C34.9237 30.7957 34.8608 30.779 34.8034 30.7469L12.2571 17.7787C12.1437 17.7132 12.0738 17.5934 12.0738 17.4638C12.0738 17.3342 12.1437 17.2129 12.2557 17.1474L34.8454 4.07191C34.9587 4.00502 35.1 4.00502 35.2147 4.07191L57.5722 17.1474C57.6841 17.2143 57.7527 17.3328 57.7527 17.4624C57.7527 17.592 57.6827 17.7118 57.5708 17.7773L35.1714 30.7442C35.1154 30.7776 35.051 30.7929 34.9881 30.7929L34.9867 30.7957ZM13.1707 17.4638L34.9867 30.0098L56.6614 17.4624L35.0287 4.81048L13.1707 17.4638Z" fill="black"/>
<path d="M54.8077 18.9562L34.9867 30.4306L15.0371 18.9576L35.0203 7.38991L54.8077 18.9562Z" fill="#BDD1F7"/>
<path d="M54.8091 18.9562L34.9853 30.432L15.0371 18.9562L25.2183 13.063C26.9574 15.7093 30.0647 17.4707 33.6086 17.4707C37.6618 17.4707 41.1483 15.1658 42.6691 11.8673L54.8077 18.9576L54.8091 18.9562Z" fill="#ACBDEA"/>
<path d="M34.9867 30.7957C34.9238 30.7957 34.8608 30.779 34.8034 30.7469L14.8538 19.274C14.7405 19.2085 14.6705 19.0886 14.6705 18.959C14.6705 18.8294 14.7405 18.7082 14.8524 18.6427L34.837 7.07498C34.9503 7.00809 35.0917 7.00809 35.2064 7.07498L54.9937 18.6399C55.1056 18.7068 55.1742 18.8253 55.1742 18.9549C55.1742 19.0845 55.1043 19.2043 54.9923 19.2698L35.1714 30.7442C35.1154 30.7776 35.0511 30.7929 34.9881 30.7929L34.9867 30.7957ZM15.7674 18.9576L34.9853 30.0098L54.0815 18.9549L35.0189 7.81355L15.7674 18.9576Z" fill="black"/>
<path d="M11.4792 49.1458L31.4317 60.6201L31.4876 37.7926L11.538 26.3225L11.4792 49.1458Z" fill="#BDD1F7"/>
<path d="M31.4624 47.3356L31.433 60.6159L11.4778 49.1486L11.5365 26.3211L18.9671 30.5978C16.8489 32.5404 15.51 35.3818 15.51 38.5424C15.51 44.3994 20.0948 49.1472 25.7415 49.1472C27.8597 49.1472 29.8311 48.4797 31.461 47.3356H31.4624Z" fill="#ACBDEA"/>
<path d="M31.4317 60.9838C31.3687 60.9838 31.3057 60.9671 31.2484 60.9351L11.296 49.4607C11.1826 49.3952 11.1127 49.2754 11.1127 49.1444L11.1714 26.3211C11.1714 26.1901 11.2414 26.0702 11.3547 26.0061C11.468 25.942 11.6065 25.9406 11.7199 26.0061L31.6695 37.4763C31.7828 37.5418 31.8528 37.6617 31.8528 37.7926L31.7968 60.6187C31.7968 60.7497 31.7269 60.8696 31.6135 60.9337C31.5576 60.9657 31.4946 60.9824 31.4317 60.9824V60.9838ZM11.8458 48.9353L31.0665 59.9889L31.1211 38.0031L11.9032 26.9523L11.8472 48.9353H11.8458Z" fill="black"/>
</g>
<defs>
<clipPath id="clip0_131_949">
<rect width="60" height="70" fill="white" transform="translate(5)"/>
</clipPath>
</defs>
</svg>
