<svg width="70" height="70" viewBox="0 0 70 70" fill="none" xmlns="http://www.w3.org/2000/svg">
<g clip-path="url(#clip0_131_781)">
<path d="M42.2735 3.73862C44.1481 2.65312 45.6728 3.52403 45.6783 5.68666L45.7894 47.8971C45.795 50.0583 44.2814 52.6919 42.4068 53.7788L15.8594 69.1653C13.9806 70.2536 12.4559 69.3813 12.4503 67.2201L12.3392 25.0096C12.3337 22.8484 13.8473 20.2148 15.7261 19.1251L42.2735 3.73862Z" fill="#BDD1F7"/>
<path d="M45.7867 47.8999C45.7936 50.0569 44.2828 52.6933 42.404 53.7788L15.8608 69.1681C13.9834 70.2536 12.4587 69.3841 12.4518 67.2201L12.3823 42.3274C13.228 42.4738 14.1014 42.5504 14.9957 42.5504C23.3815 42.5504 30.1801 32.9788 30.1801 24.9163C30.1801 20.4781 28.1222 16.5054 24.8784 13.8272L42.2721 3.73722C44.1495 2.65172 45.6742 3.52124 45.6742 5.68527L45.7853 47.8985L45.7867 47.8999Z" fill="#ACBDEA"/>
<path d="M7.36379 22.1043L7.47487 64.3147C7.47765 65.3877 7.85535 66.1429 8.46495 66.4982L13.4417 69.4036C12.8321 69.0483 12.4558 68.293 12.4516 67.22L12.3406 25.0096C12.3378 23.9799 12.6863 22.847 13.2487 21.8214L8.27194 18.9161C7.70955 19.9417 7.36101 21.0745 7.36379 22.1043Z" fill="black"/>
<path d="M39.7128 0.596421C39.0963 0.23691 38.2409 0.287075 37.298 0.833307L10.7506 16.2198C9.7675 16.7897 8.8899 17.7874 8.27197 18.9147L13.2487 21.8201C13.8667 20.6914 14.7443 19.6951 15.7274 19.1251L42.2734 3.73865C43.2163 3.19242 44.0703 3.14086 44.6882 3.50177L39.7115 0.596421H39.7128Z" fill="white"/>
<path d="M44.691 3.50174C44.0745 3.13944 43.2149 3.19518 42.2721 3.73862L15.7288 19.1265C14.7443 19.6964 13.8639 20.6913 13.2474 21.8186L8.27197 18.9175C8.88851 17.7832 9.76889 16.7883 10.7534 16.2184L15.944 13.2057C16.9841 13.6781 18.1894 13.9498 19.478 13.9498C23.4009 13.9498 26.5752 11.4528 26.5752 8.37045C26.5752 7.95242 26.5127 7.54275 26.4016 7.15258L37.2967 0.83746C38.2395 0.28844 39.0991 0.239669 39.7156 0.593606L44.691 3.50174Z" fill="#B2C6F7"/>
<path d="M14.3319 70C13.9459 70 13.5862 69.9081 13.2655 69.7241C12.5101 69.288 12.0907 68.3989 12.0879 67.2215L11.9768 25.0111C11.9699 22.7356 13.571 19.9542 15.5456 18.8102L42.093 3.42372C43.1192 2.82871 44.1023 2.74371 44.8646 3.18265C45.6214 3.6188 46.0394 4.50782 46.0422 5.68529L46.1533 47.8957C46.1602 50.1712 44.5605 52.9511 42.5887 54.0938L16.0413 69.4789C15.4456 69.8244 14.8637 69.9986 14.3319 69.9986V70ZM42.4554 4.05495L15.908 19.4414C14.1347 20.4684 12.6961 22.9669 12.7031 25.0083L12.8142 67.2187C12.8169 68.1244 13.1058 68.7891 13.6279 69.0901C14.1556 69.3953 14.8832 69.3075 15.6775 68.8476L42.2249 53.4611C43.9954 52.4342 45.4326 49.9385 45.4256 47.8957L45.3145 5.68529C45.3118 4.77955 45.0229 4.11348 44.5008 3.81249C43.9745 3.50732 43.2483 3.59372 42.4554 4.05216V4.05495Z" fill="black"/>
<path d="M13.4404 69.7687C13.3779 69.7687 13.3154 69.7534 13.2585 69.7199L8.2817 66.8146C7.53047 66.3756 7.11388 65.4894 7.11111 64.3161L7.00002 22.1043C6.99724 21.0606 7.33606 19.8664 7.9526 18.7391C7.99982 18.6527 8.07897 18.59 8.17339 18.5636C8.26782 18.5385 8.36918 18.551 8.45389 18.5998L13.4307 21.5051C13.6015 21.6055 13.6612 21.8228 13.5667 21.9956C13.0071 23.0156 12.7003 24.0858 12.703 25.0069L12.8141 67.2173C12.8169 68.1202 13.103 68.7835 13.6237 69.0859C13.7973 69.1876 13.8556 69.4106 13.7556 69.5848C13.6876 69.7018 13.5667 69.7659 13.4418 69.7659L13.4404 69.7687ZM8.41779 19.4219C7.96788 20.3402 7.72487 21.2794 7.72626 22.1015L7.83735 64.3119C7.84013 65.2149 8.12618 65.8782 8.64691 66.182L12.2184 68.2679C12.1323 67.953 12.0879 67.6019 12.0865 67.2201L11.9754 25.0097C11.9726 24.0635 12.2517 22.9919 12.7641 21.9594L8.41779 19.4219Z" fill="black"/>
<path d="M13.2474 22.1851C13.1835 22.1851 13.121 22.1684 13.0641 22.135L8.08729 19.2296C7.91649 19.1293 7.85678 18.9119 7.9512 18.7391C8.6344 17.492 9.56338 16.4859 10.5673 15.9034L37.1161 0.518351C38.1465 -0.0780456 39.1338 -0.163046 39.8948 0.281465L44.8687 3.18542C44.8687 3.18542 44.8715 3.18542 44.8715 3.18681C45.0451 3.28853 45.1048 3.51148 45.0034 3.68567C44.9021 3.85985 44.6785 3.91698 44.5063 3.81804C43.98 3.51148 43.251 3.59509 42.4553 4.05632L15.9079 19.4428C15.0303 19.9514 14.1777 20.8822 13.5667 21.9984C13.5195 22.0848 13.4404 22.1475 13.3459 22.174C13.314 22.1823 13.2807 22.1865 13.2487 22.1865L13.2474 22.1851ZM8.7677 18.7823L13.1154 21.3212C13.7764 20.2245 14.629 19.3397 15.5455 18.8088L42.0929 3.4237C42.4359 3.22443 42.7761 3.0823 43.1038 2.9973L39.5309 0.911304C39.0047 0.603352 38.277 0.688352 37.4813 1.14958L10.9312 16.5361C10.1369 16.9973 9.36064 17.8055 8.76632 18.7837L8.7677 18.7823Z" fill="black"/>
<path d="M61.042 44.6978C61.8335 45.1576 61.8349 45.9017 61.0517 46.3602L50.1469 52.7324C49.361 53.1922 48.0849 53.1922 47.2934 52.7324L36.3178 46.3602C35.5291 45.9017 35.5221 45.1576 36.3081 44.6978L47.2128 38.3255C47.996 37.8671 49.2777 37.8671 50.0664 38.3255L61.042 44.6978Z" fill="#88ADF6"/>
<path d="M61.0516 46.3587L50.1483 52.7324C49.3623 53.1922 48.0848 53.1922 47.2919 52.7324L36.3177 46.3587C35.529 45.9031 35.5248 45.1562 36.3108 44.6964L42.2124 41.2462C42.4915 44.5918 45.1937 47.2129 48.4889 47.2129C51.7841 47.2129 54.5863 44.4915 54.7793 41.0594L61.0419 44.6964C61.8348 45.1562 61.8348 45.9031 61.053 46.3587H61.0516Z" fill="#869FF2"/>
<path d="M61.0517 46.3588L50.1483 52.7324C49.747 52.9679 49.2166 53.0808 48.6889 53.0752L48.65 67.1254C49.1791 67.131 49.7081 67.0181 50.1095 66.7826L61.0128 60.4089C61.4016 60.1832 61.5988 59.8808 61.5988 59.5826L61.6377 45.5325C61.6377 45.8335 61.4419 46.1317 61.0517 46.3588Z" fill="#BDD1F7"/>
<path d="M61.6376 45.5325L61.5987 59.5826C61.5987 59.8808 61.4029 60.1818 61.0127 60.4089L50.1094 66.7826C49.7095 67.0153 49.1776 67.131 48.6486 67.124L48.6736 57.9425C49.4873 58.3341 50.3982 58.5529 51.355 58.5529C54.9042 58.5529 57.7814 55.5695 57.7814 51.8894C57.7814 50.744 57.5037 49.6627 57.0108 48.7221L61.0516 46.3602C61.4404 46.1344 61.6376 45.8362 61.6376 45.5339V45.5325Z" fill="#ACBDEA"/>
<path d="M47.2919 52.7324L36.3177 46.3588C35.9248 46.133 35.7248 45.8306 35.7248 45.5297L35.6818 59.5729C35.6818 59.8738 35.8817 60.179 36.2775 60.4089L47.2516 66.7826C47.6391 67.0069 48.1431 67.1198 48.6472 67.1254L48.6861 53.0752C48.1806 53.0696 47.6779 52.9568 47.2905 52.7324H47.2919Z" fill="black"/>
<path d="M57.1886 48.6176L53.9642 50.5029L40.1698 42.4418L43.3941 40.5565L57.1886 48.6176Z" fill="white"/>
<path d="M57.1885 48.6176L53.9642 50.5029L40.1683 42.4418L43.3927 40.5565L45.7561 41.9388C45.7311 42.1116 45.7172 42.2829 45.7172 42.4627C45.7172 44.5348 47.5877 46.2153 49.9053 46.2153C50.7162 46.2153 51.473 46.0104 52.1118 45.6509L57.1885 48.6162V48.6176Z" fill="#B2C6F7"/>
<path d="M56.7845 52.8091L54.5071 54.1398C54.2697 54.2791 53.9711 54.1064 53.9711 53.8305L53.9614 50.5029L57.1872 48.6176L57.1969 52.0845C57.1969 52.3827 57.04 52.66 56.7831 52.8091H56.7845Z" fill="black"/>
<path d="M48.7221 53.4417C48.1431 53.4417 47.564 53.3107 47.1114 53.0473L36.1372 46.6751C35.6373 46.3852 35.361 45.9769 35.361 45.5269C35.361 45.0782 35.6317 44.6727 36.1261 44.3828L47.0308 38.0106C47.9306 37.4839 49.3442 37.4839 50.2482 38.0106L61.2238 44.3842C61.7237 44.6741 62 45.0823 62.0014 45.5324C62.0014 45.9811 61.7306 46.3866 61.2363 46.6765L50.3315 53.0487C49.8816 53.3121 49.3026 53.4431 48.7235 53.4431L48.7221 53.4417ZM48.6374 38.3436C48.1834 38.3436 47.7307 38.4426 47.396 38.639L36.4913 45.0113C36.2344 45.1618 36.0858 45.3485 36.0858 45.5241C36.0858 45.701 36.2358 45.8905 36.4982 46.0438L47.4738 52.4161C48.1528 52.8104 49.2915 52.809 49.9636 52.4161L60.8683 46.0438C61.1252 45.8933 61.2738 45.7066 61.2738 45.531C61.2738 45.3555 61.1224 45.1646 60.86 45.0113L49.8844 38.6376C49.5456 38.4412 49.0915 38.3422 48.6374 38.3422V38.3436Z" fill="black"/>
<path d="M48.6833 67.489H48.6458C48.4458 67.4863 48.2848 67.3232 48.2861 67.124L48.3264 53.0738C48.3264 52.9763 48.3653 52.8843 48.4347 52.816C48.5042 52.7477 48.5958 52.7213 48.6944 52.7101C49.1637 52.7045 49.6414 52.6084 49.9677 52.4175L60.8711 46.0438C61.1266 45.8947 61.2738 45.7094 61.2752 45.5352V45.531C61.2752 45.3304 61.439 45.1674 61.639 45.1674C61.839 45.1674 62.0014 45.3304 62.0014 45.5324V45.5366L61.9612 59.5826C61.9612 60.0243 61.682 60.4396 61.1946 60.7224L50.2927 67.0947C49.8594 67.3483 49.2887 67.4877 48.6833 67.4877V67.489ZM49.0513 53.4263L49.0138 66.7435C49.3623 66.7059 49.6831 66.6098 49.9261 66.4676L60.8294 60.094C61.0863 59.9449 61.2349 59.7582 61.2349 59.5826L61.2724 46.6528C61.2599 46.6597 61.2488 46.6667 61.2363 46.6737L50.3329 53.0473C49.9802 53.2549 49.5345 53.3845 49.0527 53.4263H49.0513Z" fill="black"/>
<path d="M48.6486 67.489H48.6444C48.0557 67.4835 47.496 67.3441 47.0711 67.0975L36.097 60.7238C35.6026 60.4382 35.3193 60.0173 35.3193 59.5714L35.3624 45.5282C35.3624 45.3276 35.5262 45.1646 35.7262 45.1646C35.9262 45.1646 36.0886 45.3276 36.0886 45.5296C36.0886 45.7052 36.2386 45.8933 36.4983 46.0424L47.4738 52.4161C47.7918 52.6014 48.2251 52.7045 48.6916 52.7101C48.8916 52.7129 49.0527 52.8759 49.0513 53.0752L49.011 67.1239C49.011 67.2215 48.9721 67.3135 48.9027 67.3817C48.8347 67.45 48.743 67.4876 48.6472 67.4876L48.6486 67.489ZM36.0845 46.6444L36.0456 59.5728C36.0456 59.7498 36.1969 59.9407 36.4594 60.0926L47.4336 66.4662C47.6668 66.6014 47.9612 66.6934 48.2862 66.7352L48.3237 53.4194C47.8682 53.372 47.4461 53.2438 47.11 53.0487L36.1358 46.6751C36.1178 46.6653 36.1011 46.6555 36.0845 46.6458V46.6444Z" fill="black"/>
<path d="M53.9642 50.8666C53.9017 50.8666 53.8378 50.8498 53.7809 50.8164L39.9851 42.7553C39.874 42.6898 39.8046 42.57 39.8046 42.4404C39.8046 42.3108 39.874 42.1909 39.9851 42.1254L43.2094 40.2401C43.3233 40.1732 43.4622 40.1732 43.576 40.2401L57.3718 48.3012C57.4829 48.3667 57.5524 48.4865 57.5524 48.6161C57.5524 48.7457 57.4829 48.8656 57.3718 48.9311L54.1475 50.8164C54.0906 50.8498 54.0281 50.8666 53.9642 50.8666ZM40.8905 42.4418L53.9642 50.0807L56.4665 48.6175L43.3927 40.9786L40.8905 42.4418Z" fill="black"/>
<path d="M54.3294 54.5537C54.2072 54.5537 54.0836 54.5216 53.9711 54.4575C53.7448 54.3265 53.6087 54.0938 53.6087 53.8318L53.599 50.5043C53.599 50.3733 53.667 50.2535 53.7795 50.188L57.0053 48.3026C57.1177 48.2371 57.2566 48.2357 57.3691 48.3026C57.4816 48.3681 57.551 48.488 57.551 48.6176L57.5607 52.0845C57.5607 52.5122 57.3344 52.9108 56.9664 53.1254L54.6904 54.4561C54.5766 54.523 54.453 54.555 54.328 54.555L54.3294 54.5537ZM54.3266 50.7119L54.335 53.8291L56.6012 52.4941C56.7456 52.4091 56.8358 52.2531 56.8345 52.0845L56.8261 49.2502L54.3252 50.7119H54.3266Z" fill="black"/>
<path d="M53.6558 11.3901L44.0771 16.936L44.1216 33.7731L52.6213 28.8514C53.2878 28.4668 53.6988 27.752 53.696 26.9772L53.6558 11.3901Z" fill="white"/>
<path d="M53.6961 26.98C53.6961 27.7534 53.2892 28.4668 52.6213 28.8542L44.1202 33.7759L44.098 24.9609C47.4834 23.7723 49.8677 20.9143 49.8677 17.5826C49.8677 16.3424 49.5414 15.1622 48.9526 14.1115L53.653 11.3915L53.6961 26.98Z" fill="#B2C6F7"/>
<path d="M26.4515 18.3448L26.4585 22.337L53.6433 6.6022L53.6363 4.24169C53.6335 3.51988 52.8545 3.06701 52.2283 3.42931L26.4515 18.3448Z" fill="white"/>
<path d="M26.4919 43.9759L22.4413 46.3267L39.3795 36.521L39.3351 19.6839L26.4669 27.1319L26.4919 43.9759Z" fill="white"/>
<path d="M39.3822 36.5238L26.4918 43.976L26.4779 36.3928C29.4787 36.0723 31.8407 33.1112 31.8407 29.5022C31.8407 27.7297 31.2742 26.1119 30.3368 24.8871L39.3323 19.6812L39.3836 36.5238H39.3822Z" fill="#B2C6F7"/>
<path d="M17.8061 47.3815C17.8089 48.1061 18.592 48.5562 19.2169 48.1939L22.3399 46.3852L22.3121 20.7388L18.8239 22.7579C18.1574 23.1453 17.7464 23.8601 17.7492 24.6363L17.8061 47.3815Z" fill="white"/>
<path d="M22.3149 20.7388L22.3399 46.3866L26.4933 43.9759L26.4669 27.1319L39.3351 19.6839L39.3809 36.521L44.123 33.7745L44.0758 16.9374L53.6614 11.3873L53.6461 6.59802L26.4572 22.337L26.4516 18.3448L22.3149 20.7388Z" fill="#88ADF6"/>
<path d="M30.5772 24.756L26.4641 27.1333L26.4933 43.9759L22.3441 46.3894L22.3219 24.0565C24.066 24.5888 26.0559 24.887 28.1707 24.887C28.9914 24.887 29.7982 24.8438 30.5758 24.756H30.5772Z" fill="#869FF2"/>
<path d="M44.0773 16.9402L44.1203 33.7759L39.3824 36.5251L39.3394 20.9659C40.1684 20.0253 40.6321 18.9677 40.6321 17.8445C40.6321 16.7214 40.2031 15.7376 39.4338 14.8263L53.6462 6.60217L53.6601 11.3929L44.0759 16.9416L44.0773 16.9402Z" fill="#869FF2"/>
<path d="M44.1217 34.1382C44.0592 34.1382 43.9967 34.1215 43.9412 34.0894C43.8287 34.0253 43.7593 33.9041 43.7593 33.7745L43.7148 16.9374C43.7148 16.8064 43.7843 16.6852 43.8968 16.6211L53.474 11.0752C53.5865 11.0097 53.7239 11.0097 53.8364 11.0752C53.9489 11.1407 54.0183 11.2605 54.0183 11.3901L54.06 26.9772C54.0641 27.8802 53.5823 28.7191 52.8033 29.1691L44.3036 34.0908C44.2481 34.1229 44.1842 34.1396 44.1217 34.1396V34.1382ZM44.4411 17.1464L44.4827 33.1433L52.4395 28.5365C52.9935 28.2174 53.3351 27.621 53.3323 26.9786L53.2921 12.0213L44.4397 17.1464H44.4411Z" fill="#0C111E"/>
<path d="M26.4572 22.7007C26.3947 22.7007 26.3322 22.684 26.2753 22.6519C26.1628 22.5865 26.0934 22.4666 26.0934 22.337L26.0864 18.3448C26.0864 18.2138 26.1559 18.094 26.2683 18.0285L52.0478 3.11298C52.4547 2.87888 52.9393 2.87749 53.3448 3.11159C53.7531 3.34708 53.9988 3.7679 54.0002 4.24028L54.0072 6.60079C54.0072 6.73177 53.9377 6.853 53.8253 6.9171L26.6391 22.6519C26.5835 22.684 26.5197 22.7007 26.4572 22.7007ZM26.8141 18.5552L26.8196 21.7058L53.2782 6.39177L53.2726 4.24307C53.2726 4.03544 53.1629 3.84872 52.9824 3.74421C52.8005 3.6397 52.5908 3.6397 52.4103 3.74421L26.8141 18.5552Z" fill="#0C111E"/>
<path d="M22.4413 46.6904C22.3164 46.6904 22.1942 46.6249 22.1275 46.5078C22.0261 46.3337 22.0858 46.1107 22.2608 46.0104L22.2636 46.0076L26.1295 43.7641L26.1045 27.1319C26.1045 27.0009 26.1739 26.8811 26.2864 26.8156L39.1546 19.3676C39.2671 19.3021 39.4046 19.3021 39.5184 19.3676C39.6309 19.4331 39.7003 19.5529 39.7003 19.6825L39.7448 36.5196C39.7448 36.6506 39.6753 36.7718 39.5629 36.8359L22.6246 46.6402C22.5677 46.6737 22.5052 46.689 22.4427 46.689L22.4413 46.6904ZM26.8293 27.3423L26.8543 43.3503L39.0144 36.3106L38.9727 20.3138L26.8293 27.3423Z" fill="#0C111E"/>
<path d="M18.7462 48.6872C18.5241 48.6872 18.3005 48.6286 18.0964 48.5116C17.6881 48.2761 17.4437 47.8553 17.4423 47.3829L17.3854 24.6376C17.3812 23.7374 17.8631 22.8958 18.6407 22.4429L22.1303 20.4224C22.2428 20.3569 22.3816 20.3569 22.4941 20.4224C22.6066 20.4879 22.676 20.6077 22.676 20.7373L22.7038 46.3852C22.7038 46.5162 22.6343 46.636 22.5219 46.7015L19.3975 48.5102C19.1934 48.6286 18.9698 48.6872 18.7449 48.6872H18.7462ZM18.17 47.3801C18.17 47.5891 18.2797 47.7759 18.4588 47.879C18.6393 47.9835 18.8546 47.9821 19.0351 47.879L21.9775 46.1762L21.9498 21.37L19.0059 23.0741C18.4519 23.396 18.1103 23.9938 18.113 24.6348L18.17 47.3801Z" fill="#0C111E"/>
<path d="M22.3414 46.7503C22.2789 46.7503 22.2164 46.7336 22.1595 46.7015C22.047 46.636 21.9776 46.5162 21.9776 46.3866L21.9512 20.7388C21.9512 20.6078 22.0206 20.4879 22.1331 20.4225L26.2697 18.0285C26.3822 17.963 26.5211 17.963 26.6336 18.0285C26.746 18.094 26.8155 18.2138 26.8155 18.3434L26.821 21.7058L53.4643 6.28032C53.5767 6.21483 53.7142 6.21483 53.8267 6.28032C53.9392 6.34581 54.0086 6.46565 54.0086 6.59524L54.0252 11.3859C54.0252 11.5169 53.9558 11.6381 53.8433 11.7036L44.4397 17.1478L44.4855 33.7745C44.4855 33.9055 44.4161 34.0253 44.3036 34.0908L39.5629 36.8373C39.4504 36.9028 39.3129 36.9028 39.2005 36.8373C39.088 36.7718 39.0186 36.652 39.0186 36.5224L38.9741 20.3138L26.8321 27.3423L26.8585 43.976C26.8585 44.1069 26.7891 44.2268 26.6766 44.2923L22.5233 46.7029C22.4677 46.7364 22.4052 46.7517 22.3414 46.7517V46.7503ZM22.6788 20.9492L22.7038 45.7554L26.1309 43.7669L26.1045 27.1333C26.1045 27.0023 26.1739 26.8825 26.2864 26.817L39.1533 19.369C39.2657 19.3035 39.4032 19.3035 39.5157 19.369C39.6282 19.4345 39.6976 19.5543 39.6976 19.6839L39.742 35.8925L43.7579 33.5669L43.7121 16.9402C43.7121 16.8092 43.7815 16.688 43.894 16.6239L53.2976 11.1811L53.2837 7.23065L26.6391 22.6562C26.5266 22.7216 26.3878 22.7216 26.2753 22.6562C26.1628 22.5907 26.0934 22.4708 26.0934 22.3412L26.0878 18.9788L22.6774 20.952L22.6788 20.9492Z" fill="#0C111E"/>
<path d="M32.7768 26.7264C32.8143 26.7055 32.8518 26.6832 32.8893 26.6637C35.025 25.4263 37.0218 26.6024 36.0345 30.7131C35.4513 33.0067 34.4417 35.4912 33.2961 37.0171C33.185 37.1648 33.0573 37.2818 32.9295 37.3543C32.7948 37.4323 32.6588 37.463 32.5435 37.4351C31.316 37.1313 29.7802 35.2655 29.5941 33.1474C29.3525 30.6448 30.7605 27.8941 32.7754 26.7264H32.7768Z" fill="#88ADF6"/>
<path d="M32.6337 37.8113C32.574 37.8113 32.5157 37.8043 32.4588 37.7904C31.0951 37.4532 29.4358 35.4773 29.2344 33.1809C28.9831 30.5793 30.4272 27.6684 32.5962 26.4129L32.7184 26.3446C33.8251 25.7022 34.9027 25.659 35.6678 26.2317C36.2427 26.6637 37.1023 27.83 36.3885 30.7995C35.747 33.3244 34.675 35.7894 33.5877 37.2386C33.4488 37.4225 33.285 37.573 33.1128 37.672C32.9517 37.7653 32.7892 37.8127 32.6337 37.8127V37.8113ZM32.9587 27.0427C31.0215 28.1644 29.7315 30.7744 29.9579 33.1126C30.1245 35.0174 31.5326 36.8094 32.6323 37.0825C32.6379 37.0825 32.6837 37.0784 32.749 37.0393C32.8365 36.9892 32.9281 36.9028 33.0059 36.7983C34.0376 35.4229 35.0638 33.0555 35.6817 30.6225C36.1302 28.7553 35.9664 27.366 35.2318 26.8142C34.7111 26.4254 33.9237 26.4839 33.0711 26.98L32.9587 27.0427Z" fill="#0C111E"/>
<path d="M33.0322 28.8431C33.7543 28.425 34.3417 28.7609 34.3445 29.5942C34.3472 30.4274 33.7626 31.4433 33.0406 31.8627C32.3171 32.2821 31.7297 31.9449 31.7269 31.1116C31.7242 30.2783 32.3088 29.2639 33.0322 28.8445V28.8431Z" fill="black"/>
<path d="M15.8593 55.6279C15.7343 55.6279 15.6121 55.5624 15.5455 55.4454C15.4441 55.2712 15.5038 55.0482 15.6788 54.9479L25.1727 49.4466C25.3449 49.3462 25.5684 49.4048 25.6684 49.5803C25.7698 49.7545 25.7101 49.9775 25.5351 50.0778L16.0412 55.5791C15.9843 55.6126 15.9218 55.6279 15.8593 55.6279Z" fill="black"/>
<path d="M27.9958 48.5938C27.8708 48.5938 27.7486 48.5283 27.6819 48.4112C27.5806 48.2371 27.6403 48.0141 27.8153 47.9138L31.5464 45.7511C31.7186 45.6494 31.9422 45.7093 32.0422 45.8849C32.1435 46.0591 32.0838 46.2821 31.9089 46.3824L28.1777 48.545C28.1207 48.5785 28.0583 48.5938 27.9958 48.5938Z" fill="black"/>
<path d="M15.8593 60.2263C15.7343 60.2263 15.6121 60.1608 15.5455 60.0438C15.4441 59.8696 15.5038 59.6466 15.6788 59.5463L31.5478 50.3495C31.72 50.2492 31.9435 50.3077 32.0435 50.4833C32.1449 50.6575 32.0852 50.8804 31.9102 50.9808L16.0412 60.1775C15.9843 60.211 15.9218 60.2263 15.8593 60.2263Z" fill="black"/>
<path d="M15.8593 64.8247C15.7343 64.8247 15.6121 64.7592 15.5455 64.6422C15.4441 64.468 15.5038 64.245 15.6788 64.1447L22.7301 60.0577C22.9023 59.9574 23.1259 60.0159 23.2259 60.1915C23.3272 60.3657 23.2675 60.5886 23.0926 60.689L16.0412 64.7759C15.9843 64.8094 15.9218 64.8247 15.8593 64.8247Z" fill="black"/>
<path d="M25.7587 59.0879C25.6337 59.0879 25.5115 59.0224 25.4449 58.9053C25.3435 58.7311 25.4032 58.5082 25.5782 58.4079L31.5464 54.9479C31.7186 54.8476 31.9422 54.9061 32.0422 55.0817C32.1435 55.2559 32.0838 55.4788 31.9089 55.5791L25.9406 59.0391C25.8837 59.0725 25.8212 59.0879 25.7587 59.0879Z" fill="black"/>
</g>
<defs>
<clipPath id="clip0_131_781">
<rect width="55" height="70" fill="white" transform="translate(7)"/>
</clipPath>
</defs>
</svg>
