<svg width="44" height="44" viewBox="0 0 44 44" fill="none" xmlns="http://www.w3.org/2000/svg">
<ellipse cx="22" cy="29.333" rx="5.5" ry="5.5" stroke="#D1A77A" stroke-width="1.5"/>
<path d="M22 35.3102L17.8514 39.2875C17.2573 39.8571 16.9602 40.1419 16.7086 40.2405C16.1354 40.4651 15.4995 40.2729 15.1979 39.7839C15.0656 39.5693 15.0243 39.1823 14.9419 38.4082C14.8953 37.9711 14.872 37.7526 14.8013 37.5696C14.6431 37.1598 14.3106 36.8411 13.8832 36.6894C13.6923 36.6216 13.4644 36.5993 13.0085 36.5546C12.2011 36.4756 11.7973 36.436 11.5735 36.3092C11.0635 36.0201 10.863 35.4104 11.0973 34.8608C11.2001 34.6196 11.4971 34.3348 12.0913 33.7652L14.8013 31.1671L16.7086 29.2598" stroke="#D1A77A" stroke-width="1.5"/>
<path d="M22 35.3096L26.1486 39.2869C26.7427 39.8565 27.0398 40.1413 27.2914 40.2399C27.8646 40.4644 28.5005 40.2722 28.8021 39.7833C28.9344 39.5687 28.9757 39.1817 29.0581 38.4076C29.1047 37.9705 29.128 37.752 29.1987 37.5689C29.3569 37.1592 29.6894 36.8404 30.1168 36.6887C30.3077 36.621 30.5356 36.5987 30.9915 36.554C31.7989 36.475 32.2027 36.4354 32.4265 36.3085C32.9365 36.0194 33.137 35.4098 32.9027 34.8602C32.7999 34.619 32.5029 34.3342 31.9087 33.7646L29.1987 31.1664L27.5 29.4678" stroke="#D1A77A" stroke-width="1.5"/>
<path opacity="0.5" d="M31.7527 32.9925C35.3688 32.9541 37.3843 32.7275 38.7224 31.3894C40.3333 29.7785 40.3333 27.1858 40.3333 22.0003V14.667C40.3333 9.48154 40.3333 6.88882 38.7224 5.2779C37.1115 3.66699 34.5187 3.66699 29.3333 3.66699L14.6666 3.66699C9.48118 3.66699 6.88845 3.66699 5.27754 5.27791C3.66663 6.88882 3.66663 9.48154 3.66663 14.667L3.66663 22.0003C3.66663 27.1858 3.66663 29.7785 5.27754 31.3894C6.68624 32.7981 8.84575 32.9749 12.8333 32.9971" stroke="#D1A77A" stroke-width="1.5"/>
<path opacity="0.5" d="M16.5 11L27.5 11" stroke="#D1A77A" stroke-width="1.5" stroke-linecap="round"/>
<path opacity="0.5" d="M12.8334 17.417H31.1667" stroke="#D1A77A" stroke-width="1.5" stroke-linecap="round"/>
</svg>
