<svg width="642" height="453" viewBox="0 0 642 453" fill="none" xmlns="http://www.w3.org/2000/svg">
<path d="M94.0257 401.785C219.4 470.064 422.594 470.079 547.969 401.785C673.344 333.491 673.344 222.77 547.969 154.476C422.594 86.1824 219.4 86.1824 94.0257 154.476C-31.3491 222.77 -31.3347 333.463 94.0257 401.785Z" fill="#F5F5F5"/>
<path d="M160.849 376.995L248.193 427.401C262.402 435.596 285.445 435.596 299.655 427.401L513.743 303.876C527.952 295.682 527.952 282.389 513.743 274.18L426.398 223.773C412.175 215.578 389.132 215.578 374.923 223.773L160.849 347.298C146.625 355.493 146.625 368.786 160.849 376.995Z" fill="#EBEBEB"/>
<path d="M288.731 70.9695C283.211 65.7848 273.225 63.7686 260.687 71.4448C248.15 79.121 238.235 103.676 235.122 121.045C232.01 138.413 230.05 161.096 236.275 170.717C242.501 180.337 265.097 190.534 265.097 190.534L267.835 181.072L288.731 70.9695Z" fill="#AF8B65"/>
<path opacity="0.4" d="M288.731 70.9695C283.211 65.7848 273.225 63.7686 260.687 71.4448C248.15 79.121 238.235 103.676 235.122 121.045C232.01 138.413 230.05 161.096 236.275 170.717C242.501 180.337 265.097 190.534 265.097 190.534L267.835 181.072L288.731 70.9695Z" fill="white"/>
<path d="M242.472 167.84C252.257 179.549 267.892 181.133 267.892 181.133L328.202 146.237L304.049 132.311L242.472 167.84Z" fill="#AF8B65"/>
<path opacity="0.2" d="M242.472 167.84C252.257 179.549 267.892 181.133 267.892 181.133L328.202 146.237L304.049 132.311L242.472 167.84Z" fill="black"/>
<path d="M242.472 167.839C238.509 163.144 237.702 151.061 239.849 132.382C242.184 111.874 249.779 80.1464 267.879 69.6907C289.106 57.4491 310.665 87.8658 304.093 132.382L242.472 167.839Z" fill="#AF8B65"/>
<path d="M383.756 267.098C394.896 279.714 403.053 282.22 406.036 284.913C409.019 287.606 407.837 293.424 401.179 295.282C394.521 297.14 387.042 296.046 382.358 292.027C377.675 288.009 374.202 282.522 369.504 279.671C364.806 276.819 362.471 276.142 361.52 272.47C360.569 268.797 363.106 257.348 363.106 257.348L383.756 267.098Z" fill="#263238"/>
<path d="M377.372 247.051C376.781 251.976 376.061 256.311 379.808 261.914C381.018 263.715 382.337 265.442 383.756 267.084C390.27 274.587 395.559 280.434 396.495 281.486C397.432 282.537 392.662 286.354 386.754 284.366C380.845 282.379 375.297 274.285 371.176 269.489C369.345 267.343 367.558 265.399 366.146 263.901C364.247 261.904 363.144 259.281 363.048 256.527L362.774 248.75L377.372 247.051Z" fill="#EEC1BB"/>
<path d="M349.934 287.734C361.073 300.364 369.216 302.856 372.213 305.549C375.211 308.242 374.014 314.075 367.357 315.933C360.699 317.79 353.22 316.696 348.522 312.663C343.824 308.631 340.379 303.173 335.681 300.321C330.984 297.469 328.635 296.792 327.698 293.12C326.761 289.448 329.283 277.998 329.283 277.998L349.934 287.734Z" fill="#263238"/>
<path d="M343.536 267.705C342.959 272.645 342.224 276.965 345.986 282.568C347.192 284.372 348.511 286.099 349.934 287.738C356.448 295.256 361.722 301.103 362.659 302.14C363.596 303.177 358.84 307.008 352.917 305.02C346.994 303.033 341.461 294.939 337.353 290.158C335.523 287.997 333.736 286.067 332.324 284.57C330.427 282.571 329.325 279.949 329.226 277.196L328.938 269.404L343.536 267.705Z" fill="#EEC1BB"/>
<path d="M298.487 1.63163e-05H307.047C310.391 -0.00376816 313.702 0.650822 316.792 1.92639C319.882 3.20196 322.69 5.07351 325.056 7.4341C327.423 9.79469 329.3 12.5981 330.582 15.684C331.863 18.77 332.524 22.0781 332.526 25.4193V89.3061H273.038V25.4193C273.041 18.6764 275.724 12.2109 280.497 7.44429C285.269 2.67766 291.74 1.52353e-05 298.487 1.63163e-05Z" fill="#263238"/>
<path d="M336.1 74.2285C326.142 63.7728 321.055 62.707 315.002 62.707L326.531 96.5514C326.531 96.5514 345.495 109.081 356.592 115.994L363.639 100.469C363.639 100.469 346.057 84.6411 336.1 74.2285Z" fill="#EEC1BB"/>
<path d="M268.801 150.557C265.097 158.535 260.327 167.018 265.155 175.227C269.982 183.436 309.195 175.227 309.195 175.227V150.557H268.801Z" fill="#263238"/>
<path d="M311.226 62.7016C315.549 62.3416 320.449 62.4712 325.637 71.1987C330.825 79.9263 333.736 84.8229 332.093 97.5254C330.45 110.228 324.311 120.021 323.864 124.774C323.418 129.526 324.556 152.368 324.556 152.368C324.556 152.368 316.976 163.184 298.126 163.688C292.569 163.809 287.055 162.694 281.983 160.422C276.911 158.15 272.408 154.779 268.8 150.553L283.211 124.716L279.522 72.2069L293.601 63.7818L311.226 62.7016Z" fill="#AF8B65"/>
<path d="M311.226 62.7016C315.549 62.3416 320.449 62.4712 325.637 71.1987C330.825 79.9263 333.736 84.8229 332.093 97.5254C330.45 110.228 324.311 120.021 323.864 124.774C323.418 129.526 324.556 152.368 324.556 152.368C324.556 152.368 316.976 163.184 298.126 163.688C292.569 163.809 287.055 162.694 281.983 160.422C276.911 158.15 272.408 154.779 268.8 150.553L283.211 124.716L279.522 72.2069L293.601 63.7818L311.226 62.7016Z" fill="#E0E0E0"/>
<path d="M293.616 81.2847C292.25 81.2847 290.898 81.0156 289.637 80.4929C288.375 79.9702 287.229 79.204 286.264 78.2382C285.299 77.2725 284.534 76.1261 284.013 74.8646C283.491 73.6032 283.224 72.2513 283.226 70.8865V40.6426H293.616V81.2847Z" fill="#263238"/>
<path d="M322.726 12.0117C325.853 13.8696 329.744 21.7618 329.355 38.2951C329.038 52.3226 324.484 55.779 322.15 56.7872C319.815 57.7953 315.463 57.176 311.168 56.4559V64.881C311.168 64.881 317.091 71.7507 316.717 75.596C316.342 79.4413 308.171 80.3774 302.637 76.6041C299.048 74.0205 295.965 70.7983 293.544 67.0989V46.749C293.544 46.749 290.662 50.6087 285.935 47.4691C281.208 44.3295 281.021 36.5669 283.773 33.7874C286.526 31.0078 292.42 31.8719 293.544 35.7316C293.544 35.7316 300.375 35.9764 309.396 30.9934C312.957 29.1026 316.021 26.3977 318.337 23.099C320.654 19.8004 322.157 16.0014 322.726 12.0117Z" fill="#EEC1BB"/>
<path d="M313.691 34.7812C313.712 35.2472 313.547 35.7024 313.232 36.0468C312.917 36.3911 312.478 36.5964 312.012 36.6174C311.545 36.6384 311.09 36.4734 310.745 36.1588C310.401 35.8441 310.195 35.4056 310.174 34.9396C310.164 34.7089 310.199 34.4783 310.278 34.2612C310.357 34.044 310.477 33.8445 310.633 33.674C310.789 33.5035 310.977 33.3653 311.186 33.2674C311.396 33.1695 311.622 33.1137 311.853 33.1033C312.084 33.0929 312.315 33.1281 312.532 33.2068C312.749 33.2855 312.949 33.4062 313.12 33.562C313.29 33.7178 313.429 33.9056 313.526 34.1148C313.624 34.324 313.68 34.5504 313.691 34.7812Z" fill="#263238"/>
<path d="M310.506 29.3778L306.846 31.6389C306.548 31.1379 306.457 30.5409 306.591 29.9739C306.726 29.407 307.075 28.9144 307.566 28.6001C307.809 28.4539 308.079 28.358 308.36 28.318C308.641 28.2781 308.926 28.2948 309.201 28.3674C309.475 28.4399 309.732 28.5667 309.956 28.7403C310.18 28.9138 310.367 29.1306 310.506 29.3778Z" fill="#263238"/>
<path d="M314.166 46.666L318.259 47.9766C318.181 48.2479 318.05 48.501 317.873 48.721C317.697 48.941 317.478 49.1234 317.229 49.2576C316.981 49.3918 316.708 49.475 316.427 49.5023C316.146 49.5296 315.862 49.5006 315.593 49.4168C315.049 49.226 314.599 48.8351 314.334 48.324C314.069 47.8128 314.009 47.2199 314.166 46.666Z" fill="#EEC1BB"/>
<path d="M328.202 29.363L324.628 26.8859C324.777 26.6441 324.974 26.4355 325.207 26.2728C325.44 26.1101 325.703 25.9969 325.982 25.9402C326.26 25.8835 326.547 25.8845 326.825 25.9431C327.103 26.0018 327.365 26.1168 327.597 26.281C328.072 26.6209 328.399 27.1291 328.512 27.702C328.624 28.2749 328.514 28.869 328.202 29.363Z" fill="#263238"/>
<path d="M327.337 33.4994C327.343 33.8472 327.245 34.1888 327.058 34.4817C326.87 34.7745 326.6 35.0057 326.282 35.1463C325.963 35.2869 325.611 35.3308 325.268 35.2724C324.925 35.2141 324.606 35.0561 324.352 34.8181C324.099 34.5802 323.92 34.2728 323.84 33.9344C323.76 33.596 323.781 33.2414 323.901 32.915C324.021 32.5885 324.235 32.3046 324.515 32.0987C324.796 31.8927 325.131 31.7738 325.478 31.7568C325.715 31.7491 325.951 31.7881 326.172 31.8715C326.394 31.955 326.597 32.0812 326.769 32.2431C326.942 32.4049 327.081 32.5992 327.178 32.8147C327.276 33.0303 327.33 33.263 327.337 33.4994Z" fill="#263238"/>
<path d="M319.008 32.4922L319.297 43.1064L324.888 41.3782L319.008 32.4922Z" fill="#EEC1BB"/>
<path d="M311.226 56.455C307.667 56.0517 300.519 53.8914 298.934 51.4863C299.239 53.0227 300.095 54.3949 301.34 55.346C303.675 57.5783 311.226 59.1913 311.226 59.1913V56.455Z" fill="#EEC1BB"/>
<path d="M273.917 295.986L159.249 229.824L400.66 90.5293L515.328 156.692L273.917 295.986Z" fill="#AF8B65"/>
<path opacity="0.4" d="M273.917 295.986L159.249 229.824L400.66 90.5293L515.328 156.692L273.917 295.986Z" fill="white"/>
<path d="M159.249 229.828V362.153L165.287 365.638V275.093L267.893 334.285V424.83L273.917 428.315V295.99L159.249 229.828Z" fill="#AF8B65"/>
<path opacity="0.3" d="M159.249 229.828V362.153L165.287 365.638V275.093L267.893 334.285V424.83L273.917 428.315V295.99L159.249 229.828Z" fill="black"/>
<path d="M165.287 365.636L171.325 362.151V278.577L165.287 275.092V365.636Z" fill="#AF8B65"/>
<path opacity="0.5" d="M165.287 365.636L171.325 362.151V278.577L165.287 275.092V365.636Z" fill="black"/>
<path d="M273.917 428.311L279.955 424.826V334.281L509.29 201.957V292.501L515.328 289.016V156.691L273.917 295.986V428.311Z" fill="#AF8B65"/>
<path opacity="0.1" d="M273.917 428.311L279.955 424.826V334.281L509.29 201.957V292.501L515.328 289.016V156.691L273.917 295.986V428.311Z" fill="black"/>
<path d="M279.955 327.327V299.474L352.384 257.68V285.533L279.955 327.327Z" fill="#AF8B65"/>
<path opacity="0.3" d="M279.955 327.327V299.474L352.384 257.68V285.533L279.955 327.327Z" fill="black"/>
<path d="M358.408 282.06V254.192L430.837 212.412V240.265L358.408 282.06Z" fill="#AF8B65"/>
<path opacity="0.3" d="M358.408 282.06V254.192L430.837 212.412V240.265L358.408 282.06Z" fill="black"/>
<path d="M436.875 236.78V208.927L509.29 167.133V195L436.875 236.78Z" fill="#AF8B65"/>
<path opacity="0.3" d="M436.875 236.78V208.927L509.29 167.133V195L436.875 236.78Z" fill="black"/>
<path d="M328.202 271.604V273.836C328.202 275.06 325.32 277.724 321.761 279.769L310.491 286.279C306.932 288.324 304.05 289.001 304.05 287.719V285.501L328.202 271.604Z" fill="#263238"/>
<path d="M406.698 226.338V228.57C406.698 229.794 403.816 232.459 400.257 234.504L388.987 241.013C385.442 243.058 382.56 243.721 382.56 242.454V240.221L406.698 226.338Z" fill="#263238"/>
<path d="M485.151 181.076V183.294C485.151 184.533 482.269 187.183 478.724 189.242L467.44 195.737C463.895 197.797 461.013 198.459 461.013 197.177V194.945L485.151 181.076Z" fill="#263238"/>
<path d="M509.29 292.502L503.266 289.016V205.442L509.29 201.957V292.502Z" fill="#AF8B65"/>
<path opacity="0.3" d="M509.29 292.502L503.266 289.016V205.442L509.29 201.957V292.502Z" fill="black"/>
<path d="M340.307 165.649V165.145C340.333 164.699 340.463 164.265 340.685 163.877C340.908 163.49 341.218 163.16 341.59 162.912L417.55 119.131C417.95 118.93 418.392 118.826 418.84 118.826C419.287 118.826 419.729 118.93 420.129 119.131L435.664 128.089C436.037 128.336 436.346 128.666 436.569 129.054C436.792 129.441 436.921 129.875 436.947 130.321V130.839C436.917 131.284 436.785 131.716 436.559 132.101C436.334 132.486 436.023 132.813 435.65 133.057L359.777 176.839C359.376 177.039 358.935 177.143 358.487 177.143C358.039 177.143 357.597 177.039 357.197 176.839L341.59 167.838C341.223 167.595 340.917 167.271 340.695 166.892C340.472 166.513 340.34 166.087 340.307 165.649Z" fill="#AF8B65"/>
<path opacity="0.7" d="M340.307 165.649V165.145C340.333 164.699 340.463 164.265 340.685 163.877C340.908 163.49 341.218 163.16 341.59 162.912L417.55 119.131C417.95 118.93 418.392 118.826 418.84 118.826C419.287 118.826 419.729 118.93 420.129 119.131L435.664 128.089C436.037 128.336 436.346 128.666 436.569 129.054C436.792 129.441 436.921 129.875 436.947 130.321V130.839C436.917 131.284 436.785 131.716 436.559 132.101C436.334 132.486 436.023 132.813 435.65 133.057L359.777 176.839C359.376 177.039 358.935 177.143 358.487 177.143C358.039 177.143 357.597 177.039 357.197 176.839L341.59 167.838C341.223 167.595 340.917 167.271 340.695 166.892C340.472 166.513 340.34 166.087 340.307 165.649Z" fill="white"/>
<path d="M341.59 164.397L357.125 173.369C357.525 173.569 357.967 173.674 358.415 173.674C358.862 173.674 359.304 173.569 359.704 173.369L435.578 129.587C435.716 129.524 435.833 129.423 435.915 129.295C435.997 129.167 436.04 129.019 436.04 128.867C436.04 128.716 435.997 128.567 435.915 128.44C435.833 128.312 435.716 128.21 435.578 128.147L420.043 119.189C419.643 118.989 419.201 118.885 418.753 118.885C418.305 118.885 417.864 118.989 417.463 119.189L341.576 162.971C340.884 163.331 340.884 163.993 341.59 164.397Z" fill="#AF8B65"/>
<path opacity="0.9" d="M341.59 164.397L357.125 173.369C357.525 173.569 357.967 173.674 358.415 173.674C358.862 173.674 359.304 173.569 359.704 173.369L435.578 129.587C435.716 129.524 435.833 129.423 435.915 129.295C435.997 129.167 436.04 129.019 436.04 128.867C436.04 128.716 435.997 128.567 435.915 128.44C435.833 128.312 435.716 128.21 435.578 128.147L420.043 119.189C419.643 118.989 419.201 118.885 418.753 118.885C418.305 118.885 417.864 118.989 417.463 119.189L341.576 162.971C340.884 163.331 340.884 163.993 341.59 164.397Z" fill="white"/>
<path d="M245.037 207.346L290.734 233.73C291.134 233.931 291.576 234.035 292.024 234.035C292.471 234.035 292.913 233.931 293.313 233.73L326.949 214.317C327.092 214.258 327.214 214.159 327.3 214.03C327.387 213.902 327.433 213.751 327.433 213.596C327.433 213.442 327.387 213.291 327.3 213.163C327.214 213.034 327.092 212.935 326.949 212.876L281.237 186.507C280.841 186.301 280.401 186.193 279.955 186.193C279.508 186.193 279.068 186.301 278.672 186.507L245.037 205.863C244.316 206.28 244.316 206.943 245.037 207.346Z" fill="#AF8B65"/>
<path opacity="0.8" d="M245.037 207.346L290.734 233.73C291.134 233.931 291.576 234.035 292.024 234.035C292.471 234.035 292.913 233.931 293.313 233.73L326.949 214.317C327.092 214.258 327.214 214.159 327.3 214.03C327.387 213.902 327.433 213.751 327.433 213.596C327.433 213.442 327.387 213.291 327.3 213.163C327.214 213.034 327.092 212.935 326.949 212.876L281.237 186.507C280.841 186.301 280.401 186.193 279.955 186.193C279.508 186.193 279.068 186.301 278.672 186.507L245.037 205.863C244.316 206.28 244.316 206.943 245.037 207.346Z" fill="white"/>
<path d="M278.672 186.465L246.723 204.885L290.734 230.29C291.134 230.49 291.576 230.595 292.024 230.595C292.471 230.595 292.913 230.49 293.313 230.29L325.32 211.856L281.295 186.465C280.891 186.249 280.441 186.137 279.983 186.137C279.526 186.137 279.075 186.249 278.672 186.465Z" fill="#AF8B65"/>
<path opacity="0.7" d="M278.672 186.465L246.723 204.885L290.734 230.29C291.134 230.49 291.576 230.595 292.024 230.595C292.471 230.595 292.913 230.49 293.313 230.29L325.32 211.856L281.295 186.465C280.891 186.249 280.441 186.137 279.983 186.137C279.526 186.137 279.075 186.249 278.672 186.465Z" fill="white"/>
<path d="M245.037 202.71L290.734 229.08C291.134 229.28 291.576 229.384 292.024 229.384C292.471 229.384 292.913 229.28 293.313 229.08L326.948 209.68C327.086 209.617 327.203 209.516 327.285 209.388C327.367 209.26 327.411 209.112 327.411 208.96C327.411 208.809 327.367 208.66 327.285 208.532C327.203 208.405 327.086 208.303 326.948 208.24L281.237 181.813C280.838 181.615 280.399 181.512 279.954 181.512C279.509 181.512 279.07 181.615 278.672 181.813L245.037 201.226C244.879 201.276 244.741 201.375 244.643 201.508C244.545 201.642 244.493 201.803 244.493 201.968C244.493 202.133 244.545 202.295 244.643 202.428C244.741 202.561 244.879 202.66 245.037 202.71Z" fill="#AF8B65"/>
<path opacity="0.9" d="M245.037 202.71L290.734 229.08C291.134 229.28 291.576 229.384 292.024 229.384C292.471 229.384 292.913 229.28 293.313 229.08L326.948 209.68C327.086 209.617 327.203 209.516 327.285 209.388C327.367 209.26 327.411 209.112 327.411 208.96C327.411 208.809 327.367 208.66 327.285 208.532C327.203 208.405 327.086 208.303 326.948 208.24L281.237 181.813C280.838 181.615 280.399 181.512 279.954 181.512C279.509 181.512 279.07 181.615 278.672 181.813L245.037 201.226C244.879 201.276 244.741 201.375 244.643 201.508C244.545 201.642 244.493 201.803 244.493 201.968C244.493 202.133 244.545 202.295 244.643 202.428C244.741 202.561 244.879 202.66 245.037 202.71Z" fill="white"/>
<path d="M270.372 175.226C268.859 179.345 271.179 182.672 275.574 182.643C277.883 182.523 280.112 181.755 282.006 180.428C283.899 179.101 285.381 177.269 286.281 175.14C287.809 171.021 285.474 167.694 281.079 167.723C278.77 167.843 276.541 168.611 274.647 169.938C272.754 171.265 271.272 173.097 270.372 175.226Z" fill="#AF8B65"/>
<path opacity="0.1" d="M270.372 175.226C268.859 179.345 271.179 182.672 275.574 182.643C277.883 182.523 280.112 181.755 282.006 180.428C283.899 179.101 285.381 177.269 286.281 175.14C287.809 171.021 285.474 167.694 281.079 167.723C278.77 167.843 276.541 168.611 274.647 169.938C272.754 171.265 271.272 173.097 270.372 175.226Z" fill="black"/>
<path d="M274.017 194.772C270.573 204.09 275.847 211.622 285.805 211.564C295.763 211.507 306.586 203.845 310.045 194.57C313.503 185.295 308.2 177.734 298.256 177.778C288.313 177.821 277.447 185.439 274.017 194.772Z" fill="#455A64"/>
<path d="M282.087 167.84L276.121 172.002L270.155 176.164C268.181 183.984 267.59 196.197 274.925 206.711L309.252 182.746C301.845 172.16 290.057 168.618 282.087 167.84Z" fill="#455A64"/>
<path d="M285.532 168.398C285.532 168.398 286.598 177.832 279.522 182.109C279.522 182.109 286.18 180.28 288.169 175.599C290.157 170.919 285.532 168.398 285.532 168.398Z" fill="#263238"/>
<path d="M286.411 169.469C283.753 165.777 280.176 162.843 276.035 160.957L271.25 164.356L270.717 164.73L265.918 168.129C266.335 172.641 267.914 176.967 270.501 180.688C271.097 181.445 271.87 182.046 272.751 182.438C273.633 182.829 274.597 183 275.559 182.934C277.992 182.801 280.337 181.987 282.328 180.583C284.318 179.18 285.873 177.244 286.814 174.999C287.202 174.107 287.366 173.135 287.29 172.166C287.215 171.196 286.903 170.261 286.382 169.44L286.411 169.469Z" fill="#37474F"/>
<path d="M266.077 165.563C265.789 166.143 265.663 166.79 265.713 167.435C265.762 168.081 265.986 168.7 266.36 169.229C266.734 169.758 267.244 170.175 267.836 170.438C268.428 170.7 269.08 170.797 269.723 170.719C271.331 170.634 272.882 170.097 274.197 169.17C275.513 168.242 276.539 166.962 277.159 165.477C277.446 164.899 277.572 164.253 277.522 163.609C277.473 162.966 277.251 162.347 276.879 161.819C276.507 161.291 275.999 160.873 275.409 160.609C274.819 160.346 274.169 160.246 273.527 160.321C271.92 160.415 270.371 160.956 269.055 161.882C267.739 162.808 266.707 164.083 266.077 165.563Z" fill="#455A64"/>
<path d="M275.905 177.271C275.306 176.409 274.513 175.699 273.589 175.199C272.666 174.698 271.638 174.422 270.588 174.391C270.188 174.356 269.788 174.438 269.434 174.627C269.081 174.817 268.791 175.105 268.599 175.456L254.447 209.603C254.343 209.934 254.318 210.285 254.373 210.627C254.428 210.97 254.562 211.295 254.764 211.576C255.364 212.441 256.16 213.153 257.086 213.653C258.012 214.154 259.044 214.429 260.097 214.457C260.496 214.493 260.898 214.412 261.251 214.223C261.605 214.033 261.895 213.744 262.085 213.391L276.208 179.359C276.342 179.015 276.384 178.641 276.331 178.275C276.278 177.91 276.131 177.564 275.905 177.271Z" fill="#455A64"/>
<path d="M292.752 260.903C292.752 260.419 292.699 259.936 292.593 259.463C291.38 253.939 288.121 249.077 283.471 245.854H264.377C259.722 249.076 256.458 253.937 255.24 259.463C255.139 259.936 255.09 260.42 255.096 260.903C255.091 260.99 255.091 261.076 255.096 261.163C255.269 263.798 257.085 266.405 260.572 268.364C267.936 272.684 279.854 272.684 287.218 268.364C290.705 266.347 292.521 263.741 292.694 261.163C292.718 261.077 292.738 260.991 292.752 260.903Z" fill="#455A64"/>
<path d="M273.917 258.112C280.984 258.112 286.713 254.804 286.713 250.724C286.713 246.644 280.984 243.336 273.917 243.336C266.849 243.336 261.12 246.644 261.12 250.724C261.12 254.804 266.849 258.112 273.917 258.112Z" fill="#37474F"/>
<path d="M270.89 248.966C270.522 249.088 270.202 249.322 269.975 249.637C269.748 249.951 269.626 250.328 269.626 250.716C269.626 251.103 269.748 251.481 269.975 251.795C270.202 252.109 270.522 252.344 270.89 252.466C271.831 252.941 272.87 253.189 273.924 253.189C274.978 253.189 276.017 252.941 276.957 252.466C277.325 252.344 277.645 252.109 277.872 251.795C278.099 251.481 278.221 251.103 278.221 250.716C278.221 250.328 278.099 249.951 277.872 249.637C277.645 249.322 277.325 249.088 276.957 248.966C276.017 248.49 274.978 248.242 273.924 248.242C272.87 248.242 271.831 248.49 270.89 248.966Z" fill="#455A64"/>
<path d="M253.367 215.579C252.999 215.701 252.678 215.936 252.451 216.25C252.224 216.564 252.102 216.942 252.102 217.329C252.102 217.716 252.224 218.094 252.451 218.408C252.678 218.722 252.999 218.957 253.367 219.079C254.307 219.555 255.346 219.803 256.4 219.803C257.454 219.803 258.493 219.555 259.434 219.079C259.802 218.957 260.122 218.722 260.349 218.408C260.576 218.094 260.698 217.716 260.698 217.329C260.698 216.942 260.576 216.564 260.349 216.25C260.122 215.936 259.802 215.701 259.434 215.579C258.493 215.103 257.454 214.855 256.4 214.855C255.346 214.855 254.307 215.103 253.367 215.579Z" fill="#AF8B65"/>
<path opacity="0.3" d="M253.367 215.579C252.999 215.701 252.678 215.936 252.451 216.25C252.224 216.564 252.102 216.942 252.102 217.329C252.102 217.716 252.224 218.094 252.451 218.408C252.678 218.722 252.999 218.957 253.367 219.079C254.307 219.555 255.346 219.803 256.4 219.803C257.454 219.803 258.493 219.555 259.434 219.079C259.802 218.957 260.122 218.722 260.349 218.408C260.576 218.094 260.698 217.716 260.698 217.329C260.698 216.942 260.576 216.564 260.349 216.25C260.122 215.936 259.802 215.701 259.434 215.579C258.493 215.103 257.454 214.855 256.4 214.855C255.346 214.855 254.307 215.103 253.367 215.579Z" fill="black"/>
<path d="M260.529 216.633L278.038 250.016L269.81 251.428L252.271 218.001L260.529 216.633Z" fill="#455A64"/>
<path d="M254.347 206.913C253.804 206.78 253.235 206.807 252.708 206.991C252.181 207.175 251.719 207.509 251.378 207.95C250.389 209.062 249.677 210.392 249.299 211.831C248.921 213.269 248.888 214.777 249.202 216.231C249.289 216.709 249.487 217.16 249.78 217.547C250.072 217.935 250.452 218.249 250.888 218.463L257.43 220.912L260.687 209.246L254.347 206.913Z" fill="#37474F"/>
<path d="M257.834 210.369C256.842 211.482 256.126 212.814 255.746 214.255C255.365 215.697 255.33 217.207 255.643 218.665C256.364 221.3 258.526 221.862 260.428 219.918C261.42 218.807 262.135 217.479 262.516 216.04C262.897 214.6 262.932 213.092 262.618 211.637C261.912 209.001 259.751 208.439 257.834 210.369Z" fill="#263238"/>
<path d="M224.934 239.301C231.015 233.108 234.574 217.626 228.652 212.715H198.504C192.581 217.626 196.141 233.093 202.222 239.301L202.38 239.474L202.597 239.675C202.769 239.849 202.952 240.013 203.144 240.165L203.288 240.28L203.75 240.626C203.999 240.809 204.259 240.977 204.528 241.13C207.335 242.55 210.438 243.29 213.585 243.29C216.732 243.29 219.834 242.55 222.642 241.13C222.902 240.986 223.161 240.813 223.435 240.626L223.853 240.294L224.04 240.165L224.559 239.69L224.804 239.445L224.934 239.301Z" fill="#AF8B65"/>
<path opacity="0.7" d="M224.934 239.301C231.015 233.108 234.574 217.626 228.652 212.715H198.504C192.581 217.626 196.141 233.093 202.222 239.301L202.38 239.474L202.597 239.675C202.769 239.849 202.952 240.013 203.144 240.165L203.288 240.28L203.75 240.626C203.999 240.809 204.259 240.977 204.528 241.13C207.335 242.55 210.438 243.29 213.585 243.29C216.732 243.29 219.834 242.55 222.642 241.13C222.902 240.986 223.161 240.813 223.435 240.626L223.853 240.294L224.04 240.165L224.559 239.69L224.804 239.445L224.934 239.301Z" fill="white"/>
<path d="M213.564 228.097C223.298 228.097 231.188 223.545 231.188 217.929C231.188 212.314 223.298 207.762 213.564 207.762C203.83 207.762 195.939 212.314 195.939 217.929C195.939 223.545 203.83 228.097 213.564 228.097Z" fill="#AF8B65"/>
<path opacity="0.9" d="M213.564 228.097C223.298 228.097 231.188 223.545 231.188 217.929C231.188 212.314 223.298 207.762 213.564 207.762C203.83 207.762 195.939 212.314 195.939 217.929C195.939 223.545 203.83 228.097 213.564 228.097Z" fill="white"/>
<path d="M205.984 213.551C201.805 215.97 201.805 219.888 205.984 222.307C208.337 223.494 210.936 224.112 213.571 224.112C216.207 224.112 218.805 223.494 221.158 222.307C225.338 219.888 225.338 215.97 221.158 213.551C218.807 212.358 216.208 211.736 213.571 211.736C210.934 211.736 208.335 212.358 205.984 213.551Z" fill="#AF8B65"/>
<path opacity="0.7" d="M205.984 213.551C201.805 215.97 201.805 219.888 205.984 222.307C208.337 223.494 210.936 224.112 213.571 224.112C216.207 224.112 218.805 223.494 221.158 222.307C225.338 219.888 225.338 215.97 221.158 213.551C218.807 212.358 216.208 211.736 213.571 211.736C210.934 211.736 208.335 212.358 205.984 213.551Z" fill="white"/>
<path d="M221.158 217.697C218.805 216.511 216.206 215.893 213.571 215.893C210.935 215.893 208.337 216.511 205.984 217.697C204.975 218.254 204.116 219.044 203.476 220.001C204.116 220.958 204.975 221.749 205.984 222.305C208.337 223.492 210.935 224.11 213.571 224.11C216.206 224.11 218.805 223.492 221.158 222.305C222.166 221.749 223.026 220.958 223.666 220.001C223.026 219.044 222.166 218.254 221.158 217.697Z" fill="#AF8B65"/>
<path opacity="0.3" d="M221.158 217.697C218.805 216.511 216.206 215.893 213.571 215.893C210.935 215.893 208.337 216.511 205.984 217.697C204.975 218.254 204.116 219.044 203.476 220.001C204.116 220.958 204.975 221.749 205.984 222.305C208.337 223.492 210.935 224.11 213.571 224.11C216.206 224.11 218.805 223.492 221.158 222.305C222.166 221.749 223.026 220.958 223.666 220.001C223.026 219.044 222.166 218.254 221.158 217.697Z" fill="black"/>
<path d="M216.302 220.952C220.669 218.225 223.966 214.081 225.64 209.214C228.421 201.092 226.778 191.27 224.285 187.208C220.913 181.707 212.757 182.326 215.163 191.529C217.57 200.732 219.068 210.683 215.25 217.337L216.302 220.952Z" fill="#37474F"/>
<path d="M216.59 219.283C216.501 219.283 216.414 219.252 216.345 219.196C216.31 219.161 216.282 219.12 216.262 219.074C216.243 219.029 216.233 218.979 216.233 218.93C216.233 218.88 216.243 218.831 216.262 218.785C216.282 218.74 216.31 218.698 216.345 218.663C218.782 215.971 220.646 212.813 221.825 209.379C223.004 205.945 223.473 202.308 223.204 198.688C222.786 192.02 220.322 187.167 219.386 186.432C219.318 186.36 219.28 186.265 219.28 186.166C219.28 186.067 219.318 185.971 219.386 185.899C219.455 185.832 219.548 185.795 219.645 185.795C219.742 185.795 219.835 185.832 219.904 185.899C221.144 186.965 223.565 192.15 223.968 198.659C224.247 202.381 223.766 206.12 222.554 209.651C221.343 213.181 219.426 216.429 216.921 219.196C216.878 219.238 216.825 219.268 216.767 219.283C216.709 219.299 216.648 219.298 216.59 219.283Z" fill="white"/>
<path d="M209.269 220.951C209.036 220.148 208.525 219.454 207.828 218.993C206.967 218.513 206.059 218.122 205.119 217.826C203.49 217.236 201.415 216.386 201.199 214.427C201.148 213.726 201.236 213.021 201.458 212.353C201.86 211.448 201.956 210.437 201.732 209.473C201.372 208.609 200.45 208.148 199.657 207.63C198.783 207.113 198.039 206.404 197.481 205.556C197.011 204.802 196.784 203.922 196.832 203.035C196.991 201.221 198.735 200.025 198.792 198.225C198.864 195.59 192.697 192.018 195.982 189.584C200.19 186.401 206.776 190.088 208.664 192.796C210.552 195.503 210.552 196.713 213.996 199.003C216.878 200.904 220.221 201.293 220.221 205.037C220.221 208.782 215.422 208.955 219.198 213.203C221.475 215.752 217.757 217.956 216.316 220.98C213.967 220.951 211.589 220.836 209.269 220.951Z" fill="#455A64"/>
<path d="M213.074 221.285C213.025 221.283 212.976 221.272 212.932 221.251C212.887 221.23 212.847 221.201 212.813 221.165C212.78 221.129 212.754 221.087 212.737 221.041C212.72 220.994 212.712 220.945 212.714 220.896C213.55 199.135 202.468 191.502 200.248 190.897C200.158 190.866 200.082 190.802 200.037 190.717C199.993 190.632 199.982 190.534 200.008 190.441C200.034 190.349 200.094 190.27 200.176 190.221C200.259 190.172 200.357 190.156 200.45 190.177C204.197 191.199 214.241 200.388 213.42 220.925C213.417 221.017 213.38 221.104 213.316 221.171C213.252 221.237 213.166 221.278 213.074 221.285Z" fill="white"/>
<path d="M211.316 205.815C211.227 205.816 211.14 205.785 211.071 205.729C207.857 202.849 201.574 202.964 201.502 202.964C201.405 202.964 201.312 202.927 201.242 202.859C201.172 202.792 201.131 202.701 201.127 202.604C201.127 202.506 201.164 202.411 201.231 202.339C201.298 202.266 201.389 202.222 201.487 202.215C201.761 202.215 208.131 202.143 211.575 205.095C211.629 205.146 211.667 205.212 211.684 205.284C211.701 205.356 211.696 205.432 211.67 205.502C211.644 205.571 211.597 205.631 211.537 205.674C211.476 205.717 211.404 205.741 211.33 205.743L211.316 205.815Z" fill="white"/>
<path d="M467.354 146.036L472.773 80.3063C472.829 79.2425 472.609 78.1821 472.134 77.2282C471.66 76.2744 470.946 75.4594 470.063 74.8624C469.087 74.3905 468.014 74.155 466.93 74.175C465.845 74.195 464.781 74.47 463.823 74.9776L391.769 116.541C390.816 117.158 390.008 117.972 389.399 118.929C388.789 119.886 388.393 120.963 388.238 122.086L382.82 187.816C382.763 188.88 382.983 189.941 383.458 190.894C383.933 191.848 384.646 192.663 385.529 193.26C386.505 193.732 387.579 193.968 388.663 193.948C389.747 193.928 390.811 193.653 391.769 193.145L463.823 151.581C464.775 150.963 465.582 150.149 466.191 149.192C466.8 148.235 467.197 147.159 467.354 146.036Z" fill="#AF8B65"/>
<path opacity="0.8" d="M467.354 146.036L472.773 80.3063C472.829 79.2425 472.609 78.1821 472.134 77.2282C471.66 76.2744 470.946 75.4594 470.063 74.8624C469.087 74.3905 468.014 74.155 466.93 74.175C465.845 74.195 464.781 74.47 463.823 74.9776L391.769 116.541C390.816 117.158 390.008 117.972 389.399 118.929C388.789 119.886 388.393 120.963 388.238 122.086L382.82 187.816C382.763 188.88 382.983 189.941 383.458 190.894C383.933 191.848 384.646 192.663 385.529 193.26C386.505 193.732 387.579 193.968 388.663 193.948C389.747 193.928 390.811 193.653 391.769 193.145L463.823 151.581C464.775 150.963 465.582 150.149 466.191 149.192C466.8 148.235 467.197 147.159 467.354 146.036Z" fill="white"/>
<path d="M467.354 146.036L472.773 80.3063C472.829 79.2425 472.609 78.1821 472.134 77.2282C471.66 76.2744 470.946 75.4594 470.063 74.8624C469.087 74.3905 468.014 74.155 466.93 74.175C465.845 74.195 464.781 74.47 463.823 74.9776L391.769 116.541C390.812 117.135 390.007 117.943 389.42 118.903L400.617 125.355V188.004L463.78 151.552C464.737 150.944 465.552 150.136 466.169 149.184C466.786 148.232 467.19 147.159 467.354 146.036Z" fill="#AF8B65"/>
<path opacity="0.9" d="M467.354 146.036L472.773 80.3063C472.829 79.2425 472.609 78.1821 472.134 77.2282C471.66 76.2744 470.946 75.4594 470.063 74.8624C469.087 74.3905 468.014 74.155 466.93 74.175C465.845 74.195 464.781 74.47 463.823 74.9776L391.769 116.541C390.812 117.135 390.007 117.943 389.42 118.903L400.617 125.355V188.004L463.78 151.552C464.737 150.944 465.552 150.136 466.169 149.184C466.786 148.232 467.19 147.159 467.354 146.036Z" fill="white"/>
<path d="M388.901 191.3L394.319 125.57C394.476 124.447 394.871 123.37 395.478 122.411C396.084 121.453 396.888 120.634 397.835 120.011L469.89 78.4611C471.677 77.4386 472.974 78.2595 472.772 80.3045L467.354 146.035C467.198 147.156 466.804 148.232 466.197 149.188C465.591 150.145 464.786 150.96 463.837 151.579L391.783 193.143C390.025 194.166 388.728 193.345 388.901 191.3Z" fill="#AF8B65"/>
<path opacity="0.7" d="M388.901 191.3L394.319 125.57C394.476 124.447 394.871 123.37 395.478 122.411C396.084 121.453 396.888 120.634 397.835 120.011L469.89 78.4611C471.677 77.4386 472.974 78.2595 472.772 80.3045L467.354 146.035C467.198 147.156 466.804 148.232 466.197 149.188C465.591 150.145 464.786 150.96 463.837 151.579L391.783 193.143C390.025 194.166 388.728 193.345 388.901 191.3Z" fill="white"/>
<path d="M426.067 138.56C426.263 136.793 426.835 135.088 427.745 133.561C428.654 132.033 429.881 130.718 431.341 129.703C433.979 128.176 435.881 129.703 435.665 133.044C435.467 134.811 434.894 136.514 433.985 138.042C433.075 139.569 431.85 140.885 430.39 141.901C427.638 143.356 425.793 141.916 426.067 138.56Z" fill="#AF8B65"/>
<path opacity="0.4" d="M426.067 138.56C426.263 136.793 426.835 135.088 427.745 133.561C428.654 132.033 429.881 130.718 431.341 129.703C433.979 128.176 435.881 129.703 435.665 133.044C435.467 134.811 434.894 136.514 433.985 138.042C433.075 139.569 431.85 140.885 430.39 141.901C427.638 143.356 425.793 141.916 426.067 138.56Z" fill="white"/>
<path d="M424.799 160.179L448.937 146.252L445.925 144.51L421.787 158.436L424.799 160.179Z" fill="#AF8B65"/>
<path opacity="0.9" d="M424.799 160.179L448.937 146.252L445.925 144.51L421.787 158.436L424.799 160.179Z" fill="white"/>
<path d="M453.678 178.322L432.062 190.765C431.62 191.003 431.121 191.112 430.621 191.082C430.215 191.064 429.817 190.961 429.453 190.779L419.957 185.307C419.596 185.058 419.297 184.73 419.082 184.348C418.867 183.966 418.743 183.54 418.717 183.103V182.599C418.717 181.778 419.294 181.433 420 181.85L425.764 185.148L427.047 185.897L426.759 184.457L421.772 158.534L424.784 160.276L448.937 146.234L454.701 176.104C454.769 176.533 454.707 176.973 454.525 177.367C454.343 177.762 454.049 178.094 453.678 178.322Z" fill="#AF8B65"/>
<path opacity="0.7" d="M453.678 178.322L432.062 190.765C431.62 191.003 431.121 191.112 430.621 191.082C430.215 191.064 429.817 190.961 429.453 190.779L419.957 185.307C419.596 185.058 419.297 184.73 419.082 184.348C418.867 183.966 418.743 183.54 418.717 183.103V182.599C418.717 181.778 419.294 181.433 420 181.85L425.764 185.148L427.047 185.897L426.759 184.457L421.772 158.534L424.784 160.276L448.937 146.234L454.701 176.104C454.769 176.533 454.707 176.973 454.525 177.367C454.343 177.762 454.049 178.094 453.678 178.322Z" fill="white"/>
<path d="M419.164 181.71L426.513 177.461L428.012 187.355L419.164 181.71Z" fill="#AF8B65"/>
<path opacity="0.7" d="M419.164 181.71L426.513 177.461L428.012 187.355L419.164 181.71Z" fill="white"/>
<path d="M424.755 160.174L421.744 158.432L426.73 184.355C426.903 185.147 426.442 185.478 425.735 185.061L419.971 181.763C419.265 181.345 418.688 181.763 418.688 182.512V183.016C418.714 183.453 418.839 183.879 419.053 184.261C419.268 184.642 419.567 184.97 419.928 185.219L429.425 190.692C429.788 190.874 430.186 190.977 430.592 190.994L424.755 160.174Z" fill="#AF8B65"/>
<path opacity="0.8" d="M424.755 160.174L421.744 158.432L426.73 184.355C426.903 185.147 426.442 185.478 425.735 185.061L419.971 181.763C419.265 181.345 418.688 181.763 418.688 182.512V183.016C418.714 183.453 418.839 183.879 419.053 184.261C419.268 184.642 419.567 184.97 419.928 185.219L429.425 190.692C429.788 190.874 430.186 190.977 430.592 190.994L424.755 160.174Z" fill="white"/>
<path d="M346.936 195.003C351.36 194.672 352.787 193.044 353.508 191.086C354.228 189.127 354.487 186.981 352.773 182.445C351.058 177.908 341.244 171.96 331.055 174.135C320.867 176.309 319.455 184.086 320.002 186.175C320.55 188.263 326.674 193.563 334.615 194.47C338.699 195.003 342.821 195.181 346.936 195.003Z" fill="#AF8B65"/>
<path opacity="0.7" d="M346.936 195.003C351.36 194.672 352.787 193.044 353.508 191.086C354.228 189.127 354.487 186.981 352.773 182.445C351.058 177.908 341.244 171.96 331.055 174.135C320.867 176.309 319.455 184.086 320.002 186.175C320.55 188.263 326.674 193.563 334.615 194.47C338.699 195.003 342.821 195.181 346.936 195.003Z" fill="white"/>
<path d="M341.763 180.802C342.348 180.341 343.071 180.09 343.817 180.09C344.562 180.09 345.285 180.341 345.87 180.802C347.218 181.565 348.296 182.728 348.954 184.129C349.401 185.296 349.185 186.333 348.68 186.333C348.176 186.333 347.801 185.267 345.87 183.654C343.939 182.041 341.331 181.407 341.763 180.802Z" fill="#AF8B65"/>
<path opacity="0.9" d="M341.763 180.802C342.348 180.341 343.071 180.09 343.817 180.09C344.562 180.09 345.285 180.341 345.87 180.802C347.218 181.565 348.296 182.728 348.954 184.129C349.401 185.296 349.185 186.333 348.68 186.333C348.176 186.333 347.801 185.267 345.87 183.654C343.939 182.041 341.331 181.407 341.763 180.802Z" fill="white"/>
<path d="M279.522 72.2402C274.767 75.4375 269.132 79.2252 269.91 91.6972C270.689 104.169 279.998 138.575 280.632 142.766C281.266 146.957 306.572 167.249 311.226 171.253C316.573 175.905 318.59 176.884 321.011 179.549C323.432 182.213 325.709 189.011 328.217 191.963C332.151 196.528 340.625 196.629 344.53 196.096C348.435 195.564 345.971 190.825 344.53 187.455C343.089 184.085 339.227 179.491 340.322 178.699C341.071 178.166 345.15 178.886 348.306 181.579C350.741 183.653 351.029 185.684 352.398 186.634C354.69 188.247 355.453 185.396 353.09 180.874C350.727 176.351 347.124 173.111 343.565 171.988C345.135 172.111 346.707 171.76 348.075 170.98C350.035 169.77 350.727 167.033 348.306 167.754C346.865 168.171 345.424 167.754 342.541 167.754C333.491 167.754 330.768 171.037 320.291 160.927C309.814 150.817 295.792 137.063 295.792 137.063C295.792 137.063 291.08 108.403 288.962 95.7153C287.16 84.7843 286.411 77.6265 279.522 72.2402Z" fill="#EEC1BB"/>
<path d="M363.638 100.426L381.522 62.5781L391.61 66.7403C391.61 66.7403 376.781 111.588 374.648 116.456C373.395 119.336 369.374 122.836 363.552 119.998C362.284 119.379 359.762 117.896 356.635 115.951" fill="#EEC1BB"/>
<path d="M387.82 78.0161C389.06 74.3148 392.994 70.3687 393.585 68.7989C394.109 67.5591 394.284 66.1992 394.089 64.8672L389.492 65.3281L387.82 78.0161Z" fill="#EEC1BB"/>
<path d="M378.338 69.1862C379.087 67.4723 379.217 61.4668 378.338 58.0103C377.459 54.5539 379.577 50.2333 379.044 47.7994C378.511 45.3655 380.067 44.631 381.479 45.5095C382.344 46.058 383.06 46.8119 383.563 47.7039C384.066 48.596 384.34 49.5985 384.361 50.6221C384.434 53.1425 384.592 59.5513 383.569 62.6765C382.546 65.8017 378.338 69.1862 378.338 69.1862Z" fill="#EEC1BB"/>
<path d="M380.716 63.2969C380.989 64.0746 382.027 65.1547 385.385 64.5786L391.567 66.7389L394.089 66.5949C392.741 67.548 391.091 67.9773 389.449 67.8023C387.807 67.6274 386.285 66.8601 385.169 65.6444C385.169 65.6444 380.629 66.2061 380.716 63.2969Z" fill="#EEC1BB"/>
<path d="M398.008 60.7644C394.132 63.7888 394.679 67.7205 399.248 69.5639C401.78 70.4334 404.482 70.6936 407.133 70.3232C409.785 69.9528 412.312 68.9624 414.509 67.4325C418.385 64.4081 417.823 60.462 413.269 58.6185C410.736 57.7546 408.034 57.4986 405.383 57.8714C402.731 58.2442 400.205 59.2352 398.008 60.7644Z" fill="#AF8B65"/>
<path opacity="0.7" d="M398.008 60.7644C394.132 63.7888 394.679 67.7205 399.248 69.5639C401.78 70.4334 404.482 70.6936 407.133 70.3232C409.785 69.9528 412.312 68.9624 414.509 67.4325C418.385 64.4081 417.823 60.462 413.269 58.6185C410.736 57.7546 408.034 57.4986 405.383 57.8714C402.731 58.2442 400.205 59.2352 398.008 60.7644Z" fill="white"/>
<path d="M417.204 38.6816L402.98 40.6691L388.728 42.6566C389.045 51.8738 392.172 62.1999 396.251 67.4566L416.772 64.5762C419.265 58.3834 419.423 47.6252 417.204 38.6816Z" fill="#AF8B65"/>
<path opacity="0.7" d="M417.204 38.6816L402.98 40.6691L388.728 42.6566C389.045 51.8738 392.172 62.1999 396.251 67.4566L416.772 64.5762C419.265 58.3834 419.423 47.6252 417.204 38.6816Z" fill="white"/>
<path d="M392.389 38.3486C387.172 41.5314 387.72 45.4487 393.614 47.0761C400.466 48.5755 407.63 47.5528 413.789 44.1957C419.006 40.9985 418.458 37.0956 412.564 35.4538C405.709 33.96 398.546 34.9879 392.389 38.3486Z" fill="#AF8B65"/>
<path opacity="0.9" d="M392.389 38.3486C387.172 41.5314 387.72 45.4487 393.614 47.0761C400.466 48.5755 407.63 47.5528 413.789 44.1957C419.006 40.9985 418.458 37.0956 412.564 35.4538C405.709 33.96 398.546 34.9879 392.389 38.3486Z" fill="white"/>
<path d="M394.493 39.6646C390.169 41.8681 390.587 44.4172 395.285 45.4254C400.805 46.2605 406.449 45.4697 411.526 43.1499C415.778 40.9464 415.432 38.3972 410.719 37.3891C405.204 36.5552 399.565 37.3459 394.493 39.6646Z" fill="#AF8B65"/>
<path opacity="0.4" d="M394.493 39.6646C390.169 41.8681 390.587 44.4172 395.285 45.4254C400.805 46.2605 406.449 45.4697 411.526 43.1499C415.778 40.9464 415.432 38.3972 410.719 37.3891C405.204 36.5552 399.565 37.3459 394.493 39.6646Z" fill="white"/>
<path d="M395.026 43.0325C394.262 43.4072 393.558 43.8925 392.937 44.4726C393.694 44.8603 394.505 45.1322 395.343 45.2791C400.863 46.1143 406.507 45.3235 411.584 43.0037C412.351 42.6349 413.056 42.149 413.674 41.5635C412.916 41.1758 412.105 40.9039 411.267 40.757C405.747 39.9219 400.103 40.7126 395.026 43.0325Z" fill="#AF8B65"/>
<path opacity="0.3" d="M395.026 43.0325C394.262 43.4072 393.558 43.8925 392.937 44.4726C393.694 44.8603 394.505 45.1322 395.343 45.2791C400.863 46.1143 406.507 45.3235 411.584 43.0037C412.351 42.6349 413.056 42.149 413.674 41.5635C412.916 41.1758 412.105 40.9039 411.267 40.757C405.747 39.9219 400.103 40.7126 395.026 43.0325Z" fill="black"/>
<path d="M391.999 67.0235C390.803 67.2008 389.584 67.142 388.411 66.8507C386.797 66.4186 385.269 64.8632 383.756 62.0837C382.488 59.7506 380.312 54.5659 381.234 51.6999C382.416 48.0562 386.638 47.5378 389.448 47.1921L390.414 47.0625L391.034 51.4839L389.996 51.6135C388.411 51.8007 385.774 52.132 385.471 53.0537C385.067 54.8395 388.094 61.7956 389.636 62.5589C391.026 62.7518 392.443 62.5209 393.7 61.8964L395.717 65.8713C394.546 66.4476 393.291 66.8364 391.999 67.0235Z" fill="#AF8B65"/>
<path opacity="0.7" d="M391.999 67.0235C390.803 67.2008 389.584 67.142 388.411 66.8507C386.797 66.4186 385.269 64.8632 383.756 62.0837C382.488 59.7506 380.312 54.5659 381.234 51.6999C382.416 48.0562 386.638 47.5378 389.448 47.1921L390.414 47.0625L391.034 51.4839L389.996 51.6135C388.411 51.8007 385.774 52.132 385.471 53.0537C385.067 54.8395 388.094 61.7956 389.636 62.5589C391.026 62.7518 392.443 62.5209 393.7 61.8964L395.717 65.8713C394.546 66.4476 393.291 66.8364 391.999 67.0235Z" fill="white"/>
<path d="M386.711 53.0703C383.958 53.0703 375.874 56.2819 375.701 59.1911C375.528 62.1003 381.018 61.8843 381.018 61.8843C380.759 62.3165 380.66 62.8261 380.74 63.3238C380.819 63.8214 381.07 64.2755 381.451 64.6062C382.82 65.7872 393.196 62.1867 393.196 62.1867C392.833 60.9984 392.283 59.8753 391.567 58.8599C391.05 58.2032 390.293 57.7785 389.463 57.6789C389.463 57.6789 390.803 53.0703 386.711 53.0703Z" fill="#EEC1BB"/>
<path d="M180.794 194.894L168.717 187.938L180.794 184.453V194.894Z" fill="#E0E0E0"/>
<g style="mix-blend-mode:multiply" opacity="0.5">
<path d="M180.794 184.455V194.896L168.717 187.94" fill="#E0E0E0"/>
</g>
<path d="M108.364 226.252V237.342L41.9878 199.047V187.943L108.364 226.252Z" fill="#E0E0E0"/>
<g style="mix-blend-mode:multiply" opacity="0.5">
<path d="M108.364 226.252V237.342L41.9878 199.047V187.943L108.364 226.252Z" fill="#E0E0E0"/>
</g>
<path d="M35.9497 100.883L102.341 139.192V229.722L35.9497 191.427V100.883Z" fill="#E0E0E0"/>
<path d="M102.34 139.191L192.855 86.9551V177.485L102.34 229.721V139.191Z" fill="#EBEBEB"/>
<path d="M192.856 86.9574L126.479 48.6484L35.9497 100.884L102.341 139.193L192.856 86.9574Z" fill="#F5F5F5"/>
<path d="M108.364 142.676L186.832 97.3965V118.294L108.364 163.559V142.676Z" fill="#E0E0E0"/>
<g style="mix-blend-mode:multiply" opacity="0.5">
<path d="M138.54 126.995C138.54 127.96 141.422 127.082 144.982 125.037L156.251 118.527C159.811 116.482 162.679 114.034 162.679 113.069V111.326L138.526 125.267L138.54 126.995Z" fill="#E0E0E0"/>
</g>
<path d="M108.364 170.533L186.832 125.268V146.15L108.364 191.43V170.533Z" fill="#E0E0E0"/>
<g style="mix-blend-mode:multiply" opacity="0.5">
<path d="M138.541 154.876C138.541 155.841 141.423 154.876 144.982 152.903L156.252 146.394C159.811 144.349 162.679 141.9 162.679 140.95V139.207L138.526 153.134L138.541 154.876Z" fill="#E0E0E0"/>
</g>
<path d="M108.364 198.382L186.832 153.117V174.014L108.364 219.279V198.382Z" fill="#E0E0E0"/>
<g style="mix-blend-mode:multiply" opacity="0.5">
<path d="M138.541 182.712C138.541 183.677 141.423 182.799 144.982 180.739L156.252 174.244C159.811 172.184 162.679 169.751 162.679 168.786V167.043L138.526 180.97L138.541 182.712Z" fill="#E0E0E0"/>
</g>
<path d="M108.365 237.34L114.403 233.869V222.766L108.365 226.251V237.34Z" fill="#E0E0E0"/>
<path d="M180.793 194.897L186.832 191.426V180.971L180.793 184.456V194.897Z" fill="#E0E0E0"/>
<path d="M74.758 104.657C80.8394 98.4497 84.4133 83.0541 78.476 78.0566H48.314C42.3911 82.9821 45.9506 98.4497 52.032 104.642L52.1905 104.815L52.4067 105.017C52.5791 105.191 52.762 105.355 52.9543 105.507L53.0984 105.622L53.5596 105.967C53.8089 106.151 54.0687 106.319 54.3378 106.472C57.1455 107.891 60.2482 108.631 63.395 108.631C66.5418 108.631 69.6445 107.891 72.4523 106.472C72.726 106.319 72.9907 106.151 73.2449 105.967L73.6628 105.651L73.8501 105.507L74.3833 105.031L74.6139 104.801L74.758 104.657Z" fill="#EBEBEB"/>
<path d="M50.9368 76.0799C44.0484 80.0548 44.0484 86.4924 50.9368 90.4818C57.8252 94.4711 68.9793 94.4567 75.8533 90.4818C82.7272 86.5069 82.7417 80.0836 75.8533 76.0799C68.9648 72.0762 57.8108 72.105 50.9368 76.0799Z" fill="#F5F5F5"/>
<path d="M55.8365 78.8921C51.6574 81.3116 51.6574 85.229 55.8365 87.6485C58.1876 88.8414 60.7871 89.4631 63.4239 89.4631C66.0606 89.4631 68.6601 88.8414 71.0112 87.6485C75.1903 85.229 75.1903 81.3116 71.0112 78.8921C68.6581 77.7059 66.0594 77.0879 63.4239 77.0879C60.7883 77.0879 58.1896 77.7059 55.8365 78.8921Z" fill="#E0E0E0"/>
<path d="M70.9825 83.0568C68.6314 81.8639 66.0319 81.2422 63.3951 81.2422C60.7584 81.2422 58.1589 81.8639 55.8078 83.0568C54.7963 83.6025 53.935 84.389 53.3003 85.3467C53.9341 86.309 54.7953 87.1004 55.8078 87.651C58.1589 88.844 60.7584 89.4657 63.3951 89.4657C66.0319 89.4657 68.6314 88.844 70.9825 87.651C71.995 87.1004 72.8562 86.309 73.49 85.3467C72.8553 84.389 71.994 83.6025 70.9825 83.0568Z" fill="#E0E0E0"/>
<g style="mix-blend-mode:multiply" opacity="0.5">
<path d="M70.9825 83.049C68.6314 81.8561 66.0319 81.2344 63.3951 81.2344C60.7584 81.2344 58.1589 81.8561 55.8078 83.049C54.7963 83.5946 53.935 84.3812 53.3003 85.3389C53.9341 86.3012 54.7953 87.0926 55.8078 87.6432C58.1589 88.8362 60.7584 89.4579 63.3951 89.4579C66.0319 89.4579 68.6314 88.8362 70.9825 87.6432C71.995 87.0926 72.8562 86.3012 73.49 85.3389C72.8553 84.3812 71.994 83.5946 70.9825 83.049Z" fill="#E0E0E0"/>
</g>
<path d="M56.7446 85.3428C54.5983 83.1686 52.7518 80.7178 51.2541 78.0555C48.7178 73.5909 48.2566 67.5853 49.568 66.8508C50.8794 66.1163 56.197 72.0931 56.197 72.0931C55.7124 69.5745 55.5238 67.008 55.635 64.4457C55.8656 60.4564 56.8311 56.8415 57.984 56.107C59.1368 55.3725 61.6732 60.4276 62.7684 64.0568C63.8636 67.6861 64.4833 70.6961 64.4833 70.6961C64.9245 67.8521 65.5797 65.0454 66.4432 62.2998C67.769 58.5265 68.9795 57.6624 69.9162 57.9793C70.8529 58.2961 71.4726 60.1251 71.7464 65.1802C71.8419 67.5829 71.7649 69.9894 71.5158 72.3811C71.5158 72.3811 73.4036 70.3073 75.4788 68.3054C77.7701 66.1019 78.7501 65.7995 79.413 66.2171C80.0759 66.6348 80.2488 70.0624 76.7037 76.4713C74.9365 79.7359 72.6762 82.7088 70.0027 85.2852C70.0027 85.2852 65.1318 88.5112 56.7446 85.3428Z" fill="#EBEBEB"/>
<path d="M135.586 112.114L171.613 91.2312C172.32 90.8279 172.32 90.1654 171.613 89.791L122.126 61.6209C121.726 61.4207 121.284 61.3164 120.837 61.3164C120.389 61.3164 119.947 61.4207 119.547 61.6209L83.8367 82.2588C83.1306 82.6764 83.1306 83.3389 83.8367 83.699L133.007 112.071C133.404 112.278 133.844 112.389 134.291 112.397C134.739 112.404 135.182 112.307 135.586 112.114Z" fill="#E0E0E0"/>
<g style="mix-blend-mode:multiply" opacity="0.5">
<path d="M135.586 112.118L171.614 91.2351C172.32 90.8318 172.32 90.1693 171.614 89.7949L122.127 61.6248C121.726 61.4246 121.285 61.3203 120.837 61.3203C120.389 61.3203 119.948 61.4246 119.547 61.6248L83.837 82.2627C83.1308 82.6804 83.1308 83.3428 83.837 83.7029L133.007 112.075C133.404 112.282 133.844 112.393 134.292 112.401C134.739 112.408 135.183 112.311 135.586 112.118Z" fill="#E0E0E0"/>
</g>
<path d="M83.8082 82.2209L124.418 56.4127C124.812 56.207 125.249 56.0996 125.693 56.0996C126.138 56.0996 126.575 56.207 126.969 56.4127L141.596 64.8522C141.938 65.0596 142.19 65.3876 142.302 65.7715C142.414 66.1554 142.378 66.5674 142.201 66.9261L141.61 68.0782C141.433 68.4369 141.397 68.8489 141.509 69.2328C141.621 69.6167 141.873 69.9447 142.216 70.1521L171.686 87.1895C171.842 87.2508 171.977 87.3578 172.071 87.4965C172.166 87.6353 172.217 87.7993 172.217 87.9672C172.217 88.1352 172.166 88.2992 172.071 88.4379C171.977 88.5767 171.842 88.6836 171.686 88.7449L135.514 112.018C135.126 112.231 134.69 112.343 134.246 112.343C133.803 112.343 133.367 112.231 132.978 112.018L83.8082 83.6467C83.6824 83.5749 83.5778 83.4711 83.5051 83.3459C83.4324 83.2207 83.394 83.0785 83.394 82.9338C83.394 82.789 83.4324 82.6468 83.5051 82.5216C83.5778 82.3964 83.6824 82.2927 83.8082 82.2209Z" fill="#EBEBEB"/>
</svg>
