<svg width="220" height="220" viewBox="0 0 220 220" fill="none" xmlns="http://www.w3.org/2000/svg">
<g clip-path="url(#clip0_118_1929)">
<path d="M28.7828 231.063C73.8852 254.634 147.017 254.634 192.12 231.063C237.222 207.492 237.222 169.249 192.12 145.694C147.017 122.139 73.8852 122.117 28.7828 145.694C-16.3195 169.271 -16.3195 207.486 28.7828 231.063Z" fill="#F5F5F5"/>
<path d="M107.735 206.178L109.814 207.376C110.181 207.562 110.587 207.659 110.998 207.659C111.41 207.659 111.815 207.562 112.183 207.376L167.585 175.386C167.728 175.337 167.852 175.245 167.94 175.122C168.028 175 168.075 174.853 168.075 174.702C168.075 174.551 168.028 174.404 167.94 174.281C167.852 174.159 167.728 174.067 167.585 174.018L165.512 172.82C165.145 172.634 164.739 172.537 164.328 172.537C163.916 172.537 163.511 172.634 163.144 172.82L107.735 204.81C107.592 204.859 107.468 204.951 107.38 205.073C107.292 205.196 107.245 205.343 107.245 205.494C107.245 205.645 107.292 205.792 107.38 205.915C107.468 206.037 107.592 206.129 107.735 206.178Z" fill="#E0E0E0"/>
<path d="M198.006 201.675C191.146 205.346 180.02 205.346 173.16 201.675C166.3 198.004 166.3 192.058 173.16 188.388C180.02 184.717 191.146 184.717 198.006 188.388C204.865 192.058 204.865 198.032 198.006 201.675Z" fill="#E0E0E0"/>
<path d="M193.755 179.706C193.755 179.706 194.389 174.143 197.157 169.827C199.925 165.511 203.722 162.819 207.266 162.54C210.811 162.261 213.678 165.522 209.887 167.759C206.096 169.996 199.351 172.288 196.249 180.669L193.755 179.706Z" fill="#AF8B65"/>
<path opacity="0.1" d="M193.755 179.706C193.755 179.706 194.389 174.143 197.157 169.827C199.925 165.511 203.722 162.819 207.266 162.54C210.811 162.261 213.678 165.522 209.887 167.759C206.096 169.996 199.351 172.288 196.249 180.669L193.755 179.706Z" fill="black"/>
<path d="M194.789 178.261H194.75C194.727 178.252 194.706 178.238 194.688 178.221C194.67 178.204 194.656 178.183 194.646 178.16C194.637 178.137 194.632 178.112 194.632 178.087C194.632 178.062 194.637 178.038 194.646 178.015C198.388 168.797 205.51 164.946 208.754 164.202C208.778 164.197 208.803 164.196 208.828 164.2C208.852 164.204 208.876 164.212 208.897 164.225C208.918 164.238 208.936 164.255 208.951 164.275C208.965 164.295 208.976 164.318 208.981 164.342C208.987 164.366 208.988 164.391 208.984 164.415C208.98 164.44 208.971 164.463 208.959 164.484C208.946 164.505 208.929 164.524 208.909 164.538C208.889 164.553 208.866 164.563 208.842 164.569C205.664 165.302 198.678 169.082 194.997 178.157C194.978 178.195 194.948 178.225 194.91 178.244C194.873 178.263 194.83 178.269 194.789 178.261Z" fill="white"/>
<path d="M213.743 178.37C213.42 179.092 212.649 179.464 211.894 179.765C211.139 180.066 210.363 180.378 209.963 181.067C209.165 182.446 210.477 184.393 209.619 185.739C209.417 186.007 209.164 186.233 208.873 186.401C208.583 186.569 208.261 186.677 207.928 186.718C207.381 186.822 206.834 186.816 206.287 186.866C206.024 186.86 205.761 186.84 205.499 186.806C204.731 186.634 203.928 186.718 203.213 187.046C202.119 187.664 201.774 189.054 201.107 190.121C200.695 190.753 200.15 191.289 199.511 191.69C198.871 192.092 198.152 192.349 197.403 192.445C196.765 192.576 196.104 192.532 195.489 192.32L195.385 192.254C195.315 192.181 195.25 192.104 195.188 192.024V191.991C194.991 191.275 195.308 190.525 195.325 189.803C195.327 189.76 195.327 189.716 195.325 189.672C195.297 188.808 195.27 187.954 195.254 187.095C195.21 185.515 195.193 183.928 195.204 182.347C195.204 181.324 195.09 180.197 195.527 179.229C196.009 178.168 197.207 178.135 197.655 177.101C197.836 176.68 197.934 176.237 198.109 175.816C198.381 175.199 198.817 174.668 199.37 174.282C199.922 173.896 200.571 173.67 201.244 173.628C203.333 173.524 205.204 175.214 207.294 175.061C207.831 174.986 208.364 174.883 208.891 174.755C210.581 174.437 212.54 174.919 213.492 176.352C213.694 176.643 213.822 176.978 213.866 177.33C213.91 177.682 213.868 178.039 213.743 178.37Z" fill="#AF8B65"/>
<path d="M194.969 188.688C194.946 188.682 194.925 188.672 194.906 188.657C194.887 188.643 194.871 188.625 194.86 188.605C194.848 188.585 194.84 188.562 194.838 188.539C194.835 188.515 194.837 188.491 194.843 188.469C197.726 177.638 209.137 176.073 211.801 176.265C211.825 176.266 211.848 176.272 211.869 176.283C211.89 176.293 211.909 176.308 211.924 176.325C211.939 176.343 211.951 176.364 211.958 176.387C211.965 176.409 211.967 176.433 211.965 176.456C211.965 176.479 211.959 176.502 211.949 176.523C211.939 176.544 211.925 176.563 211.908 176.579C211.89 176.594 211.87 176.606 211.848 176.613C211.826 176.62 211.802 176.622 211.779 176.62C209.164 176.434 198.005 177.966 195.182 188.562C195.17 188.606 195.14 188.644 195.101 188.667C195.061 188.69 195.014 188.698 194.969 188.688Z" fill="white"/>
<path d="M207.649 183.202C207.614 183.195 207.582 183.178 207.556 183.152C206.502 182.24 205.259 181.57 203.917 181.192C202.574 180.814 201.165 180.736 199.789 180.964C199.766 180.968 199.742 180.967 199.719 180.962C199.697 180.957 199.675 180.947 199.656 180.933C199.638 180.919 199.622 180.902 199.61 180.882C199.598 180.862 199.59 180.84 199.586 180.817C199.58 180.769 199.593 180.722 199.621 180.684C199.65 180.646 199.692 180.621 199.739 180.614C201.17 180.378 202.635 180.46 204.029 180.855C205.424 181.251 206.714 181.949 207.808 182.901C207.833 182.928 207.849 182.963 207.854 183C207.859 183.037 207.852 183.074 207.835 183.107C207.818 183.14 207.79 183.167 207.757 183.184C207.724 183.201 207.686 183.207 207.649 183.202Z" fill="white"/>
<path d="M118.927 128.224V133.695L24.527 188.184L21.6223 189.825C20.9628 189.377 20.4181 188.78 20.0323 188.083C19.6464 187.385 19.4303 186.607 19.4014 185.81V94.0461C19.4077 93.8822 19.4547 93.7224 19.5381 93.5811C19.6202 93.4365 19.7367 93.3144 19.8773 93.2256L41.3919 80.8026C41.6544 80.6549 43.1861 81.2949 43.4377 81.4481L43.6018 81.5411C43.7441 81.6322 43.8714 81.7448 43.9793 81.8748C44.0998 82.0064 44.1928 82.1607 44.2528 82.3288L46.2002 87.9522L116.22 46.2359C116.364 46.1693 116.52 46.1348 116.679 46.1348C116.838 46.1348 116.995 46.1693 117.139 46.2359L118.441 46.9908C118.579 47.0778 118.694 47.1982 118.774 47.3409C118.86 47.4831 118.907 47.6453 118.911 47.8114V128.224H118.927Z" fill="#263238"/>
<path d="M118.927 133.674L21.6223 189.827V94.7808L43.9793 81.8764C44.0998 82.008 44.1928 82.1624 44.2528 82.3304L46.2002 87.9539L46.5722 89.0206L118.78 47.3262C118.866 47.4684 118.913 47.6306 118.917 47.7966L118.927 133.674Z" fill="#37474F"/>
<path d="M43.9788 81.8768L21.6218 94.7811L19.5376 93.5831C19.6197 93.4386 19.7362 93.3164 19.8768 93.2276L41.3913 80.8046C41.536 80.7302 41.6964 80.6914 41.859 80.6914C42.0217 80.6914 42.1821 80.7302 42.3267 80.8046L43.6013 81.5376C43.744 81.6304 43.8713 81.7448 43.9788 81.8768Z" fill="#455A64"/>
<path d="M118.785 47.3245L46.5773 89.0189L46.2053 87.9522L116.225 46.2359C116.369 46.1693 116.526 46.1348 116.684 46.1348C116.843 46.1348 117 46.1693 117.144 46.2359L118.446 46.9908C118.584 47.0725 118.701 47.1871 118.785 47.3245Z" fill="#455A64"/>
<path d="M51.5171 151.19C51.2168 150.988 50.9686 150.717 50.7927 150.4C50.6169 150.084 50.5183 149.73 50.5051 149.368V58.9667C50.5267 58.5921 50.6372 58.228 50.8275 57.9046C51.0177 57.5811 51.2823 57.3077 51.5992 57.1068L105 26.3091C105.311 26.114 105.669 26.0072 106.036 26.0004C106.403 25.9935 106.764 26.0868 107.082 26.2702C107.4 26.4536 107.662 26.7201 107.84 27.0412C108.017 27.3623 108.104 27.7257 108.091 28.0925V118.494C108.068 118.869 107.957 119.232 107.767 119.556C107.577 119.879 107.313 120.152 106.997 120.354L53.6013 151.152C53.2815 151.322 52.926 151.414 52.5638 151.421C52.2016 151.427 51.8429 151.348 51.5171 151.19Z" fill="#FAFAFA"/>
<path d="M53.601 151.151L107.002 120.354C107.318 120.152 107.582 119.879 107.772 119.555C107.962 119.232 108.073 118.868 108.096 118.494V28.0921C108.096 27.4084 107.614 27.1294 107.002 27.4685L53.5955 58.2716C53.2792 58.4732 53.0151 58.7468 52.825 59.0701C52.6348 59.3934 52.5239 59.7571 52.5015 60.1315V150.533C52.5233 151.217 53.0047 151.496 53.601 151.151Z" fill="#F0F0F0"/>
<path d="M59.449 61.8601L99.7759 38.5786C100.296 38.2777 100.722 38.5184 100.722 39.1256V39.5031C100.704 39.8315 100.608 40.1511 100.444 40.436C100.28 40.721 100.051 40.9635 99.7759 41.1442L59.449 64.4256C58.902 64.7265 58.5027 64.4803 58.5027 63.8786V63.5012C58.5204 63.1725 58.6154 62.8527 58.7798 62.5676C58.9442 62.2824 59.1735 62.0401 59.449 61.8601Z" fill="#E0E0E0"/>
<path d="M59.449 68.2653L99.7759 44.9839C100.296 44.683 100.722 44.9292 100.722 45.5309V45.9084C100.704 46.237 100.61 46.5568 100.445 46.842C100.281 47.1271 100.051 47.3695 99.7759 47.5494L59.449 70.8309C58.902 71.1318 58.5027 70.8856 58.5027 70.2839V69.9064C58.5213 69.578 58.6166 69.2585 58.7809 68.9735C58.9453 68.6885 59.1741 68.446 59.449 68.2653Z" fill="#E0E0E0"/>
<path d="M59.449 74.6736L99.7759 51.3921C100.296 51.0912 100.722 51.3374 100.722 51.9391V52.3166C100.704 52.6452 100.61 52.965 100.445 53.2502C100.281 53.5353 100.051 53.7777 99.7759 53.9576L59.449 77.2391C58.902 77.5454 58.5027 77.2993 58.5027 76.6921V76.3146C58.5213 75.9862 58.6166 75.6667 58.7809 75.3817C58.9453 75.0967 59.1741 74.8542 59.449 74.6736Z" fill="#E0E0E0"/>
<path d="M59.449 81.0777L99.7759 57.8017C100.296 57.4954 100.722 57.7415 100.722 58.3487V58.7262C100.703 59.0545 100.608 59.3739 100.443 59.6588C100.279 59.9437 100.051 60.1863 99.7759 60.3673L59.449 83.6487C58.902 83.9496 58.5027 83.7034 58.5027 83.1017V82.7188C58.5217 82.3904 58.6172 82.0711 58.7815 81.7862C58.9458 81.5012 59.1744 81.2586 59.449 81.0777Z" fill="#E0E0E0"/>
<path d="M59.449 87.489L99.7759 64.2075C100.296 63.9067 100.722 64.1473 100.722 64.7545V65.132C100.704 65.4604 100.608 65.78 100.444 66.0649C100.28 66.3499 100.051 66.5925 99.7759 66.7731L59.449 90.0545C58.902 90.3554 58.5027 90.1092 58.5027 89.5075V89.1301C58.5204 88.8014 58.6154 88.4816 58.7798 88.1965C58.9442 87.9113 59.1735 87.669 59.449 87.489Z" fill="#E0E0E0"/>
<path d="M59.449 93.9445L99.7759 70.663C100.296 70.3567 100.722 70.6029 100.722 71.2101V71.5875C100.703 71.9159 100.608 72.2352 100.443 72.5201C100.279 72.8051 100.051 73.0477 99.7759 73.2286L59.449 96.5101C58.902 96.8109 58.5027 96.5648 58.5027 95.963V95.5856C58.5204 95.2569 58.6154 94.9371 58.7798 94.652C58.9442 94.3669 59.1735 94.1245 59.449 93.9445Z" fill="#E0E0E0"/>
<path d="M59.4489 100.35L99.7757 77.0688C100.295 76.768 100.722 77.0087 100.722 77.6159V77.9933C100.703 78.3218 100.608 78.6413 100.444 78.9263C100.28 79.2113 100.051 79.4538 99.7757 79.6344L59.4489 102.916C58.9019 103.217 58.5026 102.971 58.5026 102.369V101.991C58.5203 101.663 58.6152 101.343 58.7797 101.058C58.9441 100.773 59.1734 100.53 59.4489 100.35Z" fill="#E0E0E0"/>
<path d="M59.449 106.756L99.7759 83.4741C100.296 83.1732 100.722 83.4194 100.722 84.0211V84.3986C100.704 84.7272 100.61 85.0471 100.445 85.3322C100.281 85.6173 100.051 85.8597 99.7759 86.0397L59.449 109.321C58.902 109.622 58.5027 109.381 58.5027 108.774V108.397C58.5213 108.068 58.6166 107.749 58.7809 107.464C58.9453 107.179 59.1741 106.936 59.449 106.756Z" fill="#E0E0E0"/>
<path d="M59.449 113.16L99.7759 89.8784C100.296 89.5775 100.722 89.8237 100.722 90.4254V90.8138C100.704 91.1425 100.61 91.4623 100.445 91.7474C100.281 92.0326 100.051 92.2749 99.7759 92.4549L59.449 115.736C58.902 116.043 58.5027 115.797 58.5027 115.189V114.812C58.52 114.482 58.6147 114.16 58.7791 113.873C58.9435 113.586 59.173 113.342 59.449 113.16Z" fill="#E0E0E0"/>
<path d="M59.449 119.573L99.7759 96.2861C100.296 95.9798 100.722 96.2259 100.722 96.8331V97.2106C100.703 97.5389 100.608 97.8583 100.443 98.1432C100.279 98.4281 100.051 98.6707 99.7759 98.8516L59.449 122.133C58.902 122.434 58.5027 122.188 58.5027 121.586V121.209C58.5213 120.881 58.6166 120.562 58.781 120.278C58.9454 119.994 59.1742 119.752 59.449 119.573Z" fill="#E0E0E0"/>
<path d="M59.449 126.006L99.7759 102.724C100.296 102.423 100.722 102.669 100.722 103.271V103.649C100.704 103.977 100.608 104.297 100.444 104.582C100.28 104.867 100.051 105.109 99.7759 105.29L59.449 128.56C58.902 128.861 58.5027 128.615 58.5027 128.013V127.636C58.5221 127.309 58.6178 126.991 58.7822 126.708C58.9465 126.425 59.1749 126.184 59.449 126.006Z" fill="#E0E0E0"/>
<path d="M59.449 132.388L99.7759 109.107C100.296 108.806 100.722 109.052 100.722 109.654V110.031C100.704 110.36 100.61 110.68 100.445 110.965C100.281 111.25 100.051 111.492 99.7759 111.672L59.449 134.954C58.902 135.255 58.5027 135.014 58.5027 134.407V134.029C58.5213 133.701 58.6166 133.382 58.7809 133.097C58.9453 132.812 59.1741 132.569 59.449 132.388Z" fill="#E0E0E0"/>
<path d="M59.4489 138.816L99.7757 115.535C100.295 115.234 100.722 115.48 100.722 116.082V116.465C100.703 116.793 100.608 117.112 100.443 117.397C100.279 117.682 100.05 117.925 99.7757 118.106L59.4489 141.382C58.9019 141.688 58.5026 141.442 58.5026 140.835V140.457C58.5216 140.129 58.6171 139.81 58.7814 139.525C58.9457 139.24 59.1743 138.997 59.4489 138.816Z" fill="#E0E0E0"/>
<path d="M53.4589 151.224C53.1469 151.39 52.7966 151.471 52.4434 151.458C52.0902 151.445 51.7467 151.339 51.4475 151.151C51.1484 150.963 50.9042 150.699 50.7396 150.386C50.5751 150.073 50.496 149.723 50.5105 149.37V58.9733C50.5237 58.599 50.6309 58.2341 50.8223 57.9121L52.8408 59.0773C52.6467 59.3964 52.5374 59.7598 52.5235 60.133V150.535C52.5235 151.164 52.9338 151.448 53.4589 151.224Z" fill="#E0E0E0"/>
<path d="M59.0769 155.479C58.7766 155.277 58.5284 155.006 58.3525 154.69C58.1767 154.373 58.0781 154.019 58.0649 153.657V63.2557C58.0865 62.8811 58.197 62.517 58.3873 62.1936C58.5775 61.8702 58.8421 61.5967 59.159 61.3958L112.56 30.5982C112.871 30.403 113.229 30.2963 113.596 30.2894C113.962 30.2825 114.324 30.3758 114.642 30.5592C114.96 30.7426 115.222 31.0092 115.399 31.3303C115.577 31.6514 115.664 32.0148 115.65 32.3815V122.783C115.628 123.158 115.517 123.521 115.327 123.845C115.137 124.168 114.873 124.442 114.556 124.643L61.1556 155.441C60.8366 155.61 60.4821 155.702 60.1209 155.708C59.7597 155.715 59.402 155.636 59.0769 155.479Z" fill="#FAFAFA"/>
<path d="M61.161 155.44L114.562 124.643C114.878 124.441 115.142 124.168 115.332 123.844C115.523 123.521 115.633 123.157 115.656 122.783V32.3812C115.656 31.6974 115.174 31.4184 114.562 31.7576L61.1556 62.5607C60.8393 62.7622 60.5752 63.0359 60.385 63.3592C60.1949 63.6824 60.084 64.0462 60.0615 64.4206V154.817C60.0834 155.506 60.5648 155.785 61.161 155.44Z" fill="#F0F0F0"/>
<path d="M67.0089 66.1491L107.336 42.8677C107.883 42.5668 108.282 42.8075 108.282 43.4147V43.7703C108.263 44.0987 108.168 44.4182 108.004 44.7032C107.839 44.9882 107.611 45.2307 107.336 45.4113L67.0089 68.7147C66.4618 69.0156 66.0625 68.7694 66.0625 68.1677V67.7902C66.0803 67.4616 66.1752 67.1417 66.3396 66.8566C66.504 66.5715 66.7333 66.3291 67.0089 66.1491Z" fill="#E0E0E0"/>
<path d="M67.0089 72.5544L107.336 49.2729C107.883 48.9721 108.282 49.2182 108.282 49.82V50.1974C108.264 50.5261 108.169 50.8459 108.005 51.131C107.841 51.4161 107.611 51.6585 107.336 51.8385L67.0089 75.12C66.4618 75.4208 66.0625 75.1801 66.0625 74.5729V74.1955C66.0811 73.867 66.1764 73.5475 66.3407 73.2625C66.5051 72.9776 66.7339 72.735 67.0089 72.5544Z" fill="#E0E0E0"/>
<path d="M67.0089 78.9607L107.336 55.6792C107.883 55.3783 108.282 55.6245 108.282 56.2262V56.6037C108.264 56.9323 108.169 57.2522 108.005 57.5373C107.841 57.8224 107.611 58.0648 107.336 58.2447L67.0089 81.5153C66.4618 81.8216 66.0625 81.5754 66.0625 80.9682V80.5908C66.0828 80.2642 66.1789 79.9469 66.3431 79.6639C66.5074 79.381 66.7353 79.1402 67.0089 78.9607Z" fill="#E0E0E0"/>
<path d="M67.0089 85.3723L107.336 62.0908C107.883 61.7844 108.282 62.0306 108.282 62.6378V63.0153C108.263 63.3436 108.168 63.663 108.003 63.9479C107.839 64.2328 107.61 64.4754 107.336 64.6563L67.0089 87.9378C66.4618 88.2387 66.0625 87.9925 66.0625 87.3908V87.0133C66.0803 86.6847 66.1752 86.3648 66.3396 86.0797C66.504 85.7946 66.7333 85.5522 67.0089 85.3723Z" fill="#E0E0E0"/>
<path d="M67.0089 91.778L107.336 68.4966C107.883 68.1957 108.282 68.4364 108.282 69.0436V69.4211C108.263 69.7495 108.168 70.069 108.004 70.354C107.839 70.639 107.611 70.8815 107.336 71.0621L67.0089 94.3436C66.4618 94.6445 66.0625 94.3983 66.0625 93.7966V93.4191C66.0803 93.0905 66.1752 92.7706 66.3396 92.4855C66.504 92.2004 66.7333 91.958 67.0089 91.778Z" fill="#E0E0E0"/>
<path d="M67.0089 98.2336L107.336 74.9521C107.883 74.6458 108.282 74.8919 108.282 75.4991V75.8766C108.263 76.2049 108.168 76.5243 108.003 76.8092C107.839 77.0941 107.61 77.3367 107.336 77.5177L67.0089 100.799C66.4618 101.1 66.0625 100.854 66.0625 100.252V99.8747C66.0803 99.546 66.1752 99.2262 66.3396 98.941C66.504 98.6559 66.7333 98.4136 67.0089 98.2336Z" fill="#E0E0E0"/>
<path d="M67.0089 104.639L107.336 81.3579C107.883 81.057 108.282 81.2977 108.282 81.9049V82.2824C108.263 82.6108 108.168 82.9303 108.004 83.2153C107.839 83.5003 107.611 83.7428 107.336 83.9235L67.0089 107.227C66.4618 107.528 66.0625 107.282 66.0625 106.68V106.302C66.0769 105.97 66.1702 105.646 66.3348 105.357C66.4993 105.067 66.7304 104.822 67.0089 104.639Z" fill="#E0E0E0"/>
<path d="M67.0089 111.054L107.336 87.7729C107.883 87.4721 108.282 87.7182 108.282 88.32V88.6974C108.264 89.0261 108.169 89.3459 108.005 89.631C107.841 89.9161 107.611 90.1585 107.336 90.3385L67.0089 113.62C66.4618 113.921 66.0625 113.68 66.0625 113.073V112.695C66.0811 112.367 66.1764 112.048 66.3407 111.763C66.5051 111.478 66.7339 111.235 67.0089 111.054Z" fill="#E0E0E0"/>
<path d="M67.0089 117.449L107.336 94.1675C107.883 93.8666 108.282 94.1128 108.282 94.7145V95.0919C108.264 95.4206 108.169 95.7404 108.005 96.0256C107.841 96.3107 107.611 96.553 107.336 96.733L67.0089 120.014C66.4618 120.321 66.0625 120.075 66.0625 119.467V119.09C66.0815 118.762 66.177 118.442 66.3413 118.157C66.5056 117.872 66.7342 117.63 67.0089 117.449Z" fill="#E0E0E0"/>
<path d="M67.0089 123.861L107.336 100.579C107.883 100.273 108.282 100.519 108.282 101.126V101.504C108.263 101.832 108.168 102.151 108.003 102.436C107.839 102.721 107.61 102.964 107.336 103.145L67.0089 126.426C66.4618 126.727 66.0625 126.481 66.0625 125.879V125.502C66.0803 125.173 66.1752 124.853 66.3396 124.568C66.504 124.283 66.7333 124.041 67.0089 123.861Z" fill="#E0E0E0"/>
<path d="M67.0089 130.293L107.336 107.011C107.883 106.71 108.282 106.957 108.282 107.558V107.936C108.264 108.264 108.169 108.584 108.005 108.869C107.841 109.154 107.611 109.397 107.336 109.577L67.0089 132.858C66.4618 133.159 66.0625 132.913 66.0625 132.311V131.934C66.0803 131.605 66.1752 131.285 66.3396 131C66.504 130.715 66.7333 130.473 67.0089 130.293Z" fill="#E0E0E0"/>
<path d="M67.0089 136.701L107.336 113.419C107.883 113.119 108.282 113.365 108.282 113.966V114.338C108.264 114.667 108.169 114.987 108.005 115.272C107.841 115.557 107.611 115.8 107.336 115.98L67.0089 139.261C66.4618 139.562 66.0625 139.321 66.0625 138.714V138.336C66.0819 138.009 66.1776 137.691 66.3419 137.407C66.5062 137.123 66.7346 136.881 67.0089 136.701Z" fill="#E0E0E0"/>
<path d="M67.0089 143.106L107.336 119.808C107.883 119.507 108.282 119.753 108.282 120.355V120.738C108.263 121.066 108.168 121.386 108.003 121.671C107.839 121.956 107.61 122.198 107.336 122.379L67.0089 145.655C66.4618 145.961 66.0625 145.715 66.0625 145.108V144.731C66.084 144.405 66.1807 144.089 66.3449 143.807C66.5091 143.525 66.7363 143.285 67.0089 143.106Z" fill="#E0E0E0"/>
<path d="M61.019 155.511C60.707 155.677 60.3566 155.758 60.0035 155.745C59.6503 155.732 59.3068 155.626 59.0076 155.438C58.7084 155.25 58.4642 154.986 58.2997 154.673C58.1352 154.36 58.0561 154.01 58.0705 153.657V63.2604C58.0838 62.8861 58.191 62.5212 58.3823 62.1992L60.4008 63.3644C60.2067 63.6835 60.0975 64.0469 60.0836 64.4201V154.816C60.0836 155.451 60.4938 155.735 61.019 155.511Z" fill="#E0E0E0"/>
<path d="M138.801 58.5386L123.2 126.096L121.761 132.311C121.284 133.969 120.226 135.4 118.78 136.342L26.2119 189.765C25.5389 190.13 24.7891 190.33 24.0238 190.35C23.1921 190.408 22.3607 190.234 21.6223 189.847L22.0982 187.785L22.1475 187.582L22.6671 185.323L24.9318 175.52L39.2749 113.411C39.2944 113.331 39.3238 113.254 39.3624 113.181C39.4007 113.11 39.4445 113.039 39.4882 112.973V112.94C39.5873 112.807 39.7096 112.692 39.8493 112.601L118.922 66.9628L136.224 56.9741C136.372 56.8987 136.535 56.8594 136.7 56.8594C136.866 56.8594 137.029 56.8987 137.176 56.9741L138.451 57.7071C138.586 57.7948 138.691 57.9209 138.754 58.0691C138.816 58.2173 138.832 58.3808 138.801 58.5386Z" fill="#37474F"/>
<path d="M138.817 58.3799C138.817 58.1885 138.664 58.1283 138.451 58.2541L42.092 113.887C41.95 113.974 41.8272 114.09 41.7309 114.226L39.51 112.94C39.6091 112.807 39.7314 112.692 39.871 112.601L136.224 56.9741C136.372 56.8987 136.535 56.8594 136.7 56.8594C136.866 56.8594 137.029 56.8987 137.176 56.9741L138.451 57.7071C138.562 57.7806 138.654 57.8804 138.718 57.9977C138.782 58.1151 138.816 58.2463 138.817 58.3799Z" fill="#455A64"/>
<path d="M41.731 114.227C41.6685 114.311 41.6136 114.401 41.5669 114.495C41.5377 114.558 41.5139 114.624 41.4958 114.691L27.7818 174.088L24.8935 186.604L24.527 188.185L24.0238 190.373C23.1921 190.431 22.3607 190.257 21.6223 189.869L22.0982 187.807L22.1475 187.605L22.6671 185.345L24.9318 175.543L39.2749 113.433C39.2944 113.353 39.3238 113.276 39.3624 113.204C39.4007 113.132 39.4445 113.061 39.4882 112.996V112.963L41.731 114.227Z" fill="#263238"/>
<path d="M25.0135 184.114C25.1283 184.18 25.2189 184.281 25.272 184.402C25.3252 184.523 25.3381 184.658 25.3089 184.787L24.5267 188.184L24.1164 189.875C24.0832 190.016 24.0015 190.141 23.8855 190.228C23.7695 190.315 23.6266 190.358 23.4818 190.35C22.8251 190.336 22.1816 190.163 21.6055 189.847C20.9461 189.399 20.4014 188.802 20.0155 188.105C19.6297 187.407 19.4135 186.629 19.3846 185.832V181.937C19.381 181.827 19.407 181.719 19.4599 181.623C19.5127 181.526 19.5905 181.446 19.685 181.39C19.7794 181.334 19.8872 181.305 19.997 181.305C20.1068 181.305 20.2146 181.334 20.3091 181.39L21.2992 181.937C21.3936 181.994 21.4716 182.074 21.5254 182.17C21.5791 182.266 21.6068 182.374 21.6055 182.484V184.421C21.5995 184.575 21.6522 184.727 21.753 184.844C21.8539 184.961 21.9954 185.036 22.1492 185.053C22.303 185.071 22.4576 185.029 22.582 184.937C22.7064 184.845 22.7914 184.71 22.8199 184.557L22.984 183.841C23.0062 183.747 23.0499 183.66 23.1116 183.587C23.1733 183.513 23.2513 183.455 23.3395 183.417C23.4276 183.378 23.5235 183.361 23.6194 183.366C23.7153 183.372 23.8087 183.399 23.8921 183.447L25.0135 184.114Z" fill="#263238"/>
<path d="M45.4506 169.68L40.1827 166.639L40.128 166.606C37.5077 165.123 33.9138 165.342 29.9369 167.64C26.2116 169.784 22.8255 173.367 20.26 177.486C17.3006 182.256 15.4407 187.781 15.4407 192.732C15.4407 197.349 17.0818 200.592 19.6692 202.108L25.0191 205.16C27.6613 206.845 31.392 206.697 35.5275 204.307C43.536 199.684 50.0292 188.443 50.0292 179.193C50.0292 174.423 48.2678 171.108 45.4506 169.68Z" fill="#AF8B65"/>
<path opacity="0.1" d="M24.9152 205.143L19.6692 202.146C17.0544 200.63 15.4407 197.386 15.4407 192.769C15.4407 187.819 17.3006 182.299 20.26 177.529L25.8561 180.757C22.8967 185.527 21.0422 191.041 21.0422 195.986C21.0258 200.395 22.5028 203.551 24.9152 205.143Z" fill="black"/>
<path opacity="0.4" d="M45.3413 169.62C42.7593 168.367 39.324 168.684 35.5276 170.867C31.7312 173.05 28.4162 176.605 25.8397 180.752L20.2437 177.524C22.8037 173.378 26.2008 169.8 29.9206 167.678C33.8974 165.38 37.4914 165.161 40.1117 166.638L40.1664 166.671L45.3413 169.62Z" fill="white"/>
<path d="M37.5294 189.098V194.202C37.5294 194.462 37.4695 194.719 37.3543 194.952C37.2746 195.173 37.1273 195.365 36.9331 195.499L34.1378 197.112C34.0754 197.158 33.9985 197.18 33.9211 197.174C33.8437 197.168 33.7711 197.135 33.7166 197.08C33.6526 197.004 33.6042 196.917 33.5742 196.824C33.5441 196.73 33.533 196.631 33.5416 196.532V191.451L30.1008 193.431C30.0394 193.479 29.9626 193.502 29.8849 193.497C29.8073 193.492 29.7342 193.459 29.6795 193.403C29.6156 193.328 29.5672 193.241 29.5371 193.148C29.5071 193.054 29.496 192.955 29.5045 192.856V189.41C29.5077 189.149 29.5674 188.891 29.6795 188.655C29.7676 188.447 29.9138 188.268 30.1008 188.141L33.5416 186.155V181.073C33.5447 180.812 33.6045 180.555 33.7166 180.319C33.8027 180.109 33.9494 179.93 34.1378 179.804L36.9331 178.163C36.9953 178.118 37.0717 178.095 37.1487 178.1C37.2257 178.105 37.2986 178.137 37.3543 178.191C37.4188 178.265 37.4676 178.352 37.4977 178.446C37.5277 178.54 37.5385 178.639 37.5294 178.738V183.809L40.9483 181.839C41.0096 181.791 41.0865 181.768 41.1641 181.773C41.2418 181.778 41.3149 181.811 41.3695 181.867C41.4335 181.942 41.4819 182.029 41.512 182.123C41.542 182.217 41.5531 182.315 41.5446 182.414V185.86C41.5414 186.121 41.4817 186.379 41.3695 186.615C41.2815 186.823 41.1352 187.002 40.9483 187.129L37.5294 189.098Z" fill="white"/>
<path d="M178.137 110.069L171.743 109.888C171.316 109.522 164.604 101.945 164.604 101.945C164.604 101.945 162.186 105.775 162.148 105.999C162.11 106.223 168.712 113.323 169.385 114.04C169.57 114.278 169.806 114.47 170.076 114.603C170.346 114.736 170.643 114.805 170.944 114.806C172.678 114.91 179.149 115.353 179.149 115.353L178.137 110.069Z" fill="#EEC1BB"/>
<path d="M109.885 206.083C109.586 205.88 109.339 205.609 109.164 205.293C108.989 204.976 108.891 204.623 108.878 204.262V119.264C108.901 118.89 109.012 118.526 109.202 118.203C109.392 117.88 109.656 117.606 109.972 117.405L163.373 86.6015C163.694 86.4338 164.049 86.343 164.411 86.3363C164.773 86.3297 165.131 86.4074 165.457 86.5632C165.757 86.7671 166.005 87.0388 166.179 87.3563C166.354 87.6737 166.452 88.028 166.464 88.3903V173.382C166.442 173.757 166.332 174.122 166.142 174.446C165.951 174.771 165.687 175.045 165.37 175.247L111.969 206.045C111.649 206.214 111.294 206.305 110.932 206.312C110.57 206.319 110.211 206.24 109.885 206.083Z" fill="#AF8B65"/>
<path opacity="0.15" d="M111.668 206.166L111.778 206.133C111.755 206.149 111.729 206.161 111.701 206.166C111.637 206.192 111.571 206.214 111.504 206.231H111.395C111.314 206.25 111.231 206.262 111.149 206.27C111.054 206.275 110.959 206.275 110.864 206.27C110.523 206.278 110.187 206.198 109.885 206.04C109.666 205.899 109.479 205.712 109.338 205.493C109.065 205.12 108.911 204.674 108.895 204.213V119.265C108.894 119.08 108.922 118.895 108.977 118.718C109.004 118.627 109.037 118.537 109.075 118.45C109.114 118.36 109.157 118.272 109.207 118.188L111.22 119.353L111.17 119.435C111.006 119.734 110.915 120.067 110.902 120.408V205.427C110.902 205.536 110.916 205.645 110.946 205.75C110.981 205.878 111.054 205.992 111.154 206.078C111.219 206.127 111.294 206.162 111.373 206.182H111.499C111.548 206.19 111.597 206.19 111.646 206.182C111.655 206.18 111.663 206.174 111.668 206.166Z" fill="black"/>
<path opacity="0.3" d="M166.425 88.1602C166.338 87.6131 165.878 87.4326 165.37 87.7389L111.963 118.537C111.648 118.738 111.387 119.015 111.203 119.341L109.19 118.17C109.369 117.842 109.632 117.567 109.95 117.371L163.351 86.5683C163.672 86.4006 164.027 86.3098 164.389 86.3031C164.751 86.2965 165.109 86.3742 165.435 86.53C165.708 86.7147 165.937 86.9559 166.108 87.2372C166.279 87.5185 166.387 87.8333 166.425 88.1602Z" fill="white"/>
<path d="M117.822 122.13L158.138 98.8486C158.685 98.5423 159.085 98.7884 159.085 99.3956V99.7731C159.066 100.102 158.971 100.421 158.807 100.706C158.642 100.991 158.413 101.234 158.138 101.414L117.811 124.696C117.264 124.996 116.865 124.75 116.865 124.149V123.771C116.884 123.441 116.98 123.121 117.146 122.836C117.313 122.55 117.544 122.309 117.822 122.13Z" fill="#FAFAFA"/>
<path d="M117.822 129.97L158.138 106.683C158.685 106.376 159.085 106.622 159.085 107.23V107.607C159.067 107.936 158.972 108.256 158.808 108.541C158.644 108.826 158.414 109.068 158.138 109.248L117.811 132.53C117.264 132.83 116.865 132.584 116.865 131.983V131.605C116.884 131.276 116.981 130.957 117.148 130.673C117.314 130.388 117.545 130.147 117.822 129.97Z" fill="#FAFAFA"/>
<path d="M117.822 137.807L158.138 114.526C158.685 114.225 159.085 114.466 159.085 115.073V115.434C159.067 115.763 158.972 116.083 158.808 116.368C158.644 116.653 158.414 116.895 158.138 117.075L117.811 140.356C117.264 140.657 116.865 140.411 116.865 139.809V139.432C116.886 139.105 116.984 138.788 117.15 138.506C117.316 138.223 117.547 137.984 117.822 137.807Z" fill="#FAFAFA"/>
<path d="M117.822 145.647L158.138 122.366C158.685 122.065 159.085 122.306 159.085 122.913V123.29C159.067 123.619 158.972 123.939 158.808 124.224C158.644 124.509 158.414 124.752 158.138 124.931L117.811 148.213C117.264 148.514 116.865 148.267 116.865 147.666V147.288C116.884 146.959 116.98 146.638 117.146 146.353C117.313 146.067 117.544 145.826 117.822 145.647Z" fill="#FAFAFA"/>
<path d="M117.822 153.485L158.138 130.204C158.685 129.903 159.085 130.143 159.085 130.751V131.128C159.067 131.457 158.972 131.777 158.808 132.062C158.644 132.347 158.414 132.59 158.138 132.769L117.811 156.051C117.264 156.352 116.865 156.105 116.865 155.504V155.126C116.884 154.796 116.98 154.476 117.146 154.191C117.313 153.905 117.544 153.664 117.822 153.485Z" fill="#FAFAFA"/>
<path d="M117.822 161.325L158.138 138.043C158.685 137.743 159.085 137.983 159.085 138.59V138.957C159.067 139.286 158.972 139.606 158.808 139.891C158.644 140.176 158.414 140.418 158.138 140.598L117.811 163.88C117.264 164.18 116.865 163.934 116.865 163.333V162.955C116.885 162.627 116.982 162.309 117.149 162.026C117.315 161.742 117.546 161.502 117.822 161.325Z" fill="#FAFAFA"/>
<path d="M117.822 169.163L158.138 145.881C158.685 145.58 159.085 145.821 159.085 146.428V146.806C159.067 147.135 158.972 147.455 158.808 147.74C158.644 148.025 158.414 148.267 158.138 148.447L117.811 171.728C117.264 172.029 116.865 171.783 116.865 171.181V170.804C116.884 170.474 116.98 170.154 117.146 169.868C117.313 169.583 117.544 169.341 117.822 169.163Z" fill="#FAFAFA"/>
<path d="M117.822 177.004L158.138 153.728C158.685 153.427 159.085 153.673 159.085 154.275V154.652C159.067 154.981 158.972 155.301 158.808 155.586C158.644 155.872 158.414 156.114 158.138 156.294L117.811 179.575C117.264 179.876 116.865 179.63 116.865 179.028V178.651C116.883 178.32 116.979 177.998 117.145 177.712C117.312 177.426 117.544 177.183 117.822 177.004Z" fill="#FAFAFA"/>
<path d="M117.822 184.842L158.138 161.56C158.685 161.259 159.085 161.505 159.085 162.107V162.479C159.068 162.808 158.973 163.128 158.809 163.413C158.644 163.699 158.414 163.941 158.138 164.12L117.811 187.402C117.264 187.702 116.865 187.456 116.865 186.855V186.477C116.884 186.148 116.981 185.829 117.148 185.545C117.314 185.26 117.545 185.019 117.822 184.842Z" fill="#FAFAFA"/>
<path d="M117.822 192.681L158.138 169.4C158.685 169.099 159.085 169.345 159.085 169.947V170.324C159.068 170.653 158.973 170.973 158.809 171.259C158.644 171.544 158.414 171.786 158.138 171.965L117.817 195.247C117.27 195.548 116.871 195.302 116.871 194.7V194.322C116.889 193.993 116.985 193.673 117.15 193.388C117.316 193.103 117.546 192.861 117.822 192.681Z" fill="#FAFAFA"/>
<path d="M179.324 108.956H186.917C189.52 108.956 192.016 107.922 193.857 106.082C195.697 104.242 196.731 101.745 196.731 99.1427C196.731 96.8344 195.814 94.6207 194.182 92.9886C192.55 91.3564 190.336 90.4395 188.028 90.4395C185.719 90.4395 183.506 91.3564 181.874 92.9886C180.241 94.6207 179.324 96.8344 179.324 99.1427V108.956Z" fill="#263238"/>
<path d="M194.789 93.8715L196.895 92.7392C196.83 92.5959 196.736 92.4674 196.619 92.3615C196.502 92.2557 196.366 92.1747 196.217 92.1235C196.068 92.0723 195.91 92.052 195.753 92.0638C195.596 92.0756 195.443 92.1193 195.303 92.1922C195.014 92.3488 194.799 92.6125 194.702 92.9267C194.606 93.2408 194.637 93.5801 194.789 93.8715Z" fill="#263238"/>
<path d="M194.641 94.1006L196.884 94.9376C196.946 94.7932 196.978 94.6379 196.978 94.4808C196.979 94.3237 196.947 94.1682 196.886 94.0236C196.825 93.879 196.735 93.7483 196.622 93.6393C196.509 93.5304 196.375 93.4454 196.228 93.3895C195.923 93.2825 195.588 93.2966 195.293 93.4289C194.998 93.5612 194.765 93.8016 194.641 94.1006Z" fill="#263238"/>
<path d="M187.131 116.194L176.557 115.739C175.643 114.454 175.643 111.057 176.606 109.963L188.307 110.28L187.131 116.194Z" fill="#AF8B65"/>
<path d="M180.703 181.793C180.768 182.5 180.797 183.211 180.791 183.921V188.084H184.396V185.644C184.397 184.544 184.489 183.447 184.669 182.362L180.703 181.793Z" fill="#EEC1BB"/>
<path d="M180.785 186.303V185.783C180.687 186.571 178.433 189.536 177 190.843C175.857 191.888 174.298 193.091 173.898 194.256C173.499 195.422 175.742 195.941 177.219 195.793C178.653 195.615 179.975 194.924 180.938 193.846C181.536 193.095 182.072 192.298 182.541 191.461C182.979 190.87 184.948 189.656 185.189 188.967C185.257 188.326 185.186 187.679 184.981 187.068C184.811 186.428 184.631 185.723 184.434 185.783V186.177C183.918 186.581 183.279 186.798 182.623 186.789C182.071 186.811 180.785 186.707 180.785 186.303Z" fill="#263238"/>
<path d="M184.395 186.177C183.879 186.582 183.241 186.798 182.585 186.79C182.038 186.79 180.769 186.708 180.769 186.303V185.783C180.67 186.571 178.416 189.536 176.983 190.843C176.71 191.095 176.409 191.352 176.108 191.62C175.501 192.298 175.676 192.889 177.104 193.009C178.531 193.13 179.789 192.271 180.873 190.942C181.956 189.612 184.395 186.177 184.395 186.177Z" fill="#EEC1BB"/>
<path d="M191.77 187.932C191.841 188.807 191.841 189.72 191.857 190.12V194.283H195.478V191.843C195.478 190.743 195.568 189.646 195.746 188.561L191.77 187.932Z" fill="#EEC1BB"/>
<path d="M191.852 192.494V191.974C191.748 192.762 189.499 195.727 188.061 197.034C186.917 198.079 185.358 199.283 184.965 200.442C184.571 201.602 186.803 202.133 188.285 201.985C189.718 201.807 191.038 201.115 191.999 200.037C192.598 199.287 193.136 198.489 193.608 197.652C194.045 197.062 196.014 195.847 196.25 195.158C196.324 194.518 196.253 193.869 196.042 193.26C195.878 192.62 195.692 191.914 195.495 191.974V192.368C194.979 192.773 194.34 192.989 193.684 192.981C193.148 193.003 191.846 192.899 191.852 192.494Z" fill="#263238"/>
<path d="M195.473 192.368C194.957 192.773 194.318 192.989 193.662 192.981C193.115 192.981 191.846 192.899 191.851 192.494V191.975C191.748 192.762 189.499 195.727 188.061 197.035C187.787 197.286 187.514 197.543 187.191 197.811C186.584 198.49 186.759 199.08 188.186 199.201C189.614 199.321 190.867 198.462 191.95 197.133C193.033 195.804 195.473 192.368 195.473 192.368Z" fill="#EEC1BB"/>
<path d="M180.703 183.512C179.926 177.128 178.657 166.089 178.285 163.677C177.941 161.445 178.805 142.343 179.335 136.26L198.208 135.248C199.641 141.397 198.241 149.69 197.754 154.87C197.273 159.908 196.66 165.81 196.66 165.81C196.66 165.81 198.131 170.947 197.754 175.033C197.502 177.61 196.348 185.383 195.801 188.709C195.158 189.035 194.445 189.2 193.724 189.191C193.003 189.181 192.294 188.997 191.66 188.654C191.72 189.36 190.987 180.044 190.566 176.281C189.964 171.056 189.734 167.249 189.198 164.197C188.526 160.368 188.296 145.477 188.296 145.477L186.108 162.397C186.345 164.211 186.46 166.038 186.452 167.867C186.452 171.647 185.057 180.236 184.62 183.447C183.673 184.119 181.748 184.322 180.703 183.512Z" fill="#455A64"/>
<path d="M188.29 145.465C188.29 145.465 184.839 144.256 182.875 142.451C183.863 143.988 185.264 145.214 186.917 145.99L186.95 155.892L188.29 145.465Z" fill="#37474F"/>
<path d="M191.036 110.367C191.036 110.367 196.162 110.958 196.775 111.232C193.651 114.65 196.977 117.484 196.977 117.484L194.598 127.954C196.649 130.574 197.82 132.598 198.312 135.722C196.124 139.595 183.777 140.131 179.254 137.248C179.647 131.849 180.528 127.982 180.233 126.357C178.083 119.727 178.75 118.337 178.953 116.822C179.347 113.863 182.284 111.286 183.963 110.203H185.528L191.036 110.367Z" fill="#F0F0F0"/>
<path d="M182.207 94.7012C181.288 95.2482 180.15 97.5566 180.265 102.403C180.358 106.511 181.693 107.523 182.36 107.819C183.028 108.114 184.319 107.934 185.572 107.72V110.188C185.572 110.188 183.837 112.201 183.93 113.333C184.023 114.465 186.43 114.728 188.055 113.623C189.227 112.714 190.237 111.614 191.042 110.368L191.014 104.701C191.014 104.701 191.747 105.417 193 104.323C194.034 103.421 194.379 101.895 193.547 101.08C193.34 100.885 193.09 100.742 192.817 100.663C192.544 100.584 192.256 100.57 191.977 100.624C191.698 100.677 191.436 100.796 191.211 100.97C190.987 101.144 190.807 101.369 190.686 101.627C190.686 101.627 189.992 99.6955 187.103 98.7492C184.516 97.9286 183.099 96.9385 182.207 94.7012Z" fill="#EEC1BB"/>
<path d="M185.107 101.369C185.106 101.504 185.155 101.635 185.245 101.736C185.335 101.837 185.459 101.901 185.594 101.916C185.733 101.916 185.868 101.863 185.969 101.768C186.071 101.672 186.132 101.541 186.141 101.402C186.151 101.33 186.146 101.258 186.126 101.188C186.106 101.119 186.072 101.054 186.026 100.998C185.98 100.943 185.923 100.898 185.858 100.865C185.794 100.833 185.723 100.815 185.651 100.811C185.579 100.808 185.507 100.819 185.439 100.845C185.372 100.871 185.311 100.911 185.259 100.962C185.208 101.013 185.168 101.074 185.142 101.141C185.116 101.209 185.104 101.281 185.107 101.353V101.369Z" fill="#263238"/>
<path d="M184.97 104.854L183.772 105.236C183.793 105.316 183.83 105.391 183.881 105.457C183.932 105.522 183.996 105.576 184.069 105.616C184.141 105.656 184.221 105.681 184.304 105.689C184.386 105.697 184.47 105.688 184.549 105.663C184.71 105.609 184.844 105.495 184.923 105.343C185.001 105.192 185.018 105.017 184.97 104.854Z" fill="#9A4A4D"/>
<path d="M180.873 99.7852L181.918 99.0632C181.874 98.9926 181.816 98.9316 181.748 98.884C181.68 98.8364 181.603 98.8031 181.521 98.7862C181.44 98.7693 181.356 98.7692 181.275 98.7858C181.193 98.8023 181.116 98.8353 181.048 98.8826C180.91 98.9828 180.815 99.1318 180.782 99.2994C180.75 99.467 180.782 99.6407 180.873 99.7852Z" fill="#263238"/>
<path d="M186.611 100.166L185.566 99.444C185.61 99.3734 185.668 99.3124 185.736 99.2648C185.804 99.2172 185.881 99.184 185.962 99.1671C186.044 99.1502 186.128 99.15 186.209 99.1666C186.29 99.1832 186.368 99.2162 186.436 99.2635C186.574 99.3637 186.669 99.5126 186.702 99.6802C186.734 99.8478 186.702 100.022 186.611 100.166Z" fill="#263238"/>
<path d="M181.113 100.998C181.112 101.134 181.162 101.264 181.252 101.365C181.342 101.466 181.466 101.531 181.6 101.546C181.739 101.546 181.872 101.493 181.974 101.399C182.076 101.305 182.137 101.175 182.147 101.037C182.157 100.965 182.152 100.892 182.132 100.823C182.113 100.753 182.079 100.689 182.033 100.633C181.986 100.578 181.929 100.532 181.865 100.5C181.8 100.468 181.729 100.449 181.657 100.446C181.585 100.442 181.513 100.454 181.446 100.48C181.378 100.506 181.317 100.546 181.266 100.597C181.215 100.648 181.175 100.709 181.148 100.776C181.122 100.843 181.11 100.915 181.113 100.988V100.998Z" fill="#263238"/>
<path d="M183.548 100.703L183.466 103.81L181.83 103.307L183.548 100.703Z" fill="#D4827D"/>
<path opacity="0.2" d="M185.55 107.721C186.868 107.552 189.587 106.769 190.013 105.697C189.842 106.24 189.508 106.718 189.056 107.065C188.246 107.76 185.55 108.547 185.55 108.547V107.721Z" fill="black"/>
<path d="M195.659 123.277L191.288 129.661L194.598 127.954L195.659 123.277Z" fill="#E0E0E0"/>
<path d="M193.635 112.627L183.378 123.234C183.378 123.234 173.308 122.244 169.889 121.265C168.795 120.953 167.941 119.476 167.7 118.234C167.67 117.909 167.538 117.601 167.323 117.354C167.108 117.108 166.821 116.935 166.503 116.861V119.35C166.415 119.979 166.109 120.302 165.212 120.324C161.754 120.4 160.152 119.35 159.741 121.226C159.473 122.424 159.993 123.787 162.274 124.416C165.48 125.291 167.252 124.853 169.199 125.34C170.704 125.712 181.201 127.709 183.263 128.157C184.357 128.398 185.183 128.321 186.371 127.151C187.558 125.98 196.43 117.665 196.43 117.665C199.165 114.93 198.356 112.124 196.835 111.287C195.883 110.767 194.844 111.38 193.635 112.627Z" fill="#EEC1BB"/>
<path d="M196.775 111.233C197.437 111.501 198.246 112.206 198.312 114.033C198.378 115.861 197.026 117.524 195.434 119.427C193.843 121.331 193.361 121.834 193.361 121.834C193.361 121.834 189.335 120.368 188.651 117.376C188.651 117.376 191.687 114.159 192.595 113.131C193.503 112.102 195.177 110.511 196.775 111.233Z" fill="#AF8B65"/>
<path d="M175.988 42.0082L179.789 44.1963C179.768 44.0294 179.757 43.8613 179.757 43.693V42.5989C179.757 40.6406 181.135 39.8638 182.831 40.8266C183.56 41.2765 184.185 41.8771 184.663 42.588C184.942 40.1209 186.852 39.2074 189.226 40.5585C191.764 42.03 193.826 45.5966 193.826 48.5287V50.1698C193.843 50.8279 193.708 51.4812 193.432 52.0789L196.594 53.9005C197.09 54.225 197.503 54.6613 197.799 55.1743C198.096 55.6874 198.267 56.2629 198.301 56.8545C198.301 57.9485 197.535 58.3861 196.594 57.8391L175.988 45.9577C175.491 45.6342 175.077 45.1981 174.781 44.6849C174.484 44.1716 174.313 43.5956 174.281 43.0037C174.281 41.9042 175.047 41.4611 175.988 42.0082Z" fill="#EBEBEB"/>
<path d="M159.714 53.0694L162.58 54.7105C162.58 54.5792 162.58 54.4534 162.58 54.3276V53.4961C162.58 52.0192 163.619 51.4174 164.899 52.1614C165.452 52.4979 165.925 52.9517 166.283 53.4907C166.491 51.6308 167.924 50.936 169.724 51.959C170.737 52.6171 171.579 53.5053 172.183 54.551C172.786 55.5968 173.134 56.7705 173.198 57.9763V59.218C173.21 59.7156 173.109 60.2094 172.902 60.6622L175.287 62.0352C175.662 62.2802 175.973 62.6099 176.197 62.9977C176.42 63.3854 176.549 63.8203 176.573 64.2671C176.573 65.0876 175.999 65.4213 175.287 65.011L159.735 56.0289C159.36 55.7853 159.048 55.4568 158.824 55.07C158.599 54.6832 158.469 54.2489 158.444 53.8025C158.423 53.0093 159.002 52.6756 159.714 53.0694Z" fill="#EBEBEB"/>
</g>
<defs>
<clipPath id="clip0_118_1929">
<rect width="220" height="220" fill="white"/>
</clipPath>
</defs>
</svg>
