<svg width="220" height="220" viewBox="0 0 220 220" fill="none" xmlns="http://www.w3.org/2000/svg">
<g clip-path="url(#clip0_118_1189)">
<path d="M251.842 185.121H-31.8423V185.263H251.842V185.121Z" fill="#EBEBEB"/>
<path d="M223.417 194.25H204.625V194.392H223.417V194.25Z" fill="#EBEBEB"/>
<path d="M156.082 195.793H151.151V195.935H156.082V195.793Z" fill="#EBEBEB"/>
<path d="M204.058 188.984H193.17V189.126H204.058V188.984Z" fill="#EBEBEB"/>
<path d="M22.4265 189.938H-2.07812V190.079H22.4265V189.938Z" fill="#EBEBEB"/>
<path d="M31.0731 189.938H27.4817V190.079H31.0731V189.938Z" fill="#EBEBEB"/>
<path d="M95.9008 192.33H42.7498V192.472H95.9008V192.33Z" fill="#EBEBEB"/>
<path d="M102.624 159.815H-6.92909C-7.78732 159.814 -8.60988 159.472 -9.21621 158.864C-9.82254 158.257 -10.1631 157.434 -10.1631 156.575V2.57459C-10.1556 1.72128 -9.81178 0.905377 -9.20625 0.304102C-8.60073 -0.297172 -7.78242 -0.635257 -6.92909 -0.636719H102.624C103.483 -0.636719 104.307 -0.295397 104.915 0.31216C105.522 0.919717 105.864 1.74374 105.864 2.60295V156.575C105.864 157.435 105.522 158.259 104.915 158.866C104.307 159.474 103.483 159.815 102.624 159.815ZM-6.92909 -0.523245C-7.7497 -0.521742 -8.53619 -0.194702 -9.11592 0.386091C-9.69565 0.966885 -10.0212 1.75397 -10.0212 2.57459V156.575C-10.0212 157.396 -9.69565 158.183 -9.11592 158.764C-8.53619 159.345 -7.7497 159.672 -6.92909 159.673H102.624C103.445 159.672 104.232 159.345 104.813 158.764C105.394 158.184 105.72 157.397 105.722 156.575V2.57459C105.72 1.75345 105.394 0.966377 104.813 0.385745C104.232 -0.194886 103.445 -0.521745 102.624 -0.523245H-6.92909Z" fill="#EBEBEB"/>
<path d="M225.352 159.815H115.793C114.934 159.814 114.111 159.472 113.504 158.865C112.896 158.257 112.554 157.434 112.553 156.575V2.57459C112.562 1.72076 112.907 0.904865 113.513 0.303747C114.12 -0.297371 114.939 -0.635273 115.793 -0.636719H225.352C226.204 -0.633766 227.021 -0.295022 227.625 0.306093C228.229 0.907208 228.572 1.72226 228.58 2.57459V156.575C228.58 157.433 228.24 158.255 227.635 158.862C227.03 159.469 226.209 159.812 225.352 159.815ZM115.793 -0.523245C114.972 -0.521745 114.184 -0.194886 113.604 0.385745C113.023 0.966377 112.696 1.75345 112.695 2.57459V156.575C112.696 157.397 113.023 158.184 113.604 158.764C114.184 159.345 114.972 159.672 115.793 159.673H225.352C226.173 159.672 226.96 159.345 227.54 158.764C228.121 158.184 228.448 157.397 228.449 156.575V2.57459C228.448 1.75345 228.121 0.966377 227.54 0.385745C226.96 -0.194886 226.173 -0.521745 225.352 -0.523245H115.793Z" fill="#EBEBEB"/>
<path d="M172.217 64.2877H199.468L199.048 60.6055H171.797L172.217 64.2877Z" fill="#F5F5F5"/>
<path d="M174.169 81.5123H201.42L201 77.8301H173.749L174.169 81.5123Z" fill="#F5F5F5"/>
<path d="M176.121 98.7367H203.372L202.952 95.0488H175.701L176.121 98.7367Z" fill="#F5F5F5"/>
<path d="M178.067 115.958H205.323L204.904 112.275H177.653L178.067 115.958Z" fill="#F5F5F5"/>
<path d="M180.019 133.182H207.269L206.855 129.494H179.604L180.019 133.182Z" fill="#F5F5F5"/>
<path d="M181.97 150.401H209.221L208.807 146.719H181.556L181.97 150.401Z" fill="#F5F5F5"/>
<path d="M183.922 167.627H211.173L210.759 163.939H183.508L183.922 167.627Z" fill="#F5F5F5"/>
<path d="M211.287 185.147H215.553L200.609 53.2734H196.342L211.287 185.147Z" fill="#EBEBEB"/>
<path d="M183.514 185.147H187.786L172.841 53.2734H168.575L183.514 185.147Z" fill="#EBEBEB"/>
<path d="M131.849 35.2773L202.124 35.2773V31.2263L131.849 31.2263V35.2773Z" fill="#F0F0F0"/>
<path d="M144.757 20.1854L144.342 19.618C144.271 19.5155 144.176 19.4317 144.065 19.3735C143.955 19.3152 143.832 19.2843 143.707 19.2833H140.825C140.704 19.2818 140.585 19.3119 140.48 19.3706C140.374 19.4293 140.286 19.5146 140.223 19.618L139.883 20.1854C139.82 20.2884 139.732 20.3734 139.626 20.432C139.521 20.4907 139.402 20.5211 139.282 20.5201H137.579C137.483 20.5191 137.387 20.5381 137.298 20.576C137.209 20.6138 137.129 20.6697 137.063 20.7401C136.997 20.8105 136.946 20.8939 136.914 20.9849C136.882 21.076 136.869 21.1727 136.876 21.269L137.443 30.9143C137.456 31.1146 137.544 31.3028 137.689 31.4415C137.834 31.5802 138.026 31.6594 138.226 31.6632H151.843C151.939 31.6644 152.035 31.6453 152.124 31.6074C152.212 31.5695 152.292 31.5135 152.357 31.443C152.423 31.3725 152.473 31.289 152.505 31.198C152.537 31.107 152.549 31.0103 152.541 30.9143L151.974 21.269C151.961 21.0688 151.873 20.8806 151.728 20.7419C151.583 20.6031 151.391 20.524 151.191 20.5201H145.392C145.267 20.5191 145.144 20.4881 145.034 20.4299C144.923 20.3717 144.828 20.2878 144.757 20.1854Z" fill="#E0E0E0"/>
<path d="M152.552 21.4398H140.07C139.814 21.4438 139.569 21.5412 139.38 21.7136C139.19 21.886 139.071 22.1215 139.043 22.3759L138.289 30.7162C138.276 30.8361 138.288 30.9573 138.326 31.0718C138.364 31.1863 138.426 31.2914 138.507 31.3801C138.589 31.4687 138.689 31.5389 138.8 31.5859C138.911 31.6328 139.031 31.6555 139.151 31.6524H151.633C151.889 31.6484 152.135 31.551 152.324 31.3786C152.513 31.2062 152.632 30.9706 152.66 30.7162L153.409 22.3759C153.423 22.2564 153.411 22.1352 153.374 22.0207C153.337 21.9062 153.276 21.801 153.194 21.7123C153.113 21.6235 153.014 21.5532 152.903 21.5062C152.792 21.4592 152.673 21.4365 152.552 21.4398Z" fill="#E6E6E6"/>
<path d="M167.451 20.1854L167.037 19.618C166.966 19.5155 166.871 19.4317 166.76 19.3735C166.65 19.3152 166.527 19.2843 166.402 19.2833H163.52C163.399 19.2818 163.28 19.3119 163.174 19.3706C163.069 19.4293 162.981 19.5146 162.918 19.618L162.578 20.1854C162.515 20.2884 162.427 20.3734 162.321 20.432C162.216 20.4907 162.097 20.5211 161.976 20.5201H160.274C160.178 20.5191 160.082 20.5381 159.993 20.576C159.904 20.6138 159.824 20.6697 159.758 20.7401C159.692 20.8105 159.641 20.8939 159.609 20.9849C159.577 21.076 159.564 21.1727 159.571 21.269L160.138 30.9143C160.151 31.1146 160.238 31.3028 160.383 31.4415C160.529 31.5802 160.72 31.6594 160.921 31.6632H174.538C174.634 31.6644 174.73 31.6453 174.818 31.6074C174.907 31.5695 174.987 31.5135 175.052 31.443C175.118 31.3725 175.168 31.289 175.2 31.198C175.231 31.107 175.244 31.0103 175.236 30.9143L174.668 21.269C174.656 21.0688 174.568 20.8806 174.423 20.7419C174.278 20.6031 174.086 20.524 173.885 20.5201H168.087C167.962 20.5191 167.839 20.4881 167.729 20.4299C167.618 20.3717 167.523 20.2878 167.451 20.1854Z" fill="#E0E0E0"/>
<path d="M175.247 21.4398H162.765C162.509 21.4438 162.264 21.5412 162.074 21.7136C161.885 21.886 161.766 22.1215 161.738 22.3759L160.983 30.7162C160.97 30.8361 160.983 30.9573 161.021 31.0718C161.059 31.1863 161.12 31.2914 161.202 31.3801C161.284 31.4687 161.384 31.5389 161.495 31.5859C161.606 31.6328 161.725 31.6555 161.846 31.6524H174.328C174.584 31.6484 174.829 31.551 175.019 31.3786C175.208 31.2062 175.327 30.9706 175.355 30.7162L176.104 22.3759C176.118 22.2564 176.106 22.1352 176.069 22.0207C176.032 21.9062 175.97 21.801 175.889 21.7123C175.808 21.6235 175.709 21.5532 175.598 21.5062C175.487 21.4592 175.367 21.4365 175.247 21.4398Z" fill="#E6E6E6"/>
<path d="M190.146 20.1854L189.732 19.618C189.661 19.5155 189.566 19.4317 189.455 19.3735C189.344 19.3152 189.222 19.2843 189.097 19.2833H186.214C186.094 19.2818 185.975 19.3119 185.869 19.3706C185.764 19.4293 185.675 19.5146 185.613 19.618L185.273 20.1854C185.21 20.2884 185.121 20.3734 185.016 20.432C184.911 20.4907 184.792 20.5211 184.671 20.5201H182.969C182.872 20.5191 182.777 20.5381 182.688 20.576C182.599 20.6138 182.519 20.6697 182.453 20.7401C182.387 20.8105 182.336 20.8939 182.304 20.9849C182.271 21.076 182.258 21.1727 182.266 21.269L182.833 30.9143C182.846 31.1146 182.933 31.3028 183.078 31.4415C183.223 31.5802 183.415 31.6594 183.616 31.6632H197.233C197.329 31.6644 197.425 31.6453 197.513 31.6074C197.602 31.5695 197.681 31.5135 197.747 31.443C197.813 31.3725 197.863 31.289 197.895 31.198C197.926 31.107 197.939 31.0103 197.931 30.9143L197.363 21.269C197.35 21.0688 197.263 20.8806 197.118 20.7419C196.973 20.6031 196.781 20.524 196.58 20.5201H190.782C190.657 20.5191 190.534 20.4881 190.423 20.4299C190.313 20.3717 190.218 20.2878 190.146 20.1854Z" fill="#E0E0E0"/>
<path d="M197.942 21.4398H185.46C185.204 21.4438 184.958 21.5412 184.769 21.7136C184.58 21.886 184.461 22.1215 184.433 22.3759L183.678 30.7162C183.665 30.8361 183.678 30.9573 183.716 31.0718C183.754 31.1863 183.815 31.2914 183.897 31.3801C183.979 31.4687 184.078 31.5389 184.189 31.5859C184.3 31.6328 184.42 31.6555 184.541 31.6524H197.023C197.279 31.6484 197.524 31.551 197.713 31.3786C197.902 31.2062 198.022 30.9706 198.05 30.7162L198.799 22.3759C198.813 22.2564 198.801 22.1352 198.763 22.0207C198.726 21.9062 198.665 21.801 198.584 21.7123C198.503 21.6235 198.403 21.5532 198.293 21.5062C198.182 21.4592 198.062 21.4365 197.942 21.4398Z" fill="#E6E6E6"/>
<path d="M89.8808 26.2676H7.19824V78.8626H89.8808V26.2676Z" fill="#F5F5F5"/>
<path d="M89.8808 26.2676H7.19824V29.8307H89.8808V26.2676Z" fill="#E0E0E0"/>
<path d="M88.6555 28.0487C88.6555 28.2619 88.5923 28.4703 88.4738 28.6476C88.3554 28.8249 88.187 28.9631 87.99 29.0446C87.7931 29.1262 87.5763 29.1476 87.3672 29.106C87.1581 29.0644 86.966 28.9617 86.8153 28.811C86.6645 28.6602 86.5618 28.4681 86.5202 28.259C86.4786 28.0499 86.5 27.8331 86.5816 27.6362C86.6632 27.4392 86.8013 27.2708 86.9786 27.1524C87.1559 27.0339 87.3643 26.9707 87.5775 26.9707C87.8634 26.9707 88.1376 27.0843 88.3398 27.2864C88.5419 27.4886 88.6555 27.7628 88.6555 28.0487Z" fill="#FAFAFA"/>
<path d="M85.0867 28.0487C85.0867 28.2619 85.0234 28.4703 84.905 28.6476C84.7865 28.8249 84.6182 28.9631 84.4212 29.0446C84.2242 29.1262 84.0075 29.1476 83.7984 29.106C83.5892 29.0644 83.3972 28.9617 83.2464 28.811C83.0956 28.6602 82.993 28.4681 82.9514 28.259C82.9098 28.0499 82.9311 27.8331 83.0127 27.6362C83.0943 27.4392 83.2325 27.2708 83.4098 27.1524C83.587 27.0339 83.7955 26.9707 84.0087 26.9707C84.2946 26.9707 84.5688 27.0843 84.7709 27.2864C84.9731 27.4886 85.0867 27.7628 85.0867 28.0487Z" fill="#FAFAFA"/>
<path d="M81.5181 28.0487C81.5181 28.2622 81.4547 28.4708 81.336 28.6482C81.2173 28.8256 81.0486 28.9638 80.8513 29.0452C80.654 29.1266 80.4369 29.1476 80.2277 29.1056C80.0184 29.0635 79.8263 28.9603 79.6758 28.8089C79.5253 28.6576 79.423 28.465 79.3821 28.2555C79.3411 28.046 79.3633 27.8291 79.4458 27.6322C79.5282 27.4354 79.6673 27.2674 79.8453 27.1496C80.0233 27.0319 80.2323 26.9696 80.4457 26.9707C80.587 26.9707 80.7269 26.9986 80.8574 27.0529C80.9879 27.1071 81.1064 27.1866 81.206 27.2868C81.3056 27.387 81.3845 27.5059 81.4381 27.6366C81.4916 27.7674 81.5188 27.9074 81.5181 28.0487Z" fill="#FAFAFA"/>
<path d="M22.1543 36.0102L21.6436 35.3009C21.5536 35.1738 21.4346 35.07 21.2965 34.998C21.1583 34.9259 21.0051 34.8878 20.8493 34.8868H17.2635C17.1143 34.8851 16.9672 34.9224 16.8369 34.9951C16.7065 35.0677 16.5974 35.1732 16.5203 35.3009L16.0948 36.0102C16.0159 36.1376 15.9056 36.2427 15.7745 36.3152C15.6433 36.3878 15.4957 36.4253 15.3458 36.4243H13.2069C13.0851 36.4229 12.9643 36.4472 12.8526 36.4957C12.7409 36.5443 12.6408 36.6159 12.5588 36.706C12.4768 36.796 12.4148 36.9024 12.3768 37.0182C12.3389 37.1339 12.326 37.2564 12.3388 37.3775L13.031 49.3547C13.0467 49.6041 13.1558 49.8385 13.3367 50.011C13.5176 50.1834 13.7569 50.2814 14.0068 50.2852H30.9712C31.0909 50.2863 31.2095 50.2625 31.3195 50.2154C31.4295 50.1682 31.5285 50.0986 31.6101 50.0111C31.6918 49.9236 31.7543 49.82 31.7938 49.707C31.8332 49.594 31.8487 49.474 31.8392 49.3547L31.1357 37.3775C31.12 37.1281 31.0108 36.8937 30.8299 36.7212C30.649 36.5487 30.4097 36.4508 30.1598 36.447H22.9429C22.7863 36.4416 22.6332 36.3992 22.4961 36.3233C22.3591 36.2473 22.2419 36.14 22.1543 36.0102Z" fill="#E0E0E0"/>
<path d="M31.8675 37.5647H16.3273C16.013 37.5687 15.7106 37.6854 15.4753 37.8937C15.2399 38.102 15.0872 38.388 15.0451 38.6994L14.1146 49.0993C14.0984 49.2478 14.1141 49.3981 14.1606 49.54C14.2072 49.682 14.2835 49.8124 14.3844 49.9225C14.4854 50.0326 14.6087 50.1199 14.7461 50.1785C14.8835 50.2371 15.0319 50.2657 15.1812 50.2624H30.7215C31.0398 50.2586 31.3456 50.1381 31.581 49.9237C31.8163 49.7092 31.9647 49.4159 31.998 49.0993L32.9342 38.7278C32.9504 38.5793 32.9347 38.429 32.8881 38.2871C32.8416 38.1451 32.7653 38.0148 32.6643 37.9046C32.5634 37.7945 32.44 37.7073 32.3026 37.6486C32.1652 37.59 32.0169 37.5614 31.8675 37.5647Z" fill="#E6E6E6"/>
<path d="M48.0318 36.0102L47.5212 35.3009C47.4312 35.1738 47.3122 35.07 47.1741 34.998C47.0359 34.9259 46.8827 34.8878 46.7269 34.8868H43.1411C42.9919 34.8851 42.8448 34.9224 42.7145 34.9951C42.5841 35.0677 42.475 35.1732 42.3979 35.3009L41.9724 36.0102C41.8935 36.1376 41.7832 36.2427 41.6521 36.3152C41.5209 36.3878 41.3733 36.4253 41.2234 36.4243H39.0788C38.9591 36.4232 38.8405 36.4469 38.7305 36.4941C38.6205 36.5413 38.5215 36.6109 38.4398 36.6984C38.3582 36.7859 38.2956 36.8895 38.2562 37.0025C38.2167 37.1155 38.2012 37.2355 38.2107 37.3548L38.9029 49.332C38.9186 49.5814 39.0278 49.8158 39.2087 49.9883C39.3896 50.1608 39.6288 50.2587 39.8788 50.2625H56.8431C56.9628 50.2636 57.0814 50.2399 57.1914 50.1927C57.3014 50.1455 57.4004 50.0759 57.482 49.9884C57.5637 49.9009 57.6262 49.7973 57.6657 49.6843C57.7051 49.5713 57.7206 49.4513 57.7112 49.332L57.0246 37.3775C57.009 37.1281 56.8998 36.8937 56.7189 36.7212C56.538 36.5487 56.2987 36.4508 56.0488 36.447H48.8205C48.6639 36.4416 48.5108 36.3992 48.3737 36.3233C48.2367 36.2473 48.1195 36.14 48.0318 36.0102Z" fill="#E0E0E0"/>
<path d="M57.7452 37.5647H42.205C41.8903 37.5674 41.5873 37.6838 41.3517 37.8923C41.1161 38.1008 40.9637 38.3874 40.9227 38.6994L39.9922 49.0709C39.9751 49.2196 39.9901 49.3702 40.0363 49.5126C40.0825 49.655 40.1587 49.7857 40.2599 49.8961C40.3611 50.0064 40.4848 50.0936 40.6226 50.1519C40.7605 50.2102 40.9093 50.2382 41.0589 50.234H56.5991C56.9174 50.2302 57.2233 50.1096 57.4586 49.8952C57.6939 49.6808 57.8423 49.3875 57.8757 49.0709L58.8118 38.6994C58.8238 38.5531 58.8049 38.406 58.7564 38.2675C58.708 38.1289 58.631 38.0021 58.5305 37.8952C58.43 37.7883 58.3081 37.7036 58.1729 37.6467C58.0376 37.5897 57.8919 37.5618 57.7452 37.5647Z" fill="#E6E6E6"/>
<path d="M73.9095 36.0102L73.3989 35.3009C73.3088 35.1738 73.1898 35.07 73.0517 34.998C72.9136 34.9259 72.7603 34.8878 72.6045 34.8868H69.0188C68.8695 34.8851 68.7225 34.9224 68.5921 34.9951C68.4617 35.0677 68.3526 35.1732 68.2755 35.3009L67.8443 36.0102C67.7668 36.1376 67.6576 36.2427 67.5273 36.3153C67.3971 36.3879 67.2502 36.4255 67.1011 36.4243H64.9621C64.8424 36.4232 64.7238 36.4469 64.6138 36.4941C64.5038 36.5413 64.4048 36.6109 64.3231 36.6984C64.2415 36.7859 64.1789 36.8895 64.1395 37.0025C64.1 37.1155 64.0845 37.2355 64.094 37.3548L64.7862 49.332C64.8019 49.5814 64.9111 49.8158 65.092 49.9883C65.2729 50.1608 65.5122 50.2587 65.7621 50.2625H82.7264C82.8461 50.2636 82.9647 50.2399 83.0747 50.1927C83.1847 50.1455 83.2837 50.0759 83.3653 49.9884C83.447 49.9009 83.5095 49.7973 83.549 49.6843C83.5884 49.5713 83.6039 49.4513 83.5945 49.332L82.9023 37.3775C82.8866 37.1281 82.7774 36.8937 82.5965 36.7212C82.4156 36.5487 82.1763 36.4508 81.9264 36.447H74.6981C74.5413 36.4425 74.3879 36.4005 74.2507 36.3245C74.1135 36.2485 73.9965 36.1407 73.9095 36.0102Z" fill="#E0E0E0"/>
<path d="M83.6172 37.5648H68.077C67.7633 37.5689 67.4617 37.6859 67.2272 37.8943C66.9928 38.1027 66.8413 38.3885 66.8004 38.6995L65.8699 49.071C65.8528 49.2197 65.8678 49.3703 65.914 49.5127C65.9602 49.6551 66.0364 49.7859 66.1376 49.8962C66.2388 50.0065 66.3625 50.0938 66.5003 50.1521C66.6382 50.2104 66.7869 50.2384 66.9366 50.2341H82.4768C82.7951 50.2303 83.101 50.1098 83.3363 49.8954C83.5716 49.681 83.72 49.3876 83.7534 49.071L84.6895 38.6995C84.7015 38.5528 84.6825 38.4051 84.6337 38.2662C84.5849 38.1273 84.5074 38.0002 84.4062 37.8932C84.3051 37.7861 84.1826 37.7016 84.0467 37.645C83.9107 37.5884 83.7644 37.5611 83.6172 37.5648Z" fill="#E6E6E6"/>
<path d="M22.1541 57.9222L21.6435 57.2187C21.5537 57.0909 21.4349 56.9862 21.2968 56.9132C21.1587 56.8402 21.0053 56.801 20.8491 56.7989H17.2634C17.1136 56.7978 16.9661 56.8359 16.8357 56.9096C16.7053 56.9833 16.5965 57.0899 16.5201 57.2187L16.0946 57.9222C16.0166 58.0505 15.9065 58.1561 15.7751 58.2288C15.6438 58.3014 15.4957 58.3385 15.3457 58.3364H13.2067C13.0867 58.3361 12.968 58.3605 12.858 58.4084C12.748 58.4562 12.649 58.5263 12.5675 58.6143C12.4859 58.7022 12.4235 58.8061 12.3841 58.9194C12.3447 59.0327 12.3292 59.153 12.3386 59.2726L13.0308 71.2497C13.0465 71.4992 13.1557 71.7335 13.3366 71.906C13.5175 72.0785 13.7568 72.1764 14.0067 72.1802H30.971C31.0904 72.1805 31.2087 72.1562 31.3183 72.1087C31.4279 72.0612 31.5265 71.9916 31.608 71.9043C31.6895 71.817 31.752 71.7137 31.7918 71.6011C31.8316 71.4885 31.8477 71.3689 31.8391 71.2497L31.1355 59.2726C31.1212 59.0221 31.0126 58.7864 30.8316 58.6127C30.6506 58.439 30.4105 58.3403 30.1597 58.3364H22.9427C22.7878 58.3349 22.6355 58.2966 22.4984 58.2246C22.3613 58.1525 22.2432 58.0489 22.1541 57.9222Z" fill="#E0E0E0"/>
<path d="M31.8675 59.5041H16.3273C16.013 59.5081 15.7106 59.6248 15.4753 59.8331C15.2399 60.0414 15.0872 60.3274 15.0451 60.6388L14.1146 71.016C14.0984 71.1645 14.1141 71.3148 14.1606 71.4567C14.2072 71.5987 14.2835 71.7291 14.3844 71.8392C14.4854 71.9493 14.6087 72.0366 14.7461 72.0952C14.8835 72.1538 15.0319 72.1824 15.1812 72.1791H30.7215C31.0394 72.1741 31.3446 72.0531 31.5797 71.8389C31.8147 71.6248 31.9635 71.3321 31.998 71.016L32.9342 60.6388C32.9461 60.4926 32.9272 60.3454 32.8788 60.2069C32.8303 60.0684 32.7533 59.9416 32.6528 59.8346C32.5523 59.7277 32.4305 59.643 32.2952 59.5861C32.16 59.5292 32.0143 59.5012 31.8675 59.5041Z" fill="#E6E6E6"/>
<path d="M48.0318 57.9222L47.5212 57.2187C47.4315 57.0909 47.3127 56.9862 47.1746 56.9132C47.0365 56.8402 46.8831 56.801 46.7269 56.7989H43.1411C42.9913 56.7978 42.8439 56.8359 42.7135 56.9096C42.5831 56.9833 42.4742 57.0899 42.3979 57.2187L41.9723 57.9222C41.8943 58.0505 41.7842 58.1561 41.6529 58.2288C41.5215 58.3014 41.3735 58.3385 41.2234 58.3364H39.0788C38.9585 58.3352 38.8394 58.3591 38.729 58.4066C38.6186 58.4542 38.5193 58.5242 38.4375 58.6124C38.3558 58.7005 38.2934 58.8048 38.2543 58.9185C38.2153 59.0322 38.2004 59.1528 38.2107 59.2726L38.9029 71.2497C38.9186 71.4992 39.0277 71.7335 39.2086 71.906C39.3895 72.0785 39.6288 72.1764 39.8787 72.1802H56.8431C56.9625 72.1805 57.0807 72.1562 57.1903 72.1087C57.2999 72.0612 57.3986 71.9916 57.4801 71.9043C57.5615 71.817 57.6241 71.7137 57.6639 71.6011C57.7036 71.4885 57.7197 71.3689 57.7111 71.2497L57.0189 59.2726C57.0046 59.0221 56.8961 58.7864 56.715 58.6127C56.534 58.439 56.2939 58.3403 56.0431 58.3364H48.8205C48.6656 58.3349 48.5133 58.2966 48.3761 58.2246C48.239 58.1525 48.121 58.0489 48.0318 57.9222Z" fill="#E0E0E0"/>
<path d="M57.745 59.5041H42.2048C41.8901 59.5069 41.5871 59.6233 41.3515 59.8318C41.1159 60.0403 40.9635 60.3269 40.9225 60.6388L39.992 71.0103C39.9758 71.1588 39.9915 71.3091 40.0381 71.4511C40.0846 71.593 40.1609 71.7234 40.2619 71.8335C40.3629 71.9436 40.4862 72.0309 40.6236 72.0895C40.761 72.1481 40.9093 72.1767 41.0587 72.1734H56.5989C56.9169 72.1684 57.222 72.0474 57.4571 71.8333C57.6922 71.6191 57.841 71.3265 57.8755 71.0103L58.8116 60.6388C58.8236 60.4926 58.8047 60.3454 58.7562 60.2069C58.7077 60.0684 58.6308 59.9416 58.5303 59.8346C58.4298 59.7277 58.3079 59.643 58.1727 59.5861C58.0374 59.5292 57.8917 59.5012 57.745 59.5041Z" fill="#E6E6E6"/>
<path d="M73.9095 57.9222L73.3988 57.2187C73.3091 57.0909 73.1903 56.9862 73.0522 56.9132C72.9141 56.8402 72.7607 56.801 72.6045 56.7989H69.0187C68.869 56.7978 68.7215 56.8359 68.5911 56.9096C68.4607 56.9833 68.3519 57.0899 68.2755 57.2187L67.8443 57.9222C67.7681 58.0508 67.6591 58.1569 67.5286 58.2297C67.398 58.3024 67.2505 58.3393 67.101 58.3364H64.9621C64.8418 58.3352 64.7227 58.3591 64.6123 58.4066C64.5019 58.4542 64.4026 58.5242 64.3208 58.6124C64.2391 58.7005 64.1767 58.8048 64.1376 58.9185C64.0986 59.0322 64.0837 59.1528 64.094 59.2726L64.7862 71.2497C64.8019 71.4992 64.911 71.7335 65.0919 71.906C65.2728 72.0785 65.5121 72.1764 65.762 72.1802H82.7264C82.8458 72.1805 82.964 72.1562 83.0736 72.1087C83.1832 72.0612 83.2819 71.9916 83.3634 71.9043C83.4448 71.817 83.5074 71.7137 83.5472 71.6011C83.5869 71.4885 83.603 71.3689 83.5944 71.2497L82.9023 59.2726C82.8879 59.0221 82.7794 58.7864 82.5983 58.6127C82.4173 58.439 82.1772 58.3403 81.9264 58.3364H74.6981C74.5431 58.3354 74.3906 58.2973 74.2534 58.2252C74.1162 58.1531 73.9983 58.0493 73.9095 57.9222Z" fill="#E0E0E0"/>
<path d="M83.6172 59.5042H68.077C67.7634 59.5084 67.4617 59.6254 67.2273 59.8337C66.9928 60.0421 66.8413 60.328 66.8004 60.639L65.87 71.0105C65.8538 71.159 65.8695 71.3092 65.916 71.4512C65.9625 71.5931 66.0388 71.7235 66.1398 71.8336C66.2408 71.9437 66.3641 72.031 66.5015 72.0896C66.6389 72.1483 66.7873 72.1769 66.9366 72.1736H82.4768C82.7948 72.1685 83.1 72.0476 83.335 71.8334C83.5701 71.6192 83.7189 71.3266 83.7534 71.0105L84.6896 60.639C84.7015 60.4922 84.6825 60.3446 84.6337 60.2057C84.5849 60.0667 84.5074 59.9396 84.4063 59.8326C84.3052 59.7256 84.1826 59.6411 84.0467 59.5845C83.9108 59.5279 83.7644 59.5006 83.6172 59.5042Z" fill="#E6E6E6"/>
<path d="M20.469 166.011C20.469 165.812 21.1442 146.09 24.3498 142.97C27.4703 139.94 31.0504 142.856 31.2036 142.97L31.5213 142.584C31.4816 142.55 27.442 139.248 23.998 142.584C20.6506 145.841 19.9924 165.143 19.9697 165.965L20.469 166.011Z" fill="#E0E0E0"/>
<path d="M20.1908 169.885C20.2192 169.647 22.3865 146.209 13.825 136.41L13.4448 136.739C21.8646 146.385 19.7142 169.647 19.6859 169.857L20.1908 169.885Z" fill="#E0E0E0"/>
<path d="M20.5088 167.406L21.0138 167.372C21.0138 167.106 19.3116 140.706 25.6151 134.953L25.2747 134.584C18.818 140.519 20.4407 166.311 20.5088 167.406Z" fill="#E0E0E0"/>
<path d="M19.6916 167.39H20.1966C20.1966 166.658 19.9866 149.569 15.13 146.789C14.6704 146.489 14.1451 146.304 13.5988 146.25C13.0525 146.197 12.5013 146.277 11.9924 146.482C9.05345 147.697 7.60098 152.916 7.53857 153.143L8.02651 153.274C8.02651 153.223 9.4733 148.065 12.1853 146.942C12.6243 146.771 13.0978 146.706 13.5665 146.755C14.0352 146.803 14.4856 146.963 14.8803 147.22C19.4873 149.864 19.6916 167.214 19.6916 167.39Z" fill="#E0E0E0"/>
<path d="M21.581 167.401L22.0859 167.373C22.0859 167.242 21.354 153.869 24.9625 149.154C25.8362 148.02 26.7838 147.452 27.7993 147.543C30.1653 147.708 32.1454 151.169 32.1681 151.203L32.6049 150.953C32.5142 150.8 30.466 147.225 27.8334 147.038C26.6533 146.959 25.5639 147.566 24.571 148.854C20.8377 153.688 21.5526 166.845 21.581 167.401Z" fill="#E0E0E0"/>
<path d="M20.7926 169.222C20.889 167.922 23.1528 137.392 19.1756 132.014L18.7671 132.309C22.6365 137.54 20.316 168.87 20.2933 169.188L20.7926 169.222Z" fill="#E0E0E0"/>
<path d="M10.9089 149.573C10.9089 149.573 13.2975 150.453 12.611 152.529C11.9245 154.606 4.3558 158.027 4.3558 158.027C4.3558 158.027 1.19556 155.128 4.09481 150.419C6.99407 145.709 10.8465 148.087 10.9089 149.573Z" fill="#EBEBEB"/>
<path d="M21.2859 145.621C21.2859 145.621 18.7441 145.513 18.5966 147.703C18.4491 149.893 24.1057 155.958 24.1057 155.958C24.1057 155.958 28.1341 154.5 27.2717 149.036C26.4092 143.573 21.9157 144.276 21.2859 145.621Z" fill="#EBEBEB"/>
<path d="M23.4363 135.136C23.4363 135.136 21.7342 134.955 21.8761 133.922C22.0179 132.889 28.4632 130.234 32.2703 134.529C32.2703 134.529 29.8306 138.716 26.3072 138.773C22.7839 138.83 23.4363 135.136 23.4363 135.136Z" fill="#EBEBEB"/>
<path d="M20.2762 132.632C20.2762 132.632 21.8138 133.37 22.245 132.422C22.6762 131.475 18.6025 125.812 13.1047 127.441C13.1047 127.441 12.9572 132.286 15.9416 134.192C18.9259 136.099 20.2762 132.632 20.2762 132.632Z" fill="#EBEBEB"/>
<path d="M28.2987 148.741C28.2987 148.741 27.13 147.793 28.3895 147.334C29.6491 146.874 35.8447 147.004 35.9128 153.138C35.9128 153.138 28.7016 154.335 27.8051 152.003C26.9087 149.671 28.2987 148.741 28.2987 148.741Z" fill="#EBEBEB"/>
<path d="M13.5925 134.965C13.5925 134.965 14.7613 134.023 13.5018 133.563C12.2422 133.104 6.04654 133.262 5.98413 139.379C5.98413 139.379 13.1954 140.581 14.0862 138.244C14.9769 135.906 13.5925 134.965 13.5925 134.965Z" fill="#EBEBEB"/>
<path d="M17.4053 139.923C17.4053 139.923 17.5074 138.788 16.5826 139.225C15.6578 139.662 12.4294 143.157 15.7769 146.459C15.7769 146.459 20.2761 143.129 19.4648 141.387C18.6535 139.645 17.4053 139.923 17.4053 139.923Z" fill="#EBEBEB"/>
<path d="M29.3428 141.557C29.3428 141.557 28.6449 140.644 29.6718 140.53C30.6988 140.417 35.2831 141.665 34.2108 146.204C34.2108 146.204 28.6222 145.784 28.3839 143.878C28.1456 141.972 29.3428 141.557 29.3428 141.557Z" fill="#EBEBEB"/>
<path d="M10.4607 184.393H29.6378L31.7087 163.395H8.39551L10.4607 184.393Z" fill="#F0F0F0"/>
<path d="M7.37423 165.711H32.7356V161.076H7.37423V165.711Z" fill="#E6E6E6"/>
<path d="M110 210.742C170.755 210.742 220.007 207.866 220.007 204.319C220.007 200.772 170.755 197.896 110 197.896C49.2448 197.896 -0.00708008 200.772 -0.00708008 204.319C-0.00708008 207.866 49.2448 210.742 110 210.742Z" fill="#F5F5F5"/>
<path d="M71.1522 104.395C71.1012 106.482 70.721 109.138 69.0813 110.636C66.9707 112.536 63.4077 111.203 62.063 109.013" stroke="#263238" stroke-width="0.681955" stroke-linecap="round" stroke-linejoin="round"/>
<path d="M71.0388 120.412L76.1451 124.299C76.1451 124.299 77.4557 124.474 77.8188 124.951C78.1819 125.428 79.4188 128.832 79.1464 129.246C78.8741 129.66 76.1224 130.239 75.6231 129.66C75.1238 129.081 74.4883 125.984 74.5281 125.689L67.9409 121.394L71.0388 120.412Z" fill="#EEC1BB"/>
<path d="M74.5679 122.381L72.7807 125.439C72.7807 125.439 63.4135 119.578 61.8816 118.631C61.5412 118.426 60.849 117.456 60.032 116.038C57.0987 110.931 52.537 100.117 56.832 97.9727C59.1809 96.7983 60.5369 100.532 60.5369 100.532C60.5369 100.532 60.8093 101.717 61.2234 103.368C61.388 104.044 61.5752 104.804 61.7908 105.598C62.7383 109.309 63.9638 113.768 64.5482 114.296C65.5525 115.289 74.5679 122.381 74.5679 122.381Z" fill="#AF8B65"/>
<path opacity="0.2" d="M60.032 116.055C57.0987 110.949 52.537 100.135 56.832 97.9903C59.1809 96.8159 60.5369 100.549 60.5369 100.549C60.5369 100.549 60.8093 101.735 61.2234 103.386C61.4646 104.115 61.6541 104.86 61.7908 105.616C62.2561 108.299 62.5284 112.679 60.032 116.055Z" fill="black"/>
<path d="M46.7385 109.076C46.7385 109.076 43.686 110.12 38.5627 107.782C36.3272 106.766 30.9146 101.24 30.9146 101.24C30.9146 101.24 35.567 94.3581 48.4179 91.873C48.4179 91.873 56.8603 92.9681 63.2319 106.721C63.2319 106.721 56.9908 110.12 46.7385 109.076Z" fill="#AF8B65"/>
<path d="M56.8945 117.031L60.9455 122.024C60.9455 122.024 62.1767 122.506 62.4207 123.057C62.6647 123.607 63.0505 127.204 62.6874 127.545C62.3242 127.885 59.5158 127.794 59.164 127.108C58.8122 126.421 58.9257 123.267 59.0505 122.972L53.6719 117.235L56.8945 117.031Z" fill="#EEC1BB"/>
<path d="M56.3723 194.227L52.9284 194.834L51.5213 190.142L50.2334 185.836L54.1993 184.451L55.3511 189.626L56.3723 194.227Z" fill="#E4897B"/>
<path opacity="0.2" d="M55.3737 189.726L51.5383 190.237L50.239 185.88L54.2049 184.473L55.3737 189.726Z" fill="black"/>
<path d="M33.3996 195.808H29.9046L29.3315 190.889L28.8096 186.395L32.9627 185.709L33.1953 191.054L33.3996 195.808Z" fill="#E4897B"/>
<path opacity="0.2" d="M33.1953 191.099L29.3315 190.929L28.8096 186.418L32.9627 185.715L33.1953 191.099Z" fill="black"/>
<path d="M38.137 202.733C37.5811 202.284 36.9487 201.94 36.2704 201.717C36.2704 201.717 34.2392 199.709 33.2633 193.643L30.6081 192.951C30.1566 192.843 29.6829 192.876 29.2507 193.045C28.8185 193.215 28.4487 193.513 28.1911 193.899C28.1165 194.004 28.0591 194.121 28.0209 194.245C27.8812 194.904 27.7845 195.571 27.7315 196.242C27.5839 198.458 27.5706 200.68 27.6918 202.897H28.174L28.367 198.721C28.435 197.303 29.5017 198.965 29.8308 200.492C30.1598 202.018 30.801 203.646 33.9101 203.72C37.547 203.765 39.0789 203.618 38.137 202.733Z" fill="#263238"/>
<path d="M61.3199 202.321C60.7648 201.872 60.1322 201.528 59.4533 201.306C59.4533 201.306 57.4278 199.292 56.4519 193.232L53.7909 192.54C53.3401 192.431 52.8667 192.463 52.4346 192.631C52.0025 192.8 51.6323 193.097 51.3739 193.482C51.3 193.589 51.2444 193.708 51.2094 193.833C51.0693 194.482 50.9745 195.14 50.9257 195.802C50.6534 197.856 50.886 202.457 50.886 202.457H51.3626L51.5555 198.282C51.6293 196.863 52.6902 198.526 53.025 200.052C53.3597 201.578 53.9952 203.206 57.1044 203.28C60.7299 203.354 62.239 203.212 61.3199 202.321Z" fill="#263238"/>
<path d="M55.6972 186.999L50.0235 187.998C44.3101 173.774 40.2535 161.899 37.3826 152.055C35.8393 146.739 34.5457 142.007 33.6266 137.814L33.8025 153.298V188.174H28.2423C14.8694 124.475 13.2354 113.491 29.5075 102.501L31.238 100.924C31.238 100.924 31.8053 103.829 36.7244 106.819C40.8435 109.321 46.0236 109.485 46.0236 109.485L42.2903 113.037L43.0449 118.58L49.5753 152.333L55.6972 186.999Z" fill="#263238"/>
<g opacity="0.2">
<path d="M55.6972 186.999L50.0235 187.998C44.3101 173.774 40.2535 161.899 37.3826 152.055C35.8393 146.739 34.5457 142.007 33.6266 137.814L33.8025 153.298V188.174H28.2423C14.8694 124.475 13.2354 113.491 29.5075 102.501L31.238 100.924C31.238 100.924 31.8053 103.829 36.7244 106.819C40.8435 109.321 46.0236 109.485 46.0236 109.485L42.2903 113.037L43.0449 118.58L49.5753 152.333L55.6972 186.999Z" fill="white"/>
</g>
<path opacity="0.2" d="M37.3769 152.056C35.8337 146.74 34.6309 142.008 33.7061 137.815C33.7833 132.849 34.1432 127.892 34.7841 122.967C34.7841 122.967 37.2578 142.121 37.3769 152.056Z" fill="black"/>
<path d="M31.238 100.924C31.238 100.924 35.9585 107.165 46.7385 109.077L44.7187 110.751C38.8022 109.994 33.3795 107.061 29.5076 102.524L31.238 100.924Z" fill="black"/>
<path d="M43.3455 108.679C43.2999 108.57 43.2326 108.472 43.1478 108.39C43.0629 108.308 42.9622 108.244 42.8519 108.203L41.1498 107.51C40.9464 107.419 40.7184 107.398 40.5016 107.45C40.2849 107.502 40.0917 107.625 39.9526 107.8L39.3512 108.651C39.2874 108.739 39.2467 108.842 39.2329 108.95C39.219 109.058 39.2324 109.168 39.2718 109.269C39.3494 109.465 39.4998 109.624 39.6916 109.712L39.7654 109.746L41.4675 110.438C41.6719 110.526 41.8995 110.545 42.1156 110.492C42.3317 110.438 42.5245 110.316 42.6647 110.143L43.2604 109.298C43.3237 109.209 43.3646 109.107 43.3794 108.999C43.3943 108.891 43.3826 108.781 43.3455 108.679ZM41.6434 110.081L39.9413 109.388C39.8878 109.368 39.8391 109.337 39.7981 109.297C39.7571 109.257 39.7247 109.209 39.703 109.156C39.684 109.106 39.6777 109.053 39.6846 109C39.6916 108.948 39.7115 108.898 39.7427 108.855L40.3441 108.01C40.4095 107.926 40.5007 107.867 40.6035 107.841C40.7062 107.816 40.8146 107.825 40.9115 107.868L42.6136 108.56H42.6476C42.741 108.603 42.8142 108.68 42.8519 108.776C42.8709 108.825 42.8772 108.878 42.8702 108.931C42.8633 108.984 42.8433 109.033 42.8122 109.076L42.7214 109.201C42.7046 109.187 42.6854 109.175 42.6647 109.167L42.1881 108.969C42.116 108.934 42.0342 108.927 41.9572 108.948C41.8802 108.969 41.8132 109.016 41.7682 109.082C41.7506 109.115 41.7405 109.151 41.7386 109.188C41.7367 109.225 41.7431 109.261 41.7572 109.296C41.7713 109.33 41.7929 109.361 41.8203 109.385C41.8477 109.41 41.8803 109.429 41.9157 109.439L42.3866 109.638L42.1937 109.916C42.1322 109.991 42.05 110.047 41.9573 110.076C41.8646 110.105 41.7653 110.107 41.6718 110.081H41.6434Z" fill="white"/>
<path d="M72.2474 90.4769C72.9382 91.3463 73.439 92.351 73.7175 93.4259C73.9961 94.5009 74.0461 95.6224 73.8644 96.7179C73.4615 100.026 72.4176 104.831 72.9963 107.833C73.575 110.834 72.0147 113.779 70.5963 113.835C70.5963 113.835 72.3381 112.587 72.2644 110.755C72.1906 108.922 71.697 105.853 71.697 105.853C71.697 105.853 71.4531 108.95 69.4275 110.125C67.402 111.299 62.3525 109.387 60.7355 104.65C59.1185 99.9122 56.5256 98.6186 55.2377 96.5647C53.9497 94.5109 54.0178 92.5931 57.144 90.7492C60.2702 88.9053 69.558 87.1407 72.2474 90.4769Z" fill="#263238"/>
<path d="M59.5383 104.395L58.0575 103.612C56.9228 105.343 52.4803 103.612 52.4803 103.612C50.5172 100.14 53.5299 95.3457 53.5299 95.3457C54.3809 96.9173 57.3142 96.9173 57.9383 96.8889H58.0575L59.5383 104.395Z" fill="#EEC1BB"/>
<path opacity="0.2" d="M59.5383 104.395L58.0575 103.612C57.1684 103.244 56.2217 103.035 55.2604 102.994C55.2604 102.994 55.0221 99.4078 57.4901 97.178C57.6226 97.0576 57.7741 96.9598 57.9384 96.8887H58.0575L59.5383 104.395Z" fill="black"/>
<path d="M69.2345 89.3262C69.2345 89.3262 74.6131 91.9361 72.9281 96.5317C72.45 97.8428 71.6098 98.9914 70.5051 99.844C69.4004 100.697 68.0764 101.218 66.687 101.349L69.2345 89.3262Z" fill="#263238"/>
<path d="M67.3965 91.1693C71.2092 93.3651 71.266 96.1168 69.2802 100.208C66.8008 105.314 63.703 108.19 59.5328 104.395C53.8705 99.2203 61.0533 87.5212 67.3965 91.1693Z" fill="#EEC1BB"/>
<path d="M66.9367 98.5742C66.9135 99.3209 66.9802 100.068 67.1352 100.798C66.9328 100.891 66.7088 100.926 66.4876 100.9C66.2665 100.874 66.0567 100.788 65.8813 100.651L66.9367 98.5742Z" fill="#D4827D"/>
<path d="M64.7807 96.9515C64.6048 97.2692 64.2928 97.4281 64.0829 97.3146C63.8729 97.2011 63.8389 96.8493 64.0148 96.5316C64.1907 96.2139 64.497 96.0494 64.707 96.1628C64.9169 96.2763 64.9509 96.5997 64.7807 96.9515Z" fill="#263238"/>
<path d="M64.6104 96.1074L65.4501 96.2096C65.4501 96.2096 64.7919 96.6067 64.6104 96.1074Z" fill="#263238"/>
<path d="M68.7636 99.0054C68.5934 99.3231 68.2814 99.4877 68.0714 99.3742C67.8615 99.2607 67.8275 98.9033 67.9977 98.5855C68.1679 98.2678 68.4856 98.1033 68.6955 98.2224C68.9055 98.3416 68.9395 98.6877 68.7636 99.0054Z" fill="#263238"/>
<path d="M68.5823 98.1875L69.422 98.2953C69.422 98.2953 68.7752 98.6868 68.5823 98.1875Z" fill="#263238"/>
<path d="M66.2558 94.2625C65.9762 94.0509 65.6514 93.907 65.3069 93.842C64.9624 93.7771 64.6075 93.7928 64.27 93.888" stroke="#263238" stroke-width="0.681955" stroke-linecap="round" stroke-linejoin="round"/>
<path d="M69.1494 95.6973C69.4485 95.781 69.7246 95.9318 69.9566 96.1383C70.1886 96.3448 70.3705 96.6014 70.4884 96.8887" stroke="#263238" stroke-width="0.681955" stroke-linecap="round" stroke-linejoin="round"/>
<path d="M59.5042 95.203C59.5042 95.203 63.0956 93.0924 64.2133 90.5165C64.2133 90.5165 73.5579 91.7761 69.5125 99.6682C69.5125 99.6682 74.1763 93.2739 67.7026 89.3477C61.229 85.4216 55.7198 93.2058 57.49 98.0171C57.4843 98.0171 57.2914 96.5249 59.5042 95.203Z" fill="#263238"/>
<path d="M70.0459 89.4507C70.0459 89.4507 72.2473 90.6479 72.5877 92.0039C72.9281 93.3599 64.4346 95.0733 60.8659 93.5641C60.8659 93.5641 57.7056 95.7996 57.4617 98.018C57.4617 98.018 54.4433 95.0166 57.8418 89.4167C61.2403 83.8167 68.3778 85.5188 70.0459 89.4507Z" fill="#263238"/>
<path d="M59.6801 96.3839C59.8978 95.921 59.9233 95.3907 59.751 94.9091C59.5788 94.4274 59.2228 94.0336 58.761 93.8137C57.5014 93.2463 55.5383 95.3683 58.1482 97.6434C58.5227 97.9555 58.9993 97.6775 59.6801 96.3839Z" fill="#EEC1BB"/>
<path d="M72.5538 92.3789C72.5538 92.3789 68.4801 96.2427 63.1865 94.9945" stroke="#263238" stroke-width="0.681955" stroke-linecap="round" stroke-linejoin="round"/>
<path d="M63.1866 99.8516C63.1866 99.8516 62.8689 101.128 64.3951 102.405" stroke="#263238" stroke-width="0.681955" stroke-linecap="round" stroke-linejoin="round"/>
<path opacity="0.2" d="M54.6701 109.049C52.0312 109.345 49.3679 109.355 46.7269 109.077C46.2191 109.221 45.6943 109.295 45.1667 109.298C44.9226 108.261 44.7745 107.203 44.7241 106.138C44.5709 102.643 45.3426 96.4361 46.1879 95.3581C47.0333 94.2801 50.9368 95.8687 51.3964 98.8134C51.3964 98.8134 51.9297 106.757 52.6389 107.443C53.0474 107.806 53.9495 108.504 54.6701 109.049Z" fill="black"/>
<path d="M48.4178 92.3785C42.3356 93.2636 47.1469 111.868 48.4178 113.139C49.6887 114.409 57.3936 122.33 57.3936 122.33L59.856 119.782C59.856 119.782 52.7866 110.75 52.0206 109.615C51.2547 108.48 51.4078 95.2494 51.4078 95.2494C51.4078 95.2494 51.561 91.9246 48.4178 92.3785Z" fill="#AF8B65"/>
<path d="M205.8 37.6699H96.4683V204.13H205.8V37.6699Z" fill="#AF8B65"/>
<path opacity="0.6" d="M205.8 37.6699H96.4683V204.13H205.8V37.6699Z" fill="white"/>
<path opacity="0.2" d="M205.8 37.6699H163.338V204.13H205.8V37.6699Z" fill="black"/>
<path opacity="0.2" d="M159.758 126.742H99.6682V186.832H159.758V126.742Z" fill="black"/>
<path opacity="0.2" d="M159.758 126.742H144.581V186.832H159.758V126.742Z" fill="black"/>
<path opacity="0.2" d="M99.6682 126.742L117.228 144.297H144.575H159.758V126.742H99.6682Z" fill="black"/>
<path opacity="0.2" d="M159.758 61.5605H99.6682V121.651H159.758V61.5605Z" fill="black"/>
<path d="M158.045 61.5605H99.6682V121.651H158.045V61.5605Z" fill="#AF8B65"/>
<path opacity="0.7" d="M158.045 61.5605H99.6682V121.651H158.045V61.5605Z" fill="white"/>
<path d="M136.871 68.75H115.997V74.1343H136.871V68.75Z" fill="white"/>
<path opacity="0.1" d="M145.966 95.4784L140.439 88.1934H139.339V93.1408H137.881L139.759 95.4784C139.775 95.5009 139.785 95.5275 139.788 95.5554C139.79 95.5833 139.785 95.6113 139.773 95.6364C139.761 95.6616 139.742 95.6829 139.718 95.698C139.695 95.7132 139.667 95.7216 139.639 95.7223H123.901C123.762 95.7208 123.626 95.6879 123.502 95.626C123.378 95.564 123.27 95.4748 123.186 95.3649L121.484 93.1408H115.186L119.725 98.8145C119.81 98.919 119.917 99.0033 120.039 99.0612C120.16 99.1191 120.294 99.1492 120.428 99.1492H145.234C145.471 99.1492 145.699 99.0548 145.867 98.8867C146.036 98.7186 146.13 98.4906 146.13 98.2528V96.0117C146.133 95.8209 146.076 95.6341 145.966 95.4784Z" fill="black"/>
<path d="M139.696 87.8242H110.142C109.656 87.8242 109.262 88.218 109.262 88.7036V93.0043C109.262 93.49 109.656 93.8837 110.142 93.8837H139.696C140.182 93.8837 140.576 93.49 140.576 93.0043V88.7036C140.576 88.218 140.182 87.8242 139.696 87.8242Z" fill="#AF8B65"/>
<path opacity="0.2" d="M132.627 87.8242H110.142C109.656 87.8242 109.262 88.218 109.262 88.7036V93.0043C109.262 93.49 109.656 93.8837 110.142 93.8837H132.627C133.112 93.8837 133.506 93.49 133.506 93.0043V88.7036C133.506 88.218 133.112 87.8242 132.627 87.8242Z" fill="white"/>
<path d="M117.688 72.0178C118.832 71.6408 119.799 70.8576 120.405 69.8164C119.99 70.1052 119.649 70.489 119.411 70.936C119.173 71.383 119.045 71.8803 119.038 72.3866C120.048 72.5455 120.502 71.0022 121.489 70.7299L121.149 72.2277C121.405 72.2543 121.664 72.225 121.908 72.1417C122.152 72.0584 122.375 71.9233 122.561 71.7455C122.946 71.7547 123.329 71.6872 123.688 71.547C124.046 71.4067 124.373 71.1964 124.649 70.9285C124.555 70.7694 124.408 70.6493 124.233 70.5899C124.058 70.5306 123.867 70.536 123.696 70.6051L126.902 70.9058C126.814 70.8838 126.723 70.8831 126.635 70.9035C126.548 70.9239 126.466 70.9649 126.397 71.0231C126.328 71.0813 126.275 71.1551 126.24 71.2383C126.205 71.3215 126.191 71.4117 126.198 71.5015C126.222 71.5938 126.268 71.6788 126.333 71.7486C126.398 71.8183 126.479 71.8705 126.57 71.9005C126.66 71.9305 126.757 71.9372 126.851 71.92C126.944 71.9028 127.032 71.8623 127.106 71.8022C127.2 71.7268 127.268 71.6235 127.299 71.5072C127.314 71.4065 127.344 71.3088 127.39 71.2178C127.503 71.0589 127.736 71.076 127.923 71.1043C129.853 71.4058 131.813 71.4554 133.756 71.2519" stroke="#263238" stroke-width="0.482456" stroke-linecap="round" stroke-linejoin="round"/>
<path opacity="0.1" d="M159.758 155.398L163.338 159.852V204.13H109.699L96.4683 189.548L159.758 155.398Z" fill="black"/>
<path d="M127.951 44.7383H100.042V55.6261H127.951V44.7383Z" fill="#AF8B65"/>
<path d="M109.359 44.7383H100.042V55.6261H109.359V44.7383Z" fill="white"/>
<path d="M107.577 48.5403C107.277 50.197 107.101 50.946 107.64 52.1828C108.179 53.4197 107.889 53.6977 107.294 53.8849C106.698 54.0722 102.187 55.2126 101.836 53.5729C101.484 51.9332 102.131 51.9048 101.836 50.5658C101.541 49.2268 101.359 47.6439 101.881 46.8779C102.403 46.112 107.577 48.5403 107.577 48.5403Z" fill="#263238"/>
<path d="M100.565 54.2662C101.702 53.5454 103.033 53.1909 104.377 53.2506C105.951 53.3105 107.5 53.6546 108.95 54.2662V55.0662H100.565V54.2662Z" fill="#AF8B65"/>
<path d="M106.108 53.6022C106.026 53.8427 105.891 54.0618 105.713 54.2434C105.536 54.4251 105.32 54.5646 105.081 54.6518C104.298 54.4816 103.175 53.3582 103.175 53.3582C103.838 52.9781 103.708 51.8717 103.555 51.2022C103.518 51.0336 103.472 50.8669 103.419 50.7029L104.253 50.5781L105.484 51.6675C105.484 51.6675 105.484 51.7526 105.438 51.8831C105.33 52.3133 105.309 52.7608 105.376 53.1994C105.392 53.2496 105.415 53.2973 105.444 53.3412C105.529 53.4298 105.633 53.499 105.747 53.5441C105.862 53.5891 105.985 53.6089 106.108 53.6022Z" fill="#EEC1BB"/>
<path opacity="0.2" d="M105.461 53.294C105.322 53.2918 105.184 53.2688 105.052 53.226C104.264 52.982 103.799 51.8813 103.583 51.2005C103.527 51.0369 103.482 50.8702 103.447 50.7012L105.467 51.8813C105.358 52.3115 105.337 52.7591 105.404 53.1976C105.42 53.2315 105.439 53.2638 105.461 53.294Z" fill="black"/>
<path d="M105.245 45.9359C105.245 45.9359 107.384 45.8678 107.611 47.604C107.68 48.0983 107.607 48.6021 107.4 49.0562C107.193 49.5104 106.861 49.8962 106.443 50.1685L105.245 45.9359Z" fill="#263238"/>
<path d="M104.967 46.8277C106.545 46.8902 107.016 47.7526 107.067 49.3809C107.135 51.4121 106.63 52.8362 104.678 52.3255C102.023 51.6334 102.352 46.7256 104.967 46.8277Z" fill="#EEC1BB"/>
<path d="M106.057 49.25C106.172 49.4904 106.316 49.7154 106.488 49.9195C106.439 49.9835 106.373 50.0327 106.298 50.0617C106.223 50.0908 106.142 50.0985 106.062 50.084L106.057 49.25Z" fill="#D4827D"/>
<path d="M105.098 49.0859C105.098 49.2164 105.024 49.3186 104.933 49.3186C104.843 49.3186 104.78 49.2108 104.78 49.0803C104.78 48.9498 104.854 48.8477 104.945 48.8477C105.036 48.8477 105.098 48.9555 105.098 49.0859Z" fill="#263238"/>
<path d="M104.894 48.8539L105.177 48.7461C105.177 48.7461 105.047 48.9844 104.894 48.8539Z" fill="#263238"/>
<path d="M106.704 49.0803C106.704 49.2108 106.63 49.3186 106.545 49.3129C106.46 49.3072 106.392 49.2051 106.392 49.0803C106.392 48.9555 106.465 48.8477 106.55 48.8477C106.636 48.8477 106.709 48.9555 106.704 49.0803Z" fill="#263238"/>
<path d="M106.516 48.8539L106.8 48.7461C106.8 48.7461 106.658 48.9787 106.516 48.8539Z" fill="#263238"/>
<path d="M104.428 48.2794C104.414 48.2851 104.398 48.2851 104.383 48.2794C104.37 48.2656 104.363 48.2473 104.363 48.2283C104.363 48.2093 104.37 48.191 104.383 48.1772C104.482 48.0816 104.601 48.0106 104.732 47.9702C104.864 47.9297 105.002 47.921 105.138 47.9446C105.147 47.9453 105.156 47.9479 105.165 47.9524C105.173 47.9568 105.181 47.963 105.187 47.9705C105.192 47.978 105.197 47.9866 105.199 47.9958C105.201 48.005 105.202 48.0147 105.2 48.0241C105.196 48.0431 105.185 48.0599 105.169 48.0714C105.154 48.0829 105.134 48.0883 105.115 48.0865C105.004 48.066 104.889 48.0723 104.78 48.1048C104.672 48.1374 104.573 48.1953 104.491 48.2737C104.482 48.2792 104.471 48.2825 104.46 48.2835C104.45 48.2845 104.439 48.2831 104.428 48.2794Z" fill="#263238"/>
<path d="M106.891 48.2008H106.851C106.773 48.1358 106.682 48.0889 106.584 48.0634C106.486 48.0379 106.383 48.0344 106.284 48.0533C106.266 48.0588 106.246 48.0571 106.229 48.0487C106.212 48.0402 106.199 48.0256 106.193 48.0079C106.187 47.9898 106.189 47.9703 106.197 47.9534C106.206 47.9365 106.221 47.9235 106.238 47.9171C106.359 47.8893 106.484 47.8896 106.604 47.9182C106.724 47.9467 106.836 48.0027 106.93 48.0816C106.942 48.0959 106.949 48.114 106.949 48.1327C106.949 48.1514 106.942 48.1694 106.93 48.1838C106.919 48.1936 106.905 48.1996 106.891 48.2008Z" fill="#263238"/>
<path d="M103.141 49.4142C103.569 48.7313 103.815 47.9499 103.855 47.1447C103.855 47.1447 107.027 46.01 107.061 49.1645C107.061 49.1645 107.475 46.3618 104.792 46.1972C102.108 46.0327 101.637 49.4085 102.987 50.6454C102.965 50.6454 102.658 50.2085 103.141 49.4142Z" fill="#263238"/>
<path d="M105.523 45.8398C105.523 45.8398 106.42 45.8398 106.749 46.2256C107.078 46.6114 104.678 48.5575 103.294 48.6709C103.294 48.6709 102.664 49.9078 102.965 50.6454C102.965 50.6454 101.512 50.1972 101.66 47.8539C101.669 47.4087 101.798 46.9741 102.033 46.5958C102.268 46.2174 102.601 45.9092 102.995 45.7033C103.39 45.4974 103.833 45.4015 104.278 45.4255C104.723 45.4495 105.153 45.5926 105.523 45.8398Z" fill="#263238"/>
<path d="M103.39 49.7543C103.38 49.5722 103.299 49.4013 103.164 49.2783C103.029 49.1553 102.852 49.0899 102.67 49.0961C102.176 49.1302 101.909 50.123 103.112 50.4124C103.282 50.4521 103.39 50.2876 103.39 49.7543Z" fill="#EEC1BB"/>
<path d="M104.27 48.813C104.254 48.8122 104.239 48.8062 104.226 48.796C104.214 48.7857 104.205 48.7718 104.202 48.7562C104.198 48.7473 104.197 48.7377 104.197 48.7281C104.198 48.7185 104.201 48.7093 104.206 48.701C104.211 48.6928 104.218 48.6858 104.226 48.6806C104.234 48.6754 104.243 48.6722 104.253 48.6711C104.817 48.4941 105.334 48.1912 105.765 47.7853C106.195 47.3794 106.528 46.8811 106.738 46.3279C106.747 46.3138 106.76 46.303 106.775 46.2974C106.791 46.2917 106.808 46.2915 106.824 46.2968C106.84 46.302 106.853 46.3124 106.862 46.3263C106.871 46.3402 106.875 46.3567 106.874 46.3733C106.656 46.9489 106.31 47.4672 105.861 47.889C105.413 48.3107 104.875 48.6248 104.287 48.8073L104.27 48.813Z" fill="#263238"/>
<path d="M105.886 50.9587C105.695 50.9399 105.512 50.8678 105.36 50.7504C105.207 50.633 105.091 50.4752 105.024 50.2948C105.02 50.2768 105.024 50.2582 105.033 50.2424C105.042 50.2267 105.057 50.215 105.075 50.2097C105.094 50.2045 105.114 50.2069 105.131 50.2165C105.148 50.2261 105.16 50.242 105.166 50.2608C105.166 50.2608 105.279 50.6807 105.92 50.8282C105.938 50.8335 105.953 50.8451 105.962 50.8608C105.972 50.8766 105.975 50.8953 105.971 50.9133C105.969 50.9219 105.965 50.9298 105.959 50.9368C105.953 50.9437 105.946 50.9494 105.938 50.9536C105.93 50.9579 105.922 50.9605 105.913 50.9613C105.904 50.9622 105.895 50.9613 105.886 50.9587Z" fill="#263238"/>
<path d="M107.924 52.3486C107.908 52.3482 107.894 52.343 107.881 52.3339C107.869 52.3247 107.86 52.312 107.856 52.2975C107.822 52.2033 107.78 52.1121 107.731 52.0252C107.487 51.5224 107.429 50.9498 107.566 50.4082V50.3004C107.725 49.0352 107.901 47.5997 106.902 46.7146C106.896 46.7083 106.891 46.7008 106.888 46.6925C106.884 46.6842 106.882 46.6754 106.882 46.6664C106.882 46.6575 106.884 46.6486 106.888 46.6403C106.891 46.632 106.896 46.6245 106.902 46.6182C106.916 46.605 106.934 46.5977 106.953 46.5977C106.972 46.5977 106.991 46.605 107.004 46.6182C108.065 47.5487 107.878 49.0238 107.719 50.3231V50.4309C107.595 51.4295 107.719 51.6905 107.873 51.9628C107.921 52.0583 107.962 52.1568 107.997 52.2578C108.001 52.2664 108.003 52.2756 108.003 52.2848C108.003 52.2941 108.001 52.3033 107.997 52.3118C107.993 52.3203 107.988 52.3279 107.981 52.3343C107.974 52.3406 107.966 52.3455 107.958 52.3486H107.924Z" fill="#263238"/>
<path d="M119.118 47.5474H111.413C111.232 47.5474 111.059 47.4757 110.931 47.348C110.804 47.2203 110.732 47.0472 110.732 46.8666C110.732 46.7775 110.75 46.6892 110.784 46.6069C110.818 46.5246 110.868 46.4499 110.932 46.3872C110.995 46.3244 111.07 46.2748 111.153 46.2412C111.235 46.2076 111.324 46.1907 111.413 46.1914H119.118C119.297 46.1914 119.468 46.2626 119.595 46.3892C119.722 46.5158 119.793 46.6875 119.793 46.8666C119.794 46.9557 119.777 47.0441 119.743 47.1267C119.709 47.2093 119.66 47.2844 119.597 47.3477C119.534 47.411 119.46 47.4612 119.377 47.4955C119.295 47.5298 119.207 47.5474 119.118 47.5474Z" fill="white"/>
<path d="M124.451 50.8273H111.265C111.124 50.8273 110.988 50.7711 110.888 50.671C110.788 50.571 110.732 50.4354 110.732 50.2939C110.727 50.2211 110.738 50.1481 110.762 50.0794C110.787 50.0107 110.826 49.9478 110.876 49.8946C110.926 49.8414 110.986 49.7991 111.053 49.7702C111.12 49.7412 111.192 49.7264 111.265 49.7266H124.451C124.524 49.7264 124.596 49.7412 124.663 49.7702C124.73 49.7991 124.791 49.8414 124.841 49.8946C124.891 49.9478 124.929 50.0107 124.954 50.0794C124.979 50.1481 124.989 50.2211 124.984 50.2939C124.984 50.4354 124.928 50.571 124.828 50.671C124.728 50.7711 124.592 50.8273 124.451 50.8273Z" fill="white"/>
<path d="M122.181 52.8809H111.265C111.124 52.8809 110.988 52.8247 110.888 52.7247C110.788 52.6247 110.732 52.489 110.732 52.3476C110.731 52.2771 110.744 52.2071 110.771 52.1418C110.797 52.0764 110.837 52.0169 110.886 51.9668C110.936 51.9167 110.995 51.8769 111.06 51.8497C111.125 51.8226 111.195 51.8086 111.265 51.8086H122.181C122.252 51.8086 122.322 51.8226 122.387 51.8497C122.452 51.8769 122.511 51.9167 122.561 51.9668C122.61 52.0169 122.649 52.0764 122.676 52.1418C122.702 52.2071 122.716 52.2771 122.715 52.3476C122.715 52.489 122.659 52.6247 122.559 52.7247C122.459 52.8247 122.323 52.8809 122.181 52.8809Z" fill="white"/>
<path d="M155.168 133.324H123.01L122.681 131.247C122.646 131.019 122.53 130.812 122.353 130.663C122.177 130.515 121.952 130.436 121.722 130.442H112.837C112.589 130.448 112.349 130.528 112.147 130.672C111.945 130.815 111.79 131.016 111.702 131.247L110.925 133.324H103.708C103.024 133.337 102.367 133.597 101.859 134.055C101.352 134.514 101.027 135.141 100.945 135.82L96.5477 176.103C96.5032 176.418 96.5277 176.739 96.6194 177.044C96.7112 177.348 96.8679 177.629 97.0789 177.867C97.2899 178.105 97.55 178.294 97.8413 178.422C98.1326 178.549 98.4481 178.612 98.7661 178.606H150.226C150.91 178.591 151.566 178.33 152.073 177.87C152.58 177.41 152.903 176.783 152.984 176.103L157.381 135.82C157.425 135.506 157.401 135.186 157.31 134.882C157.218 134.579 157.062 134.298 156.851 134.061C156.641 133.823 156.381 133.635 156.091 133.507C155.8 133.38 155.485 133.317 155.168 133.324Z" fill="#AF8B65"/>
<path opacity="0.4" d="M155.168 133.324H123.01L122.681 131.247C122.646 131.019 122.53 130.812 122.353 130.663C122.177 130.515 121.952 130.436 121.722 130.442H112.837C112.589 130.448 112.349 130.528 112.147 130.672C111.945 130.815 111.79 131.016 111.702 131.247L110.925 133.324H103.708C103.024 133.337 102.367 133.597 101.859 134.055C101.352 134.514 101.027 135.141 100.945 135.82L96.5477 176.103C96.5032 176.418 96.5277 176.739 96.6194 177.044C96.7112 177.348 96.8679 177.629 97.0789 177.867C97.2899 178.105 97.55 178.294 97.8413 178.422C98.1326 178.549 98.4481 178.612 98.7661 178.606H150.226C150.91 178.591 151.566 178.33 152.073 177.87C152.58 177.41 152.903 176.783 152.984 176.103L157.381 135.82C157.425 135.506 157.401 135.186 157.31 134.882C157.218 134.579 157.062 134.298 156.851 134.061C156.641 133.823 156.381 133.635 156.091 133.507C155.8 133.38 155.485 133.317 155.168 133.324Z" fill="black"/>
<path d="M96.6328 177.061L98.3576 135.178H153.994L151.225 176.142L96.6328 177.061Z" fill="#AF8B65"/>
<path opacity="0.7" d="M96.6328 177.061L98.3576 135.178H153.994L151.225 176.142L96.6328 177.061Z" fill="white"/>
<path d="M149.512 178.761H98.0457C97.7303 178.771 97.4161 178.719 97.1211 178.607C96.8261 178.495 96.5562 178.325 96.3268 178.109C96.0975 177.892 95.9132 177.632 95.7846 177.344C95.6561 177.056 95.5857 176.745 95.5776 176.43L95.8897 138.858C95.9148 138.218 96.1919 137.614 96.6606 137.177C97.1292 136.741 97.7515 136.507 98.3918 136.527H149.858C150.173 136.517 150.487 136.569 150.782 136.681C151.077 136.793 151.347 136.963 151.577 137.179C151.806 137.396 151.99 137.656 152.119 137.944C152.247 138.232 152.318 138.543 152.326 138.858L152.019 176.43C151.991 177.07 151.713 177.673 151.243 178.109C150.774 178.546 150.152 178.78 149.512 178.761Z" fill="#AF8B65"/>
<path opacity="0.25" d="M149.512 178.761H98.0457C97.7303 178.771 97.4161 178.719 97.1211 178.607C96.8261 178.495 96.5562 178.325 96.3268 178.109C96.0975 177.892 95.9132 177.632 95.7846 177.344C95.6561 177.056 95.5857 176.745 95.5776 176.43L95.8897 138.858C95.9148 138.218 96.1919 137.614 96.6606 137.177C97.1292 136.741 97.7515 136.507 98.3918 136.527H149.858C150.173 136.517 150.487 136.569 150.782 136.681C151.077 136.793 151.347 136.963 151.577 137.179C151.806 137.396 151.99 137.656 152.119 137.944C152.247 138.232 152.318 138.543 152.326 138.858L152.019 176.43C151.991 177.07 151.713 177.673 151.243 178.109C150.774 178.546 150.152 178.78 149.512 178.761Z" fill="black"/>
<path opacity="0.15" d="M128.859 136.527L129.903 174.643H101.745L100.111 136.527H128.859Z" fill="black"/>
<path d="M120.542 132.045H88.3831L87.8158 129.979C87.7555 129.749 87.6203 129.544 87.4314 129.398C87.2424 129.253 87.0105 129.174 86.7718 129.174H77.9038C77.6652 129.174 77.4332 129.253 77.2443 129.398C77.0554 129.544 76.9202 129.749 76.8599 129.979L76.2925 132.045H69.0813C68.4222 132.045 67.7901 132.307 67.324 132.773C66.858 133.239 66.5962 133.871 66.5962 134.53V174.609C66.5962 175.268 66.858 175.9 67.324 176.366C67.7901 176.832 68.4222 177.094 69.0813 177.094H120.542C121.201 177.094 121.834 176.832 122.301 176.366C122.768 175.9 123.031 175.268 123.032 174.609V134.53C123.031 133.87 122.768 133.238 122.301 132.772C121.834 132.306 121.201 132.045 120.542 132.045Z" fill="#AF8B65"/>
<path opacity="0.15" d="M120.542 132.045H88.3831L87.8158 129.979C87.7555 129.749 87.6203 129.544 87.4314 129.398C87.2424 129.253 87.0105 129.174 86.7718 129.174H77.9038C77.6652 129.174 77.4332 129.253 77.2443 129.398C77.0554 129.544 76.9202 129.749 76.8599 129.979L76.2925 132.045H69.0813C68.4222 132.045 67.7901 132.307 67.324 132.773C66.858 133.239 66.5962 133.871 66.5962 134.53V174.609C66.5962 175.268 66.858 175.9 67.324 176.366C67.7901 176.832 68.4222 177.094 69.0813 177.094H120.542C121.201 177.094 121.834 176.832 122.301 176.366C122.768 175.9 123.031 175.268 123.032 174.609V134.53C123.031 133.87 122.768 133.238 122.301 132.772C121.834 132.306 121.201 132.045 120.542 132.045Z" fill="black"/>
<path d="M66.7837 175.564L63.9355 133.891H119.572L121.274 174.645L66.7837 175.564Z" fill="#AF8B65"/>
<path opacity="0.8" d="M66.7837 175.564L63.9355 133.891H119.572L121.274 174.645L66.7837 175.564Z" fill="white"/>
<path d="M119.844 177.254H68.3836C67.7263 177.26 67.0889 177.029 66.5886 176.603C66.0883 176.176 65.7586 175.584 65.6602 174.934L61.8646 137.555C61.8377 137.248 61.8776 136.939 61.9815 136.649C62.0853 136.359 62.2507 136.094 62.4662 135.874C62.6817 135.653 62.9424 135.482 63.2302 135.372C63.5181 135.262 63.8264 135.215 64.134 135.235H115.6C116.257 135.228 116.894 135.459 117.394 135.886C117.894 136.312 118.222 136.906 118.318 137.555L122.113 174.934C122.14 175.241 122.1 175.55 121.997 175.84C121.893 176.131 121.727 176.395 121.512 176.615C121.296 176.836 121.036 177.007 120.748 177.117C120.46 177.227 120.152 177.274 119.844 177.254Z" fill="#AF8B65"/>
<path d="M106.437 163.478L159.758 155.398V184.431L110.341 193.889L106.437 163.478Z" fill="#AF8B65"/>
<path opacity="0.5" d="M106.437 163.478L159.758 155.398V184.431L110.341 193.889L106.437 163.478Z" fill="white"/>
<path opacity="0.7" d="M106.437 163.478L107.186 164.3L159.758 156.215V155.398L106.437 163.478Z" fill="white"/>
<path opacity="0.2" d="M115.186 162.156L117.591 162.701L119.572 192.125L110.341 193.889L106.437 163.478L115.186 162.156Z" fill="black"/>
<path d="M115.186 197.713H55.1014L51.3228 138.52H111.413L115.186 197.713Z" fill="#AF8B65"/>
<path opacity="0.7" d="M115.186 197.713H55.1014L51.3228 138.52H111.413L115.186 197.713Z" fill="white"/>
<path opacity="0.2" d="M115.186 197.713H113.478L109.699 138.52H111.413L115.186 197.713Z" fill="black"/>
<path d="M89.3137 150.912H68.4402L68.1055 145.602H88.9789L89.3137 150.912Z" fill="white"/>
<path opacity="0.1" d="M99.7534 171.933L93.7677 164.756H92.667L92.979 169.63H91.5209L93.5407 171.933C93.5594 171.953 93.5718 171.978 93.5765 172.005C93.5812 172.032 93.5779 172.06 93.5671 172.085C93.5563 172.111 93.5384 172.132 93.5156 172.147C93.4928 172.163 93.4661 172.171 93.4386 172.171H77.6998C77.5588 172.17 77.4198 172.137 77.2924 172.076C77.1651 172.016 77.0525 171.928 76.9622 171.82L75.1353 169.63H68.8262L73.7396 175.229C73.829 175.333 73.9395 175.417 74.0638 175.474C74.188 175.532 74.3232 175.563 74.4601 175.564H99.2712C99.3858 175.566 99.4996 175.544 99.6054 175.5C99.7111 175.455 99.8065 175.389 99.8854 175.306C99.9643 175.223 100.025 175.124 100.064 175.016C100.103 174.908 100.119 174.794 100.111 174.679L99.969 172.472C99.9546 172.274 99.8793 172.086 99.7534 171.933Z" fill="black"/>
<path d="M93.3819 170.367H63.8276C63.5921 170.365 63.3659 170.275 63.1936 170.114C63.0214 169.954 62.9156 169.734 62.8972 169.499L62.6248 165.261C62.6169 165.149 62.6324 165.037 62.6704 164.931C62.7084 164.826 62.7681 164.729 62.8455 164.648C62.923 164.567 63.0165 164.503 63.1202 164.46C63.2238 164.417 63.3353 164.396 63.4475 164.399H92.979C93.2143 164.401 93.4404 164.49 93.6135 164.649C93.7865 164.809 93.8941 165.027 93.9152 165.261L94.1818 169.499C94.1904 169.61 94.1761 169.721 94.1399 169.825C94.1036 169.93 94.0461 170.026 93.9711 170.108C93.896 170.189 93.8049 170.254 93.7035 170.299C93.6022 170.344 93.4927 170.367 93.3819 170.367Z" fill="#AF8B65"/>
<path opacity="0.2" d="M86.3124 170.367H63.8276C63.5921 170.365 63.3659 170.275 63.1936 170.114C63.0214 169.954 62.9156 169.734 62.8972 169.499L62.6248 165.261C62.6169 165.149 62.6324 165.037 62.6704 164.931C62.7084 164.826 62.7681 164.729 62.8455 164.648C62.923 164.567 63.0165 164.503 63.1202 164.46C63.2238 164.417 63.3353 164.396 63.4475 164.399H85.9323C86.1674 164.399 86.3935 164.488 86.5659 164.648C86.7383 164.808 86.8443 165.027 86.8628 165.261L87.1351 169.499C87.143 169.611 87.1275 169.724 87.0895 169.83C87.0516 169.936 86.992 170.033 86.9147 170.114C86.8373 170.196 86.7438 170.261 86.6402 170.304C86.5365 170.348 86.4249 170.369 86.3124 170.367Z" fill="white"/>
<path d="M70.1992 148.261C70.5891 148.39 71.009 148.395 71.4019 148.276C71.7948 148.157 72.1415 147.92 72.3949 147.597C72.3949 148.046 72.2644 148.624 72.2928 149.135C72.6939 148.732 73.0205 148.262 73.2573 147.745C72.8375 148.67 73.9382 148.88 74.585 148.573C74.7997 148.475 74.9836 148.32 75.1166 148.125C75.2496 147.93 75.3267 147.703 75.3396 147.467C75.3396 147.319 75.2772 147.138 75.1296 147.11C74.9821 147.081 74.8687 147.206 74.7949 147.325C74.5339 147.728 74.2275 148.84 74.863 148.976C75.4984 149.112 76.236 148.04 76.4062 147.603C76.2344 147.69 76.0923 147.826 75.9983 147.993C75.9043 148.161 75.8626 148.353 75.8786 148.545C76.5367 148.517 77.4388 148.675 77.4785 147.79C77.4218 148.959 78.5339 148.562 78.9424 147.79C78.8119 148.205 79.4303 148.414 79.8615 148.409L85.6543 148.278" stroke="#263238" stroke-width="0.482456" stroke-linecap="round" stroke-linejoin="round"/>
</g>
<defs>
<clipPath id="clip0_118_1189">
<rect width="220" height="220" fill="white"/>
</clipPath>
</defs>
</svg>
