<svg width="44" height="44" viewBox="0 0 44 44" fill="none" xmlns="http://www.w3.org/2000/svg">
<path opacity="0.5" d="M22 40.3337V36.667" stroke="#D1A77A" stroke-width="1.5" stroke-linecap="round"/>
<path d="M7.33325 30.3646C10.7953 34.2327 15.8264 36.667 21.4261 36.667C31.8682 36.667 40.3333 28.202 40.3333 17.7598C40.3333 12.1601 37.899 7.12903 34.0309 3.66699" stroke="#D1A77A" stroke-width="1.5" stroke-linecap="round"/>
<path opacity="0.5" d="M12.8334 8.34648C13.9063 9.35963 16.1163 12.1289 16.3738 15.1008C16.6144 17.8787 18.3825 20.136 21.0834 20.1665C22.1214 20.1783 23.1711 19.4007 23.1685 18.3242C23.1676 17.9913 23.1146 17.651 23.0317 17.3379C22.9164 16.9024 22.9062 16.4013 23.1459 15.8888C23.9845 14.0958 25.6338 13.6141 26.9407 12.6404C27.5203 12.2085 28.0491 11.7529 28.2823 11.3859C28.926 10.3728 29.5697 8.34648 29.2478 7.33333M24.3669 31.1667C23.9643 30.408 23.4007 28.4356 24.3669 26.6149C25.5745 24.3391 29.6001 24.3391 29.6001 24.3391C32.7012 24.3067 33.8194 22.9063 34.3447 21.6582M34.8334 18.3333C34.8334 25.421 29.0877 31.1667 22.0001 31.1667C14.9124 31.1667 9.16675 25.421 9.16675 18.3333C9.16675 11.2457 14.9124 5.5 22.0001 5.5C29.0877 5.5 34.8334 11.2457 34.8334 18.3333Z" stroke="#D1A77A" stroke-width="1.5"/>
<path d="M18.3333 40.333H25.6666" stroke="#D1A77A" stroke-width="1.5" stroke-linecap="round"/>
</svg>
