<svg width="64" height="64" viewBox="0 0 64 64" fill="none" xmlns="http://www.w3.org/2000/svg">
<g clip-path="url(#clip0_112_542)">
<path d="M59.785 26.0225C59.7667 26.0938 59.7484 26.1651 59.7301 26.2376C59.2611 27.6398 58.5382 29.603 57.5122 31.9024C53.5671 40.7426 45.1347 54.5489 29.3497 60.5002C38.8161 58.8056 51.9417 51.9012 57.885 36.6166C57.885 36.7046 57.8885 36.7913 57.8885 36.8793C57.8885 48.3992 51.9543 58.4776 43.0884 63.9999C53.6368 58.8329 60.9379 47.6873 60.9379 34.7676C60.9379 31.748 60.5376 28.8246 59.7918 26.0522C59.7895 26.0427 59.7872 26.0332 59.7838 26.0237L59.785 26.0225Z" fill="#8C8C8E"/>
<path d="M41.3688 18L41.2258 17.9287L40.1025 18.9768C40.5864 18.6061 41.0119 18.2769 41.3676 18H41.3688Z" fill="white"/>
<path d="M27.3716 15.338C30.0962 12.726 31.8154 9.32972 32.3473 5.68623C37.1846 6.4955 41.6387 8.48956 45.4282 11.3737L48.9044 9.24535C43.6404 4.99579 37.029 2.4646 29.8469 2.4646C19.1131 2.4646 9.649 8.11522 4.0625 16.7094C9.641 9.72782 18.0585 5.281 27.4746 5.281C28.2661 5.281 29.0508 5.31308 29.8263 5.37488C29.5483 7.0564 28.5749 11.1039 25.3756 14.6036C21.6639 13.3749 18.9175 13.2038 18.9175 13.2038C20.8792 13.8894 22.7254 14.6642 24.4594 15.5294C21.9487 17.8776 18.2976 19.8348 12.9867 20.4218C18.3799 20.587 22.8443 19.016 26.1386 16.4135C29.4374 18.2507 32.2867 20.4503 34.6887 23.0314C35.4231 22.4955 36.1266 21.9762 36.7911 21.483C33.7885 18.4848 30.3925 16.5644 27.3728 15.3392L27.3716 15.338Z" fill="#8C8C8E"/>
<path d="M52.8048 26.2292C29.4225 50.5228 9.08963 51.2263 3.32812 45.5935C16.2054 65.8383 43.1474 41.3689 52.8048 26.2292Z" fill="#4267B2"/>
<path d="M54.6697 28.8699C34.3369 60.9091 15.8673 56.5074 15.8673 56.5074C32.1338 64.2531 46.7063 47.7053 54.6697 28.8699Z" fill="#4267B2"/>
<path d="M38.4714 32.5764C40.8551 30.9721 43.001 29.4854 44.878 28.1604C46.4805 27.0279 47.8852 26.0143 49.069 25.1468C50.1488 24.3553 51.0444 23.6875 51.741 23.1622L57.5506 26.0535L63.9996 0L48.9032 9.2454L45.4271 11.3737L37.6375 16.1438L41.2246 17.9287L41.3676 18C41.0107 18.2769 40.5852 18.6061 40.1025 18.9768C39.1874 19.6791 38.0619 20.5336 36.7888 21.4807C36.1254 21.975 35.4219 22.4932 34.6864 23.0291C32.0831 24.9281 29.0931 27.0351 26.1214 28.9709C18.4096 33.9952 8.22375 39.205 4.19973 32.1414C-0.0153112 24.7403 9.61237 12.6845 9.61237 12.6845C9.61237 12.6845 -5.05163 26.2068 1.84228 38.0535C9.05646 50.4492 26.7104 40.4884 38.4702 32.5764H38.4714Z" fill="#4267B2"/>
</g>
<defs>
<clipPath id="clip0_112_542">
<rect width="64" height="64" fill="white"/>
</clipPath>
</defs>
</svg>
