<svg width="503" height="532" viewBox="0 0 503 532" fill="none" xmlns="http://www.w3.org/2000/svg">
<path d="M204.027 304.876C203.935 304.959 203.848 305.047 203.765 305.138L203.017 305.913L200.129 308.971L189.235 320.639L150.635 362.258H151.081L107.296 312.108L106.995 311.767L106.745 312.147L103.556 316.951L70.4285 366.826L70.8878 366.747L39.0468 341.311L38.863 341.166L38.7055 341.337L14.3981 368.899L7.83566 376.42L6.12944 378.389C5.74883 378.835 5.56508 379.071 5.56508 379.071C5.56508 379.071 5.78816 378.861 6.18192 378.441L7.91441 376.42L14.6081 368.991L39.073 341.626H38.7318L70.4941 367.233L70.7566 367.443L70.9535 367.154L104.12 317.358L107.323 312.541H106.785C122.718 330.785 137.707 347.913 150.622 362.691L150.845 362.941L151.068 362.691C166.923 345.445 180.192 331.034 189.498 320.902L200.26 309.089L203.082 305.965C203.384 305.611 203.62 305.349 203.804 305.152C203.988 304.955 204.04 304.889 204.027 304.876Z" fill="#E6E6E6"/>
<path d="M155.163 362.598C155.17 363.51 154.907 364.404 154.405 365.165C153.903 365.927 153.186 366.522 152.345 366.874C151.504 367.227 150.577 367.321 149.683 367.145C148.788 366.969 147.966 366.531 147.321 365.886C146.676 365.241 146.238 364.419 146.062 363.524C145.886 362.629 145.98 361.703 146.333 360.862C146.685 360.021 147.28 359.304 148.041 358.802C148.803 358.3 149.696 358.036 150.608 358.044C151.814 358.051 152.969 358.533 153.821 359.386C154.674 360.238 155.156 361.393 155.163 362.598Z" fill="#E0E0E0"/>
<path d="M74.7463 368.073C74.741 368.982 74.4662 369.869 73.9565 370.622C73.4468 371.375 72.7252 371.96 71.8831 372.302C71.041 372.645 70.1162 372.73 69.2258 372.546C68.3354 372.363 67.5194 371.919 66.8812 371.272C66.243 370.624 65.8112 369.802 65.6406 368.909C65.4699 368.016 65.568 367.093 65.9225 366.256C66.277 365.418 66.8719 364.705 67.6319 364.207C68.3919 363.708 69.2828 363.446 70.1919 363.453C71.408 363.464 72.5703 363.956 73.424 364.822C74.2777 365.688 74.7533 366.857 74.7463 368.073Z" fill="#E0E0E0"/>
<path d="M43.4695 342.783C43.4617 343.689 43.1854 344.572 42.6757 345.321C42.1659 346.07 41.4454 346.651 40.6055 346.991C39.7656 347.33 38.8438 347.413 37.9568 347.228C37.0699 347.044 36.2575 346.601 35.6224 345.955C34.9873 345.309 34.5581 344.489 34.389 343.599C34.2199 342.709 34.3185 341.789 34.6724 340.955C35.0262 340.121 35.6194 339.41 36.377 338.913C37.1345 338.417 38.0224 338.156 38.9283 338.163C40.1421 338.177 41.301 338.671 42.1519 339.536C43.0029 340.402 43.4765 341.569 43.4695 342.783Z" fill="#E0E0E0"/>
<path d="M111.627 312.728C111.622 313.637 111.347 314.524 110.838 315.277C110.328 316.029 109.606 316.614 108.764 316.956C107.922 317.299 106.997 317.384 106.107 317.2C105.216 317.017 104.401 316.573 103.762 315.926C103.124 315.279 102.692 314.456 102.522 313.563C102.351 312.671 102.449 311.747 102.804 310.91C103.158 310.073 103.753 309.36 104.513 308.861C105.273 308.362 106.164 308.1 107.073 308.108C108.289 308.118 109.451 308.61 110.305 309.476C111.159 310.342 111.634 311.511 111.627 312.728Z" fill="#E0E0E0"/>
<path d="M9.18742 379.203C9.1822 380.112 8.90735 380.999 8.39768 381.752C7.888 382.505 7.16644 383.09 6.32432 383.432C5.48219 383.774 4.55737 383.859 3.66697 383.676C2.77656 383.493 1.96057 383.049 1.32236 382.402C0.684139 381.754 0.252382 380.932 0.0817213 380.039C-0.0889406 379.146 0.00917816 378.223 0.363662 377.386C0.718145 376.548 1.31304 375.835 2.07305 375.336C2.83306 374.838 3.724 374.575 4.63307 374.583C5.84913 374.594 7.01146 375.086 7.8652 375.952C8.71894 376.818 9.19442 377.987 9.18742 379.203Z" fill="#E0E0E0"/>
<path d="M411.519 31.6299H441.01V148.927H411.519V31.6299Z" fill="#E6E6E6"/>
<path d="M368.141 57.209H397.633V148.913H368.141V57.209Z" fill="#E6E6E6"/>
<path d="M324.094 78.1582H353.585V148.915H324.094V78.1582Z" fill="#E6E6E6"/>
<path d="M283.315 106.903H312.806V148.929H283.315V106.903Z" fill="#E6E6E6"/>
<path d="M306.926 2.36035C306.926 2.36035 307.202 2.71472 307.74 3.34472L310.195 6.16658L319.526 16.7978L353.179 54.8601L353.362 55.057L353.572 54.8995L375.53 38.0733H375.084L405.797 77.0018L406.164 77.4743L406.387 77.7631L406.663 77.5137L448.019 40.987H447.56C463.796 62.3019 477.551 80.5062 487.394 93.3818L498.852 108.357L501.91 112.295L502.711 113.305C502.8 113.425 502.897 113.539 503 113.647C502.925 113.519 502.842 113.396 502.75 113.279L501.989 112.229L499.01 108.2L487.709 93.1193L448.072 40.5408L447.862 40.2652L447.613 40.4883L406.203 76.9231H406.702L406.335 76.4506L375.583 37.5483L375.386 37.2989L375.137 37.4958L353.218 54.3088H353.612L319.789 16.5484C315.707 12.0203 312.505 8.46345 310.313 6.04846L307.806 3.29222C307.228 2.63597 306.926 2.36035 306.926 2.36035Z" fill="#E6E6E6"/>
<path d="M311.796 29.5687C311.806 29.3696 311.784 29.1701 311.73 28.9781L311.402 27.2981C311.061 25.7362 310.601 23.6625 310.09 21.1294C308.921 15.8794 307.268 8.7132 305.365 0.68074L304.945 1.07449L306.428 1.53386C314.657 4.06697 322.112 6.31133 327.519 7.91258L333.938 9.76319L335.696 10.2357C335.898 10.3109 336.111 10.3509 336.326 10.3538C336.138 10.2515 335.94 10.168 335.736 10.1044L334.016 9.51382L327.664 7.45321C322.296 5.73384 314.854 3.41073 306.664 0.890738L305.181 0.44449L304.603 0.260742L304.748 0.85136C306.572 8.92319 308.239 16.0632 309.551 21.2475C310.195 23.7544 310.72 25.815 311.1 27.3637C311.284 28.0069 311.441 28.5581 311.56 29.0043C311.61 29.2031 311.69 29.3932 311.796 29.5687Z" fill="#E6E6E6"/>
<path d="M79.1434 200.691C73.283 200.596 67.526 202.241 62.6002 205.417C57.6745 208.594 53.8013 213.159 51.4703 218.537C49.1393 223.915 48.4552 229.863 49.5045 235.629C50.5538 241.396 53.2893 246.722 57.3653 250.933C61.4413 255.145 66.6746 258.054 72.4036 259.291C78.1326 260.529 84.0999 260.04 89.551 257.887C95.0022 255.733 99.6923 252.012 103.028 247.193C106.365 242.373 108.197 236.673 108.294 230.813C108.413 222.956 105.411 215.372 99.9465 209.725C94.4817 204.078 87.0003 200.83 79.1434 200.691ZM78.4346 244.502C75.6329 244.45 72.9095 243.569 70.6085 241.969C68.3075 240.37 66.5323 238.124 65.507 235.516C64.4817 232.908 64.2524 230.055 64.848 227.317C65.4436 224.579 66.8375 222.079 68.8535 220.132C70.8695 218.186 73.4171 216.881 76.1746 216.382C78.932 215.883 81.7755 216.212 84.3458 217.328C86.9161 218.445 89.0978 220.298 90.6154 222.653C92.133 225.009 92.9182 227.762 92.872 230.564C92.8396 232.427 92.4403 234.266 91.6972 235.975C90.954 237.684 89.8814 239.229 88.5407 240.524C87.2 241.818 85.6175 242.836 83.8834 243.518C82.1494 244.201 80.2979 244.535 78.4346 244.502Z" fill="#E0E0E0"/>
<path d="M79.1957 197.004C70.3578 196.878 61.8303 200.261 55.4827 206.412C49.1351 212.563 45.4853 220.979 45.3334 229.817L65.5457 230.342C65.677 221.561 71.6226 217.991 78.6707 217.545C80.4027 217.441 82.1374 217.697 83.7656 218.297C85.3938 218.896 86.8804 219.826 88.1317 221.028C89.383 222.23 90.3719 223.678 91.0364 225.281C91.7008 226.884 92.0264 228.607 91.9925 230.342L111.995 230.88C112.132 222.04 108.754 213.507 102.605 207.155C96.4548 200.804 88.0354 197.153 79.1957 197.004Z" fill="#F0F0F0"/>
<path d="M319.119 331.286C308.916 320.58 294.918 314.306 280.137 313.815C265.355 313.324 250.972 318.655 240.081 328.661C234.731 333.592 230.413 339.536 227.377 346.148C224.341 352.76 222.648 359.908 222.395 367.18C222.142 374.451 223.335 381.7 225.905 388.507C228.474 395.314 232.369 401.543 237.364 406.833C247.567 417.54 261.565 423.813 276.347 424.304C291.128 424.795 305.512 419.464 316.403 409.458C321.752 404.527 326.071 398.584 329.106 391.972C332.142 385.36 333.836 378.211 334.089 370.94C334.341 363.668 333.148 356.419 330.579 349.612C328.009 342.806 324.114 336.576 319.119 331.286ZM258.745 387.12C256.35 384.591 254.483 381.612 253.251 378.355C252.019 375.098 251.447 371.628 251.57 368.148C251.692 364.668 252.505 361.247 253.962 358.085C255.419 354.922 257.491 352.081 260.057 349.727C265.27 344.948 272.151 342.408 279.219 342.653C286.287 342.899 292.975 345.91 297.844 351.039C300.238 353.567 302.106 356.547 303.338 359.804C304.57 363.061 305.141 366.53 305.019 370.011C304.897 373.491 304.083 376.912 302.626 380.074C301.169 383.237 299.097 386.078 296.531 388.432C291.319 393.222 284.431 395.769 277.356 395.523C270.281 395.278 263.587 392.259 258.718 387.12H258.745Z" fill="#F5F5F5"/>
<path d="M319.119 331.286C308.916 320.58 294.918 314.306 280.137 313.815C265.356 313.324 250.972 318.655 240.081 328.661L260.005 349.766C265.218 344.987 272.099 342.447 279.167 342.693C286.234 342.938 292.923 345.95 297.791 351.079C300.186 353.607 302.054 356.586 303.285 359.843C304.517 363.1 305.089 366.57 304.966 370.05C304.844 373.53 304.031 376.951 302.574 380.114C301.117 383.276 299.045 386.117 296.479 388.471L316.429 409.498C321.783 404.564 326.104 398.617 329.141 392.001C332.178 385.384 333.871 378.23 334.121 370.954C334.372 363.678 333.174 356.425 330.599 349.615C328.024 342.806 324.122 336.576 319.119 331.286Z" fill="#E0E0E0"/>
<path d="M242.365 319.592C214.803 345.094 211.456 386.529 237.246 413.881L265.242 389.745C252.917 376.685 250.24 359.242 263.43 347.049L242.365 319.592Z" fill="#EBEBEB"/>
<path d="M268.155 391.477L251.526 424.368C244.65 421.847 238.454 417.763 233.427 412.437L263.299 388.313L268.155 391.477Z" fill="#E0E0E0"/>
<path d="M205.418 87.8698C205.66 73.1267 201.525 58.6431 193.534 46.251C185.543 33.859 174.056 24.1154 160.527 18.253C146.997 12.3905 132.033 10.6726 117.527 13.3165C103.021 15.9604 89.6247 22.8473 79.0335 33.1061C68.4423 43.3648 61.1317 56.5344 58.0267 70.9488C54.9216 85.3632 56.1616 100.375 61.5897 114.084C67.0178 127.794 76.3902 139.585 88.5211 147.967C100.652 156.349 114.997 160.945 129.74 161.173C149.486 161.453 168.539 153.896 182.724 140.157C196.909 126.417 205.069 107.615 205.418 87.8698ZM95.2606 86.0979C95.3757 79.0515 97.5776 72.1974 101.588 66.4023C105.598 60.6072 111.237 56.1314 117.791 53.5408C124.345 50.9502 131.52 50.3611 138.408 51.848C145.297 53.3349 151.59 56.8311 156.492 61.8944C161.394 66.9578 164.684 73.3609 165.947 80.2942C167.21 87.2275 166.389 94.3796 163.587 100.846C160.786 107.313 156.13 112.803 150.208 116.624C144.286 120.444 137.364 122.423 130.317 122.31C120.869 122.147 111.872 118.243 105.3 111.454C98.7271 104.665 95.1167 95.546 95.2606 86.0979Z" fill="#FAFAFA"/>
<path d="M205.418 87.8691C205.716 68.1096 198.163 49.039 184.415 34.8432C170.667 20.6474 151.848 12.4864 132.089 12.1514L131.459 51.0405C140.91 51.192 149.913 55.0915 156.489 61.8813C163.065 68.671 166.674 77.7949 166.522 87.2457C166.371 96.6964 162.471 105.7 155.682 112.276C148.892 118.851 139.768 122.46 130.317 122.309L129.74 161.172C149.488 161.46 168.545 153.905 182.731 140.164C196.918 126.422 205.076 107.617 205.418 87.8691Z" fill="#E0E0E0"/>
<path d="M138.783 6.16716C90.7063 5.39279 52.3422 42.5363 51.5809 90.613L97.085 91.348C97.4525 68.3531 115.027 53.8763 138.009 54.2569L138.783 6.16716Z" fill="#F0F0F0"/>
<path d="M354.871 349.213L111.666 347.468V350.88L354.871 353.059V349.213Z" fill="#263238"/>
<path d="M360.174 101.951L354.635 351.246L111.667 349.356V97.7637L360.174 101.951Z" fill="white"/>
<path d="M360.174 101.952L111.667 97.4766H111.365V97.7784C111.365 169.795 111.365 254.779 111.365 345.446V349.712H111.706L354.675 351.562H354.964V351.273C358.1 201.859 360.148 104.525 360.214 101.965C360.214 104.485 357.877 201.859 354.386 351.247L354.675 350.958L111.706 349.029L112.047 349.37V345.433C112.047 254.766 112.047 169.782 112.047 97.7653L111.745 98.0672L360.174 101.952Z" fill="#263238"/>
<path d="M361.146 103.618L110.604 102.188L110.289 91.6748L361.146 93.2367V103.618Z" fill="#263238"/>
<path d="M241.21 358.045C241.63 358.045 242.076 356.09 242.194 353.648C242.312 351.207 242.05 349.212 241.63 349.186C241.21 349.16 240.763 351.128 240.645 353.57C240.527 356.011 240.777 358.045 241.21 358.045Z" fill="#263238"/>
<path d="M241.302 356.248C241.302 356.156 240.882 356.13 240.226 356.392C239.83 356.559 239.459 356.78 239.123 357.048C238.672 357.411 238.293 357.857 238.008 358.361C237.618 359.058 237.423 359.847 237.441 360.646C237.46 361.444 237.691 362.223 238.113 362.902C238.365 363.311 238.685 363.675 239.058 363.978C239.447 364.291 239.892 364.527 240.37 364.674C241.385 364.954 242.465 364.875 243.428 364.451C243.915 364.234 244.36 363.932 244.741 363.558C245.119 363.185 245.419 362.738 245.62 362.246C245.984 361.351 246.061 360.365 245.843 359.424C245.682 358.639 245.303 357.916 244.751 357.336C244.199 356.756 243.495 356.342 242.719 356.143C241.727 355.871 240.67 355.964 239.74 356.405C239.11 356.72 238.874 357.048 238.926 357.127C238.979 357.206 239.333 357.127 239.937 356.97C240.759 356.816 241.607 356.889 242.391 357.18C242.896 357.376 243.346 357.691 243.704 358.098C244.114 358.578 244.381 359.163 244.476 359.787C244.571 360.411 244.49 361.049 244.242 361.629C243.956 362.252 243.445 362.745 242.811 363.007C242.18 363.289 241.473 363.349 240.803 363.178C240.188 363.018 239.654 362.634 239.307 362.101C238.965 361.599 238.761 361.015 238.716 360.408C238.676 360.134 238.676 359.856 238.716 359.581C238.759 359.324 238.834 359.072 238.939 358.833C239.276 358.061 239.805 357.388 240.475 356.878C240.961 356.536 241.302 356.353 241.302 356.248Z" fill="#263238"/>
<path d="M205.155 238.373C205.155 238.373 205.155 238.373 205.313 238.373H205.759L207.492 238.451L214.172 238.74L238.742 239.659C259.493 240.42 288.171 241.431 319.828 242.52L330.722 242.888H330.971V242.638C333.176 213.671 335.171 187.71 336.549 169.047C337.232 159.728 337.77 152.234 338.15 147.076C338.321 144.451 338.465 142.495 338.557 141.143C338.557 140.461 338.636 139.949 338.649 139.594C338.662 139.24 338.649 139.292 338.649 139.201C338.649 139.109 338.649 139.069 338.649 139.069C338.643 139.113 338.643 139.157 338.649 139.201C338.649 139.292 338.649 139.424 338.649 139.594C338.649 139.765 338.57 140.461 338.505 141.13C338.4 142.442 338.229 144.477 338.006 147.062C337.599 152.221 336.995 159.715 336.247 169.007C334.777 187.618 332.756 213.514 330.525 242.599L330.787 242.363L319.894 241.982C288.236 240.906 259.519 239.948 238.808 239.291L214.225 238.53L207.544 238.346H205.812H205.208L205.155 238.373Z" fill="#455A64"/>
<path d="M293.132 130.996V134.343L258.509 132.69V129.881L293.132 130.996Z" fill="#263238"/>
<path d="M319.343 235.513H307.307L309.197 202.845H320.996L319.343 235.513Z" fill="#7B6147"/>
<path d="M297.529 235.525H285.507L287.383 189.863H299.183L297.529 235.525Z" fill="#7B6147"/>
<path d="M277.107 234.067H265.071L266.961 174.283H278.747L277.107 234.067Z" fill="#7B6147"/>
<path d="M230.251 231.744H218.228L220.105 150.265H231.905L230.251 231.744Z" fill="#7B6147"/>
<path d="M253.049 232.02H241.026L242.916 161.906H254.702L253.049 232.02Z" fill="#7B6147"/>
<path d="M326.902 194.377C327.217 193.892 305.719 179.559 278.905 162.366C252.09 145.172 230.067 131.627 229.752 132.178C229.437 132.73 250.935 146.996 277.763 164.19C304.59 181.384 326.614 194.863 326.902 194.377Z" fill="#7B6147"/>
<path d="M241.656 132.126C241.761 131.549 233.978 129.606 224.239 127.769L221.772 127.31L223.176 129.396L223.255 129.515C228.82 137.783 233.755 144.228 234.214 143.952C234.673 143.676 230.565 136.668 225.027 128.386L224.948 128.268L223.872 129.895C233.597 131.667 241.551 132.691 241.656 132.126Z" fill="#7B6147"/>
<path d="M320.996 246.55H308.423L308.029 248.781H320.996V246.55Z" fill="#263238"/>
<path d="M298.736 245.63H286.163L285.769 247.861H298.736V245.63Z" fill="#263238"/>
<path d="M275.82 244.975H263.247L262.853 247.206H275.82V244.975Z" fill="#263238"/>
<path d="M254.348 244.437H241.774L241.38 246.681H254.348V244.437Z" fill="#263238"/>
<path d="M227.744 243.646H215.17L214.776 245.891H227.744V243.646Z" fill="#263238"/>
<path d="M171.346 332.61C149.179 332.61 131.21 314.64 131.21 292.474C131.21 270.307 149.179 252.338 171.346 252.338C193.512 252.338 211.482 270.307 211.482 292.474C211.482 314.64 193.512 332.61 171.346 332.61Z" fill="#7B6147"/>
<path opacity="0.3" d="M171.346 332.61C149.179 332.61 131.21 314.64 131.21 292.474C131.21 270.307 149.179 252.338 171.346 252.338C193.512 252.338 211.482 270.307 211.482 292.474C211.482 314.64 193.512 332.61 171.346 332.61Z" fill="black"/>
<path d="M171.346 292.422L210.497 301.229C216.797 272.354 193.514 252.286 171.346 252.286" fill="#7B6147"/>
<path d="M171.293 292.422L171.556 252.286C141.998 252.286 127.351 279.31 132.076 300.967L171.293 292.422Z" fill="#7B6147"/>
<path d="M171.293 292.422L171.556 252.286C141.998 252.286 127.351 279.31 132.076 300.967L171.293 292.422Z" fill="#7B6147"/>
<path opacity="0.1" d="M171.293 292.422L171.556 252.286C141.998 252.286 127.351 279.31 132.076 300.967L171.293 292.422Z" fill="black"/>
<path d="M130.173 197.435C130.953 196.913 131.784 196.474 132.654 196.122C135.078 195.381 137.678 195.454 140.056 196.332C143.127 197.29 146.172 199.732 149.125 202.79C152.078 205.848 155.242 209.549 159.862 211.715C162.091 212.822 164.6 213.238 167.067 212.909C169.293 212.447 171.444 211.678 173.459 210.625C175.233 209.702 177.128 209.034 179.09 208.643C180.795 208.376 182.542 208.594 184.129 209.273C186.466 210.265 188.376 212.05 189.524 214.313C189.893 215.164 190.196 216.041 190.429 216.938C190.388 215.989 190.161 215.057 189.76 214.195C188.661 211.805 186.73 209.897 184.326 208.827C182.68 208.094 180.862 207.835 179.076 208.079C177.05 208.455 175.088 209.118 173.249 210.048C171.287 211.066 169.193 211.808 167.028 212.253C164.693 212.543 162.324 212.142 160.216 211.098C155.78 209.024 152.669 205.349 149.637 202.343C146.605 199.338 143.468 196.805 140.279 195.873C137.802 195.009 135.105 195.009 132.627 195.873C131.966 196.127 131.344 196.472 130.777 196.897C130.554 197.05 130.351 197.231 130.173 197.435Z" fill="#263238"/>
<path d="M126.774 223.369C126.774 223.565 141.027 223.71 158.601 223.71C176.176 223.71 190.429 223.565 190.429 223.369C190.429 223.172 176.176 223.027 158.601 223.027C141.027 223.027 126.774 223.185 126.774 223.369Z" fill="#263238"/>
<path d="M130.317 223.371C130.501 223.371 130.659 215.26 130.659 205.245C130.659 195.231 130.501 187.133 130.317 187.133C130.134 187.133 129.976 195.244 129.976 205.245C129.976 215.246 130.121 223.371 130.317 223.371Z" fill="#263238"/>
<path d="M184.011 208.107C184.011 208.107 184.103 207.976 184.011 207.739C183.951 207.574 183.855 207.423 183.731 207.298C183.606 207.174 183.455 207.078 183.29 207.017C183.04 206.907 182.765 206.867 182.494 206.902C182.224 206.936 181.968 207.045 181.754 207.214C181.523 207.474 181.386 207.804 181.367 208.151C181.348 208.498 181.447 208.841 181.648 209.125C181.849 209.408 182.14 209.615 182.474 209.712C182.808 209.808 183.165 209.788 183.486 209.656C183.712 209.52 183.898 209.328 184.025 209.097C184.152 208.866 184.215 208.606 184.208 208.343C184.211 208.168 184.179 207.994 184.113 207.832C184.048 207.67 183.951 207.522 183.828 207.398C183.631 207.241 183.486 207.241 183.473 207.267C183.46 207.293 183.828 207.647 183.736 208.317C183.718 208.489 183.659 208.654 183.566 208.8C183.473 208.946 183.346 209.068 183.198 209.157C183.014 209.203 182.82 209.193 182.642 209.128C182.463 209.062 182.309 208.945 182.198 208.79C182.088 208.636 182.026 208.452 182.022 208.262C182.018 208.072 182.071 207.885 182.174 207.726C182.306 207.618 182.462 207.544 182.629 207.509C182.796 207.475 182.968 207.482 183.132 207.529C183.801 207.634 183.92 208.133 184.011 208.107Z" fill="#263238"/>
<path d="M141.093 194.941C141.093 194.941 141.093 194.784 140.857 194.652C140.551 194.499 140.198 194.471 139.872 194.574C139.613 194.644 139.379 194.784 139.194 194.978C139.008 195.173 138.88 195.414 138.822 195.676C138.802 196.015 138.897 196.35 139.09 196.628C139.284 196.907 139.566 197.111 139.89 197.21C140.215 197.309 140.563 197.295 140.879 197.171C141.195 197.048 141.46 196.822 141.631 196.529C141.726 196.276 141.75 196.002 141.701 195.737C141.653 195.471 141.533 195.223 141.355 195.02C141.134 194.758 140.818 194.593 140.476 194.56C140.24 194.56 140.122 194.639 140.135 194.679C140.148 194.718 140.634 194.744 140.962 195.309C141.053 195.449 141.109 195.609 141.128 195.775C141.146 195.942 141.125 196.11 141.067 196.267C140.951 196.408 140.796 196.512 140.621 196.566C140.447 196.619 140.26 196.619 140.085 196.565C139.91 196.511 139.756 196.407 139.641 196.265C139.526 196.123 139.455 195.95 139.439 195.768C139.474 195.605 139.547 195.452 139.652 195.322C139.757 195.192 139.891 195.088 140.043 195.02C140.621 194.731 141.027 195.033 141.093 194.941Z" fill="#263238"/>
<path d="M131.446 151.982C131.446 152.166 145.254 152.323 162.277 152.323C179.3 152.323 193.107 152.166 193.107 151.982C193.107 151.798 179.313 151.641 162.277 151.641C145.24 151.641 131.446 151.824 131.446 151.982Z" fill="#263238"/>
<path d="M131.446 160.581C131.446 160.777 145.254 160.922 162.277 160.922C179.3 160.922 193.107 160.777 193.107 160.581C193.107 160.384 179.313 160.239 162.277 160.239C145.24 160.239 131.446 160.397 131.446 160.581Z" fill="#263238"/>
<path d="M131.446 169.149C131.446 169.333 145.254 169.49 162.277 169.49C179.3 169.49 193.107 169.333 193.107 169.149C193.107 168.965 179.313 168.808 162.277 168.808C145.24 168.808 131.446 168.952 131.446 169.149Z" fill="#263238"/>
<path d="M131.446 177.708C131.446 177.905 145.254 178.05 162.277 178.05C179.3 178.05 193.107 177.905 193.107 177.708C193.107 177.512 179.313 177.367 162.277 177.367C145.24 177.367 131.446 177.525 131.446 177.708Z" fill="#263238"/>
<path d="M160.295 136.352H193.107V139.121H160.295V136.352Z" fill="#263238"/>
<path d="M295.744 273.852H328.556V276.621H295.744V273.852Z" fill="#263238"/>
<path d="M238.769 289.901C238.769 290.098 258.679 290.242 283.236 290.242C307.793 290.242 327.716 290.098 327.716 289.901C327.716 289.704 307.806 289.56 283.236 289.56C258.666 289.56 238.769 289.717 238.769 289.901Z" fill="#263238"/>
<path d="M238.244 297.67C238.244 297.854 258.509 298.012 283.498 298.012C308.488 298.012 328.753 297.854 328.753 297.67C328.753 297.487 308.501 297.329 283.498 297.329C258.495 297.329 238.244 297.513 238.244 297.67Z" fill="#263238"/>
<path d="M237.206 304.995C237.206 305.178 257.589 305.336 282.724 305.336C307.858 305.336 328.241 305.178 328.241 304.995C328.241 304.811 307.858 304.653 282.724 304.653C257.589 304.653 237.206 304.798 237.206 304.995Z" fill="#263238"/>
<path d="M280.9 312.789C280.9 312.973 291.4 313.131 304.315 313.131C317.229 313.131 327.716 312.973 327.716 312.789C327.716 312.606 317.216 312.448 304.315 312.448C291.413 312.448 280.9 312.606 280.9 312.789Z" fill="#263238"/>
<path d="M319.519 219.776L314.425 199.332C314.425 199.332 308.822 195.968 308.352 192.228C307.883 188.488 313.835 178.072 314.988 178.085C316.141 178.098 323.661 183.715 323.648 185.377C323.635 187.04 322.147 195.914 322.147 195.914L332.375 215.741L319.519 219.776Z" fill="#E5BAAB"/>
<path d="M316.342 212.162L313.406 205.285L327.871 196.88L332.375 204.521L316.342 212.162Z" fill="#D1A77A"/>
<path opacity="0.8" d="M316.342 212.162L313.406 205.285L327.871 196.88L332.375 204.521L316.342 212.162Z" fill="white"/>
<path d="M382.337 188.072C373.65 193.836 354.36 221.907 349.587 221.491C343.421 220.969 333.192 200.284 333.192 200.284L314.21 211.719C314.21 211.719 336.437 256.6 348.837 253.772C361.236 250.943 384.736 216.518 386.372 211.451C388.007 206.384 393.114 180.913 382.337 188.072Z" fill="#263238"/>
<path opacity="0.3" d="M382.337 188.072C373.65 193.836 354.36 221.907 349.587 221.491C343.421 220.969 333.192 200.284 333.192 200.284L314.21 211.719C314.21 211.719 336.437 256.6 348.837 253.772C361.236 250.943 384.736 216.518 386.372 211.451C388.007 206.384 393.114 180.913 382.337 188.072Z" fill="black"/>
<path d="M379.361 522.013L368.489 523.166L366.451 499.707L377.323 498.554L379.361 522.013Z" fill="#E5BAAB"/>
<path d="M433.626 521.222H423.089L422.218 496.811H432.768L433.626 521.222Z" fill="#E5BAAB"/>
<path d="M421.628 520.002H434.43C434.64 520.001 434.844 520.072 435.008 520.204C435.172 520.336 435.285 520.521 435.328 520.726L437.406 530.11C437.449 530.338 437.442 530.572 437.385 530.797C437.327 531.021 437.221 531.23 437.074 531.409C436.927 531.588 436.743 531.733 436.534 531.833C436.324 531.932 436.096 531.985 435.864 531.987C431.722 531.92 428.706 531.665 423.505 531.665C420.301 531.665 410.635 532 406.212 532C401.788 532 401.212 527.63 403.021 527.228C411.145 525.458 417.258 523.005 419.858 520.673C420.34 520.229 420.974 519.989 421.628 520.002Z" fill="#263238"/>
<path d="M418.142 521.853C417.427 521.907 416.713 521.718 416.118 521.316C415.926 521.155 415.777 520.947 415.686 520.713C415.594 520.479 415.563 520.225 415.595 519.976C415.593 519.831 415.633 519.688 415.709 519.565C415.785 519.442 415.894 519.342 416.024 519.279C417.191 518.675 420.596 520.767 420.971 521.008C421.016 521.028 421.052 521.063 421.074 521.107C421.096 521.151 421.102 521.201 421.092 521.249C421.085 521.3 421.064 521.347 421.031 521.385C420.997 521.423 420.953 521.451 420.904 521.464C420 521.694 419.074 521.825 418.142 521.853ZM416.574 519.667C416.462 519.656 416.35 519.679 416.252 519.734C416.185 519.734 416.105 519.828 416.091 520.029C416.07 520.195 416.09 520.363 416.148 520.52C416.207 520.676 416.302 520.816 416.427 520.928C417.609 521.464 418.95 521.531 420.18 521.115C419.084 520.403 417.859 519.911 416.574 519.667Z" fill="#D1A77A"/>
<path d="M420.837 521.476H420.716C419.631 520.886 417.526 518.567 417.74 517.454C417.778 517.269 417.878 517.102 418.025 516.982C418.172 516.862 418.355 516.797 418.545 516.798C418.734 516.773 418.926 516.789 419.109 516.844C419.292 516.9 419.46 516.993 419.604 517.119C420.824 518.111 421.078 521.141 421.092 521.288C421.092 521.333 421.082 521.378 421.061 521.418C421.04 521.458 421.009 521.491 420.971 521.516C420.924 521.516 420.877 521.502 420.837 521.476ZM418.719 517.173H418.598C418.277 517.173 418.25 517.361 418.236 517.428C418.102 518.111 419.443 519.867 420.529 520.685C420.461 519.484 420.026 518.333 419.282 517.387C419.126 517.251 418.926 517.175 418.719 517.173Z" fill="#D1A77A"/>
<path d="M367.336 519.668H380.138C380.349 519.666 380.553 519.737 380.717 519.869C380.88 520.001 380.993 520.186 381.037 520.391L383.114 529.775C383.158 530.003 383.15 530.237 383.093 530.462C383.036 530.686 382.93 530.895 382.783 531.074C382.636 531.253 382.451 531.398 382.242 531.498C382.033 531.597 381.805 531.65 381.573 531.652C377.431 531.585 374.414 531.33 369.213 531.33C366.009 531.33 356.344 531.665 351.92 531.665C347.496 531.665 346.92 527.295 348.73 526.893C356.853 525.124 362.966 522.67 365.567 520.338C366.048 519.894 366.682 519.654 367.336 519.668Z" fill="#263238"/>
<path d="M363.904 521.517C363.188 521.571 362.475 521.382 361.88 520.98C361.687 520.819 361.539 520.611 361.447 520.377C361.356 520.143 361.325 519.889 361.357 519.64C361.355 519.495 361.394 519.352 361.47 519.229C361.546 519.106 361.656 519.006 361.786 518.943C362.952 518.34 366.357 520.431 366.733 520.672C366.777 520.692 366.814 520.727 366.836 520.771C366.858 520.815 366.864 520.865 366.853 520.913C366.847 520.964 366.826 521.011 366.792 521.049C366.759 521.088 366.715 521.115 366.666 521.128C365.762 521.358 364.836 521.489 363.904 521.517ZM362.336 519.331C362.224 519.32 362.112 519.343 362.014 519.399C361.947 519.399 361.867 519.492 361.853 519.693C361.832 519.859 361.852 520.027 361.91 520.184C361.968 520.34 362.064 520.48 362.188 520.592C363.37 521.128 364.712 521.195 365.942 520.779C364.829 520.06 363.585 519.568 362.282 519.331H362.336Z" fill="#D1A77A"/>
<path d="M366.585 521.196H366.464C365.379 520.606 363.274 518.287 363.488 517.174C363.526 516.988 363.626 516.821 363.773 516.702C363.92 516.582 364.103 516.517 364.293 516.517C364.482 516.492 364.674 516.508 364.857 516.564C365.04 516.619 365.208 516.713 365.352 516.839C366.572 517.831 366.826 520.861 366.84 521.008C366.84 521.053 366.83 521.098 366.809 521.137C366.788 521.177 366.757 521.211 366.719 521.236C366.672 521.235 366.625 521.221 366.585 521.196ZM364.467 516.919H364.346C364.025 516.919 363.998 517.107 363.984 517.174C363.85 517.858 365.191 519.614 366.277 520.432C366.209 519.231 365.774 518.08 365.03 517.134C364.872 516.969 364.655 516.873 364.427 516.866L364.467 516.919Z" fill="#D1A77A"/>
<path opacity="0.2" d="M432.768 496.825H422.218L422.673 509.413H433.223L432.768 496.825Z" fill="black"/>
<path d="M428.424 282.688H372.484C367.121 311.724 351.249 423.337 363.194 514.895L382.135 512.549C382.135 512.549 379.642 382.155 396.359 337.221C398.289 361.27 400.568 386.82 402.552 400.467C407.418 433.98 418.29 513.367 418.29 513.367H437.634C437.634 513.367 433.237 437.117 431.414 404.18C429.349 368.375 428.491 290.034 428.424 282.688Z" fill="#263238"/>
<g opacity="0.3">
<path d="M428.424 282.688H372.484C367.121 311.724 351.249 423.337 363.194 514.895L382.135 512.549C382.135 512.549 379.642 382.155 396.359 337.221C398.289 361.27 400.568 386.82 402.552 400.467C407.418 433.98 418.29 513.367 418.29 513.367H437.634C437.634 513.367 433.237 437.117 431.414 404.18C429.349 368.375 428.491 290.034 428.424 282.688Z" fill="black"/>
</g>
<path opacity="0.4" d="M370.232 296.2C370.232 296.2 386.72 300.007 398.209 296.2L397.177 287.259H370.433L370.232 296.2Z" fill="black"/>
<path opacity="0.1" d="M378.53 297.5C382.055 297.881 385.606 297.98 389.147 297.795V287.271H378.53V297.5Z" fill="white"/>
<path opacity="0.2" d="M396.359 337.22C393.606 345.098 391.517 353.192 390.112 361.417C388.543 339.969 394.804 317.313 394.804 317.313L396.359 337.22Z" fill="black"/>
<path d="M421.052 155.229C421.052 155.229 420.636 165.498 412.633 163.085C404.63 160.672 413.987 151.596 421.052 155.229Z" fill="#263238"/>
<path d="M397.176 180.913C398.832 179.605 400.064 177.837 400.72 175.832C401.376 173.827 401.426 171.672 400.863 169.639L415.341 157.963C415.341 157.963 413.464 172.293 416.963 179.881C416.963 179.881 408.222 188.742 401.56 186.717C394.898 184.693 397.176 180.913 397.176 180.913Z" fill="#E5BAAB"/>
<path d="M412.083 164.961L406.359 165.202L400.863 169.639C401.359 171.591 401.336 173.638 400.796 175.578C409.563 174.17 412.083 164.961 412.083 164.961Z" fill="#D78776"/>
<path d="M411.708 191.263L399.723 186.719L389.656 187.469C389.656 187.469 379.012 211.733 375.071 236.788C372.571 254.223 371.227 271.805 371.049 289.417C371.411 289.337 385.795 292.487 399.134 287.956C399.134 287.956 390.246 250.421 395.112 233.222C399.978 216.023 411.654 191.263 411.654 191.263" fill="#D1A77A"/>
<path opacity="0.8" d="M411.708 191.263L399.723 186.719L389.656 187.469C389.656 187.469 379.012 211.733 375.071 236.788C372.571 254.223 371.227 271.805 371.049 289.417C371.411 289.337 385.795 292.487 399.134 287.956C399.134 287.956 390.246 250.421 395.112 233.222C399.978 216.023 411.654 191.263 411.654 191.263" fill="white"/>
<path opacity="0.4" d="M395.032 187.067L395.756 193.663C395.756 193.663 386.841 210.996 383.691 222.591C380.54 234.187 377.94 269.349 377.94 269.349L383.516 278.934L388.637 269.349C388.637 269.349 387.297 241.198 391.399 222.216C395.501 203.234 397.766 194.708 397.766 194.708L403.933 190.244L399.75 186.719L395.032 187.067Z" fill="black"/>
<path d="M397.177 180.914L401.305 185.016L416.949 179.882L405.287 197.148L399.509 187.871L390.099 190.539L397.177 180.914Z" fill="white"/>
<path d="M397.176 180.914C397.176 180.914 375.634 185.619 371.036 205.044C366.438 224.468 363.73 309.297 363.06 316.134C362.389 322.971 375.889 323.815 375.889 323.815C375.889 323.815 375.165 279.939 376.264 268.29C376.666 264.081 377.283 249.871 379.186 238.798C382.551 219.2 388.396 193.998 397.176 180.914Z" fill="#263238"/>
<path d="M392.713 182.482C389.79 185.056 382.806 190.526 379.307 196.303L384.75 199.186L377.31 203.918C377.31 203.918 377.926 224.817 379.75 235.769C383.181 216.706 388.865 193.341 397.177 180.914C397.177 180.914 395.407 181.41 392.713 182.482Z" fill="#263238"/>
<path opacity="0.1" d="M392.713 182.482C389.79 185.056 382.806 190.526 379.307 196.303L384.75 199.186L377.31 203.918C377.31 203.918 377.926 224.817 379.75 235.769C383.181 216.706 388.865 193.341 397.177 180.914C397.177 180.914 395.407 181.41 392.713 182.482Z" fill="white"/>
<path d="M380.674 135.925C380.674 135.925 379.924 143.807 386.037 145.564C386.037 145.564 389.535 136.756 385.286 135.925C381.036 135.094 380.674 135.925 380.674 135.925Z" fill="#263238"/>
<path d="M385.969 158.125C386.948 163.701 391.131 175.391 402.967 171.825C414.804 168.259 415.3 158.915 415.501 156.221C415.703 153.527 413.182 132.614 405.622 130.617C398.061 128.619 388.865 131.086 385.969 135.416C383.074 139.746 385.969 158.125 385.969 158.125Z" fill="#E5BAAB"/>
<path d="M414.845 149.478C415.032 149.719 407.016 154.519 407.271 137.936C407.271 137.936 401.466 140.403 400.125 133.821C400.125 133.821 375.862 142.186 378.275 132.748C381.505 120.147 401.131 119.195 409.59 125.791C409.59 125.791 413.786 121.086 417.74 126.153C422.472 132.212 422.392 148.634 422.392 148.634L414.845 149.478Z" fill="#263238"/>
<path d="M420.877 147.346C418.035 142.882 405.341 147.561 402.874 148.526L402.793 147.896C402.76 147.667 402.681 147.447 402.561 147.249C402.441 147.051 402.283 146.879 402.096 146.743C401.903 146.61 401.684 146.518 401.453 146.474C401.222 146.43 400.985 146.435 400.756 146.488L395.541 147.614C395.115 147.696 394.736 147.94 394.486 148.295C394.236 148.65 394.134 149.089 394.201 149.518C394.201 149.679 394.268 149.88 394.295 150.054C393.875 149.898 393.424 149.85 392.982 149.913C392.539 149.976 392.12 150.149 391.761 150.416V149.987C391.693 149.542 391.452 149.142 391.091 148.874C390.914 148.741 390.713 148.646 390.499 148.593C390.285 148.54 390.062 148.531 389.844 148.566L385.46 149.223C385.04 149.286 384.659 149.507 384.395 149.84C384.131 150.174 384.004 150.595 384.039 151.019C384.12 151.971 384.214 152.816 384.307 153.499C384.341 153.718 384.418 153.927 384.533 154.116C384.648 154.304 384.799 154.468 384.978 154.598C385.264 154.812 385.613 154.925 385.97 154.92H386.211L390.675 154.263C390.894 154.232 391.104 154.158 391.294 154.045C391.483 153.933 391.649 153.784 391.781 153.607C391.913 153.43 392.009 153.229 392.063 153.015C392.117 152.801 392.128 152.578 392.096 152.36L391.935 151.207C392.261 150.874 392.69 150.66 393.153 150.602C393.615 150.544 394.084 150.643 394.482 150.885C394.549 151.247 394.616 151.622 394.683 151.971C394.769 152.408 395.025 152.794 395.394 153.043C395.667 153.227 395.989 153.325 396.319 153.325C396.434 153.339 396.551 153.339 396.667 153.325L401.788 152.279C402.208 152.195 402.58 151.954 402.829 151.605C403.077 151.257 403.185 150.827 403.129 150.403L402.968 149.263C404.871 148.526 417.714 143.686 420.314 147.762C420.339 147.799 420.37 147.831 420.407 147.856C420.444 147.881 420.485 147.898 420.529 147.907C420.573 147.916 420.618 147.916 420.662 147.907C420.705 147.898 420.747 147.881 420.783 147.856C420.829 147.833 420.868 147.801 420.899 147.761C420.929 147.721 420.95 147.674 420.959 147.625C420.968 147.575 420.966 147.524 420.951 147.476C420.937 147.427 420.912 147.383 420.877 147.346ZM390.595 153.593L386.131 154.236C385.867 154.276 385.599 154.214 385.38 154.062C385.275 153.984 385.187 153.885 385.12 153.773C385.053 153.66 385.009 153.535 384.991 153.405C384.897 152.735 384.803 151.904 384.723 150.952C384.703 150.698 384.781 150.446 384.94 150.247C385.1 150.048 385.329 149.916 385.581 149.88L389.965 149.223H390.112C390.327 149.225 390.537 149.29 390.715 149.411C390.928 149.574 391.068 149.815 391.104 150.081L391.453 152.454C391.487 152.718 391.417 152.985 391.256 153.198C391.096 153.412 390.858 153.553 390.595 153.593ZM401.667 151.569L396.547 152.614C396.282 152.668 396.008 152.615 395.782 152.467C395.673 152.395 395.579 152.303 395.505 152.195C395.431 152.087 395.38 151.965 395.353 151.837C395.206 151.019 395.045 150.121 394.938 149.411C394.894 149.157 394.951 148.896 395.096 148.684C395.241 148.471 395.463 148.323 395.715 148.271L400.917 147.145C400.988 147.133 401.06 147.133 401.131 147.145C401.337 147.141 401.539 147.202 401.708 147.319C401.823 147.4 401.921 147.503 401.995 147.623C402.069 147.743 402.117 147.877 402.137 148.016L402.458 150.47C402.487 150.718 402.422 150.969 402.276 151.172C402.129 151.376 401.913 151.517 401.667 151.569Z" fill="black"/>
<path d="M399.63 149.572C399.831 150.389 399.455 151.153 398.892 151.247C398.329 151.341 397.793 150.738 397.646 149.907C397.498 149.076 397.833 148.311 398.383 148.218C398.932 148.124 399.482 148.727 399.63 149.572Z" fill="#263238"/>
<path d="M389.227 151.207C389.428 152.038 389.039 152.802 388.49 152.896C387.94 152.99 387.39 152.373 387.243 151.555C387.095 150.738 387.43 149.974 387.98 149.88C388.53 149.786 389.093 150.389 389.227 151.207Z" fill="#263238"/>
<path d="M393.235 151.087C392.683 153.822 391.749 156.467 390.461 158.942C391.111 159.247 391.82 159.406 392.538 159.406C393.257 159.406 393.966 159.247 394.616 158.942L393.235 151.087Z" fill="#D78776"/>
<path d="M401.439 144.584C401.385 144.658 401.311 144.715 401.225 144.749C401.14 144.782 401.047 144.79 400.957 144.772C400.343 144.652 399.709 144.677 399.107 144.844C398.504 145.012 397.949 145.317 397.485 145.737C397.444 145.799 397.39 145.851 397.327 145.889C397.265 145.928 397.194 145.953 397.121 145.962C397.047 145.97 396.973 145.963 396.903 145.94C396.833 145.917 396.768 145.879 396.714 145.829C396.66 145.779 396.617 145.718 396.589 145.649C396.561 145.581 396.548 145.507 396.552 145.434C396.555 145.36 396.574 145.288 396.608 145.222C396.642 145.156 396.689 145.099 396.748 145.054C397.324 144.512 398.021 144.115 398.781 143.896C399.541 143.677 400.342 143.642 401.118 143.794C401.247 143.817 401.363 143.887 401.442 143.991C401.521 144.096 401.559 144.226 401.547 144.357C401.527 144.439 401.491 144.517 401.439 144.584Z" fill="#263238"/>
<path d="M396.721 163.112C397.95 163.086 399.155 162.765 400.235 162.177C401.315 161.59 402.238 160.752 402.927 159.734C402.962 159.673 402.971 159.601 402.954 159.534C402.936 159.466 402.893 159.408 402.834 159.372C402.786 159.327 402.724 159.303 402.659 159.303C402.594 159.303 402.532 159.327 402.485 159.372C401.83 160.304 400.967 161.071 399.964 161.61C398.961 162.15 397.846 162.449 396.707 162.482C396.673 162.48 396.639 162.485 396.608 162.497C396.576 162.509 396.547 162.528 396.523 162.552C396.499 162.576 396.48 162.605 396.468 162.637C396.456 162.668 396.451 162.702 396.453 162.736C396.453 162.804 396.479 162.869 396.527 162.917C396.575 162.964 396.64 162.991 396.707 162.991L396.721 163.112Z" fill="#263238"/>
<path d="M385.648 146.087C385.556 146.063 385.474 146.009 385.415 145.934C385.357 145.859 385.325 145.766 385.325 145.671C385.325 145.576 385.357 145.483 385.415 145.408C385.474 145.333 385.556 145.279 385.648 145.255C386.378 144.946 387.172 144.816 387.962 144.877C388.753 144.937 389.518 145.187 390.192 145.604C390.246 145.641 390.293 145.689 390.328 145.745C390.363 145.8 390.388 145.862 390.399 145.927C390.41 145.992 390.408 146.059 390.393 146.123C390.379 146.187 390.351 146.248 390.313 146.301C390.233 146.405 390.117 146.475 389.988 146.497C389.859 146.52 389.726 146.493 389.616 146.422C389.074 146.105 388.466 145.92 387.84 145.88C387.214 145.84 386.587 145.948 386.01 146.194C385.88 146.207 385.75 146.169 385.648 146.087Z" fill="#263238"/>
<path d="M416.963 179.882C416.963 179.882 431.293 188.247 438.693 191.384C446.093 194.52 434.872 245.582 434.591 254.389C434.309 263.196 442.312 323.695 442.312 323.695C442.312 323.695 419.523 329.633 400.85 325.196C400.85 325.196 387.659 274.872 389.281 248.504C390.849 223.114 398.463 198.127 416.963 179.882Z" fill="#263238"/>
<path d="M422.888 183.26C419.496 181.343 417.029 179.882 417.029 179.882C399.133 197.523 391.452 221.438 389.548 245.984C397.297 227.069 415.354 209.789 415.354 209.789L409.777 201.625L420.005 200.821C420.204 194.867 421.173 188.965 422.888 183.26Z" fill="#263238"/>
<path opacity="0.1" d="M422.888 183.26C419.496 181.343 417.029 179.882 417.029 179.882C399.133 197.523 391.452 221.438 389.548 245.984C397.297 227.069 415.354 209.789 415.354 209.789L409.777 201.625L420.005 200.821C420.204 194.867 421.173 188.965 422.888 183.26Z" fill="white"/>
<path d="M416.695 213.287C416.681 213.171 416.624 213.064 416.534 212.989C416.444 212.915 416.329 212.877 416.212 212.885L384.039 215.566V217.818H380.648L384.964 269.871C384.964 270.112 385.139 270.112 385.152 270.287H385.501L385.782 269.884L386.855 269.791L387.203 270.139L420.783 267.311C420.842 267.307 420.899 267.292 420.951 267.267C421.003 267.241 421.05 267.206 421.089 267.162C421.127 267.119 421.157 267.068 421.176 267.013C421.195 266.958 421.203 266.899 421.199 266.841L416.695 213.287Z" fill="#D1A77A"/>
<path d="M381.894 266.36C381.933 267.283 382.264 268.171 382.84 268.894C383.416 269.616 384.207 270.137 385.098 270.381C384.87 267.633 384.549 265.019 384.549 265.019C384.549 265.019 381.613 225.085 380.849 215.929C380.051 216.092 379.33 216.517 378.8 217.136C378.271 217.755 377.963 218.533 377.926 219.347C378.034 220.594 378.248 223.127 378.248 223.127C378.248 223.127 381.05 256.413 381.894 266.36Z" fill="#D1A77A"/>
<path opacity="0.2" d="M381.894 266.36C381.933 267.283 382.264 268.171 382.84 268.894C383.416 269.616 384.207 270.137 385.098 270.381C384.87 267.633 384.549 265.019 384.549 265.019C384.549 265.019 381.613 225.085 380.849 215.929C380.051 216.092 379.33 216.517 378.8 217.136C378.271 217.755 377.963 218.533 377.926 219.347C378.034 220.594 378.248 223.127 378.248 223.127C378.248 223.127 381.05 256.413 381.894 266.36Z" fill="black"/>
<path d="M385.112 269.174L419.805 266.359L417.794 260.407L384.616 263.209C384.063 263.496 383.621 263.958 383.359 264.524C383.097 265.089 383.029 265.725 383.168 266.332C383.206 266.937 383.406 267.521 383.749 268.021C384.091 268.521 384.562 268.92 385.112 269.174Z" fill="#D1A77A"/>
<path opacity="0.6" d="M385.112 269.174L419.805 266.359L417.794 260.407L384.616 263.209C384.063 263.496 383.621 263.958 383.359 264.524C383.097 265.089 383.029 265.725 383.168 266.332C383.206 266.937 383.406 267.521 383.749 268.021C384.091 268.521 384.562 268.92 385.112 269.174Z" fill="white"/>
<path d="M419.188 260.488L386.425 263.25L386.171 263.075L385.152 263.169L384.938 263.37H384.509C384.486 263.37 384.464 263.362 384.447 263.348C384.429 263.333 384.418 263.312 384.415 263.29L380.393 215.955C380.393 215.955 380.393 215.862 380.473 215.862H380.97L381.171 216.224L382.189 216.143L382.431 215.741L415.167 212.979C415.188 212.983 415.208 212.993 415.225 213.007C415.241 213.021 415.253 213.039 415.26 213.06L419.282 260.394C419.282 260.419 419.272 260.443 419.255 260.461C419.237 260.478 419.213 260.488 419.188 260.488Z" fill="#D1A77A"/>
<path opacity="0.3" d="M411.681 239.858L388.664 241.788L387.029 222.404L410.046 220.46L411.681 239.858ZM389.75 240.34L410.367 238.611L408.96 221.908L388.342 223.597L389.75 240.34Z" fill="black"/>
<path opacity="0.3" d="M378.53 226.424C378.683 225.757 378.991 225.135 379.429 224.609C379.867 224.083 380.422 223.667 381.05 223.395C381.05 223.756 381.05 223.904 381.171 224.896C379.943 225.713 379.06 226.954 378.691 228.381L378.53 226.424Z" fill="black"/>
<path opacity="0.3" d="M381.01 255.957C381.163 255.288 381.471 254.665 381.909 254.137C382.346 253.608 382.901 253.189 383.53 252.914C383.53 253.276 383.597 253.437 383.664 254.429C382.431 255.24 381.546 256.484 381.184 257.914L381.01 255.957Z" fill="black"/>
<path opacity="0.3" d="M382.207 216.183L381.191 216.269L385.141 263.209L386.156 263.124L382.207 216.183Z" fill="black"/>
<path d="M408.77 245.695L392.62 247.054L392.808 249.285L408.958 247.926L408.77 245.695Z" fill="#D1A77A"/>
<path d="M405.61 250.863L396.58 251.623L396.768 253.854L405.798 253.094L405.61 250.863Z" fill="#D1A77A"/>
<path opacity="0.3" d="M385.058 265.81L416.078 263.129C416.078 263.129 406.627 263.746 394.938 264.738C389.978 265.22 385.058 265.81 385.058 265.81Z" fill="black"/>
<path opacity="0.3" d="M385.152 267.016L416.252 264.12L395.031 265.903C390.071 266.319 385.152 267.016 385.152 267.016Z" fill="black"/>
<path opacity="0.3" d="M385.246 268.102L416.494 265.152L395.125 266.962C390.165 267.404 385.246 268.102 385.246 268.102Z" fill="black"/>
<path d="M391.412 264.107L391.922 270.207L389.736 268.156L387.913 270.515C387.913 270.515 387.793 269.014 387.404 264.349C388.61 264.241 390.434 264.188 391.412 264.107Z" fill="#D1A77A"/>
<path opacity="0.3" d="M391.412 264.107L391.922 270.207L389.736 268.156L387.913 270.515C387.913 270.515 387.793 269.014 387.404 264.349C388.61 264.241 390.434 264.188 391.412 264.107Z" fill="black"/>
<path opacity="0.3" d="M384.964 264.657L416.346 262.19C416.346 262.19 406.533 262.646 394.897 263.638C389.884 264.054 384.964 264.657 384.964 264.657Z" fill="black"/>
<path d="M419.282 260.474L417.446 260.635C417.031 261.558 416.992 262.606 417.338 263.557C417.453 264.185 417.741 264.769 418.17 265.243C418.598 265.717 419.151 266.061 419.765 266.238L419.282 260.474Z" fill="#D1A77A"/>
<path d="M410.099 263.544L390.957 254.697C390.957 254.697 384.817 256.962 381.573 254.992C378.329 253.021 373.959 241.854 374.696 240.956C375.433 240.058 384.522 237.726 385.796 238.771C387.069 239.817 393.075 246.546 393.075 246.546L414.939 250.997L410.099 263.544Z" fill="#E5BAAB"/>
<path d="M404.75 244.925L397.083 244.469L397.9 261.721L406.051 263.089L404.75 244.925Z" fill="white"/>
<path d="M404.75 244.925L397.083 244.469L397.9 261.721L406.051 263.089L404.75 244.925Z" fill="#D1A77A"/>
<path opacity="0.8" d="M404.75 244.925L397.083 244.469L397.9 261.721L406.051 263.089L404.75 244.925Z" fill="white"/>
<path d="M433.451 189.654C446.254 190.995 451.401 210.312 453.184 219.964C454.927 229.347 459.672 258.692 448.881 266.614C438.09 274.537 403.879 265.85 403.879 265.85L402.056 242.364C402.056 242.364 420.435 246.506 428.371 243.423C435.073 240.836 431.95 216.934 431.253 212.591C430.261 206.491 427.432 189.011 433.451 189.654Z" fill="#263238"/>
<path opacity="0.3" d="M433.451 189.654C446.254 190.995 451.401 210.312 453.184 219.964C454.927 229.347 459.672 258.692 448.881 266.614C438.09 274.537 403.879 265.85 403.879 265.85L402.056 242.364C402.056 242.364 420.435 246.506 428.371 243.423C435.073 240.836 431.95 216.934 431.253 212.591C430.261 206.491 427.432 189.011 433.451 189.654Z" fill="black"/>
<path d="M412.298 150.765C412.298 150.765 414.416 144.907 419.832 144.88C424.175 144.88 424.805 150.309 422.821 154.063C421.306 156.945 416.333 160.551 413.169 156.744C410.006 152.937 412.298 150.765 412.298 150.765Z" fill="#E5BAAB"/>
</svg>
