<svg width="36" height="36" viewBox="0 0 36 36" fill="none" xmlns="http://www.w3.org/2000/svg">
<path opacity="0.5" d="M4.5 15C4.5 9.34315 4.5 6.51472 6.25736 4.75736C8.01472 3 10.8431 3 16.5 3H19.5C25.1569 3 27.9853 3 29.7426 4.75736C31.5 6.51472 31.5 9.34315 31.5 15V21C31.5 26.6569 31.5 29.4853 29.7426 31.2426C27.9853 33 25.1569 33 19.5 33H16.5C10.8431 33 8.01472 33 6.25736 31.2426C4.5 29.4853 4.5 26.6569 4.5 21V15Z" fill="#3B5CA0"/>
<path d="M24.7783 24.752C25.0408 24.5472 25.2789 24.3091 25.7551 23.833L31.6912 17.8969C31.8347 17.7534 31.769 17.5062 31.5773 17.4396C30.8766 17.1966 29.9651 16.7401 29.1125 15.8875C28.2599 15.0349 27.8035 14.1234 27.5604 13.4227C27.4938 13.231 27.2466 13.1653 27.1031 13.3088L21.167 19.2449C20.6909 19.7211 20.4528 19.9592 20.248 20.2217C20.0065 20.5313 19.7994 20.8664 19.6305 21.2209C19.4873 21.5214 19.3808 21.8408 19.1678 22.4797L18.8927 23.3051L18.4552 24.6177L18.0449 25.8484C17.9401 26.1628 18.0219 26.5094 18.2563 26.7437C18.4906 26.9781 18.8372 27.0599 19.1516 26.9551L20.3823 26.5448L21.6949 26.1073L22.5203 25.8322L22.5203 25.8322C23.1592 25.6192 23.4786 25.5127 23.7791 25.3695C24.1336 25.2006 24.4687 24.9935 24.7783 24.752Z" fill="#3B5CA0"/>
<path d="M33.5498 16.0383C34.8167 14.7713 34.8167 12.7172 33.5498 11.4502C32.2828 10.1833 30.2287 10.1833 28.9617 11.4502L28.7709 11.6411C28.5867 11.8252 28.5033 12.0824 28.5493 12.3388C28.5782 12.5 28.6319 12.7358 28.7295 13.0171C28.9247 13.5797 29.2933 14.3182 29.9875 15.0125C30.6818 15.7067 31.4203 16.0753 31.9829 16.2705C32.2642 16.3681 32.5 16.4218 32.6612 16.4507C32.9176 16.4967 33.1748 16.4133 33.3589 16.2291L33.5498 16.0383Z" fill="#3B5CA0"/>
<path fill-rule="evenodd" clip-rule="evenodd" d="M10.875 13.5C10.875 12.8787 11.3787 12.375 12 12.375H21.75C22.3713 12.375 22.875 12.8787 22.875 13.5C22.875 14.1213 22.3713 14.625 21.75 14.625H12C11.3787 14.625 10.875 14.1213 10.875 13.5ZM10.875 19.5C10.875 18.8787 11.3787 18.375 12 18.375H16.5C17.1213 18.375 17.625 18.8787 17.625 19.5C17.625 20.1213 17.1213 20.625 16.5 20.625H12C11.3787 20.625 10.875 20.1213 10.875 19.5ZM10.875 25.5C10.875 24.8787 11.3787 24.375 12 24.375H14.25C14.8713 24.375 15.375 24.8787 15.375 25.5C15.375 26.1213 14.8713 26.625 14.25 26.625H12C11.3787 26.625 10.875 26.1213 10.875 25.5Z" fill="#3B5CA0"/>
</svg>
