<svg width="36" height="36" viewBox="0 0 36 36" fill="none" xmlns="http://www.w3.org/2000/svg">
<path d="M3.41624 7.87042C3.58234 7.27171 4.20235 6.92102 4.80105 7.08713L7.3566 7.79616C8.73193 8.17775 9.82035 9.23799 10.2 10.6123L13.4266 22.2914L13.664 23.1112C14.6137 23.4657 15.4294 24.1299 15.9471 25.0121L16.4121 24.8686L29.7173 21.4108C30.3187 21.2545 30.9328 21.6153 31.0891 22.2167C31.2454 22.818 30.8846 23.4322 30.2833 23.5885L17.0273 27.0334L16.5342 27.1857C16.5241 29.0921 15.2089 30.8332 13.2185 31.3504C10.8328 31.9704 8.38063 30.5973 7.74138 28.2834C7.10214 25.9695 8.51792 23.5911 10.9036 22.9711C11.0218 22.9404 11.1402 22.9146 11.2586 22.8935L8.03128 11.2115C7.86888 10.6236 7.39346 10.1414 6.75506 9.96426L4.19952 9.25523C3.60081 9.08912 3.25013 8.46912 3.41624 7.87042Z" fill="#3B5CA0"/>
<path opacity="0.5" d="M14.3466 13.0957L15.1183 15.8888C15.8458 18.5222 16.2096 19.8389 17.279 20.4377C18.3485 21.0366 19.7061 20.6838 22.4212 19.9782L25.301 19.2298C28.0161 18.5242 29.3736 18.1714 29.9911 17.1341C30.6086 16.0968 30.2448 14.7802 29.5173 12.1468L28.7457 9.3537C28.0181 6.72034 27.6544 5.40367 26.5849 4.80479C25.5154 4.20592 24.1579 4.55872 21.4428 5.26432L18.563 6.01273C15.8479 6.71834 14.4903 7.07114 13.8728 8.10842C13.2554 9.1457 13.6191 10.4624 14.3466 13.0957Z" fill="#3B5CA0"/>
</svg>
