<svg width="36" height="36" viewBox="0 0 36 36" fill="none" xmlns="http://www.w3.org/2000/svg">
<path opacity="0.5" d="M15 3C13.5503 3 12.375 4.17525 12.375 5.625C12.375 7.07475 13.5503 8.25 15 8.25H21C22.4497 8.25 23.625 7.07475 23.625 5.625C23.625 4.17525 22.4497 3 21 3H15Z" fill="#3B5CA0"/>
<path opacity="0.5" d="M5.79491 24.3078C4.50799 19.1601 3.86453 16.5863 5.21577 14.8556C6.56702 13.125 9.22008 13.125 14.5262 13.125H21.4722C26.7783 13.125 29.4314 13.125 30.7826 14.8556C32.1339 16.5863 31.4904 19.1601 30.2035 24.3078C29.385 27.5818 28.9757 29.2188 27.7551 30.1719C26.5344 31.125 24.847 31.125 21.4722 31.125H14.5262C11.1514 31.125 9.46402 31.125 8.24334 30.1719C7.02267 29.2188 6.61341 27.5818 5.79491 24.3078Z" fill="#3B5CA0"/>
<path d="M23.3707 6.75335C23.5338 6.4115 23.625 6.02885 23.625 5.62489C23.625 5.22281 23.5346 4.84185 23.373 4.50122C24.3983 4.50868 25.1974 4.55574 25.9107 4.83453C26.763 5.16763 27.5043 5.73389 28.0499 6.46852C28.6003 7.20964 28.8587 8.15958 29.2143 9.46705L29.2839 9.7226L30.053 14.1671C29.44 13.7442 28.6494 13.4929 27.627 13.3436L27.085 10.2115C26.6594 8.65197 26.5049 8.16187 26.2436 7.81C25.9498 7.41443 25.5506 7.10952 25.0917 6.93016C24.762 6.8013 24.3636 6.76339 23.3707 6.75335Z" fill="#3B5CA0"/>
<path d="M12.627 4.50122C12.4654 4.84185 12.375 5.22282 12.375 5.62489C12.375 6.02885 12.4662 6.4115 12.6293 6.75335C11.6365 6.76339 11.2381 6.8013 10.9084 6.93016C10.4495 7.10952 10.0503 7.41443 9.75655 7.81C9.49523 8.16187 9.34073 8.65197 8.91506 10.2115L8.37311 13.3434C7.3508 13.4927 6.5603 13.7438 5.94727 14.1664L6.71623 9.7226L6.78581 9.46707C7.14143 8.15959 7.3998 7.20964 7.95019 6.46852C8.49576 5.73388 9.23708 5.16763 10.0894 4.83453C10.8027 4.55575 11.6017 4.50868 12.627 4.50122Z" fill="#3B5CA0"/>
<path d="M13.125 19.125C13.125 18.5037 12.6213 18 12 18C11.3787 18 10.875 18.5037 10.875 19.125V25.125C10.875 25.7463 11.3787 26.25 12 26.25C12.6213 26.25 13.125 25.7463 13.125 25.125V19.125Z" fill="#3B5CA0"/>
<path d="M24 18C24.6213 18 25.125 18.5037 25.125 19.125V25.125C25.125 25.7463 24.6213 26.25 24 26.25C23.3787 26.25 22.875 25.7463 22.875 25.125V19.125C22.875 18.5037 23.3787 18 24 18Z" fill="#3B5CA0"/>
<path d="M19.125 19.125C19.125 18.5037 18.6213 18 18 18C17.3787 18 16.875 18.5037 16.875 19.125V25.125C16.875 25.7463 17.3787 26.25 18 26.25C18.6213 26.25 19.125 25.7463 19.125 25.125V19.125Z" fill="#3B5CA0"/>
</svg>
