<svg width="36" height="36" viewBox="0 0 36 36" fill="none" xmlns="http://www.w3.org/2000/svg">
<path d="M31.9838 5.6792L22.6604 15.6242L31.9298 22.9073C33.0001 21.2519 33.0001 18.8009 33.0001 14.2503C33.0001 9.77769 33.0001 7.3334 31.9838 5.6792Z" fill="#3B5CA0"/>
<path d="M22.9009 28.8009L20.8979 24.7942C19.6335 22.2647 19.0012 21 18 21C16.9988 21 16.3665 22.2647 15.1021 24.7942L13.0991 28.8009C12.3313 30.3368 11.9474 31.1048 12.0058 31.5882C12.0902 32.2867 12.6156 32.8509 13.3062 32.9846C13.7842 33.0772 14.5773 32.7486 16.1635 32.0914C16.7503 31.8483 17.0437 31.7267 17.3444 31.6646C17.7769 31.5752 18.2231 31.5752 18.6556 31.6646C18.9563 31.7267 19.2497 31.8483 19.8365 32.0914C21.4227 32.7486 22.2158 33.0772 22.6938 32.9846C23.3844 32.8509 23.9098 32.2867 23.9942 31.5882C24.0526 31.1048 23.6687 30.3368 22.9009 28.8009Z" fill="#3B5CA0"/>
<path opacity="0.5" d="M3 14.25C3 14.2699 3 14.2897 3 14.3095C3.00002 19.2009 3.00552 21.6536 4.36194 23.3064C4.61126 23.6102 4.88984 23.8888 5.19364 24.1381C5.46516 24.3609 5.75825 24.5473 6.08019 24.7032C7.72538 25.4997 10.1238 25.4997 14.2459 25.4997H14.2496H21.7496L23.7641 25.4958C25.0241 25.4871 26.0883 25.4608 27 25.3813C28.4154 25.2579 29.4634 25.0062 30.3063 24.4929L20.3214 16.6476L4.4416 5.09863C4.41473 5.13003 4.38817 5.16172 4.36194 5.19368C3 6.85321 3 9.31882 3 14.25Z" fill="#3B5CA0"/>
<path d="M21.75 3H14.25C10.3257 3 7.96289 3 6.3252 3.68638L20.8585 14.256L30.4073 4.07059C28.7519 3 26.301 3 21.75 3Z" fill="#3B5CA0"/>
</svg>
